G04*
G04 #@! TF.GenerationSoftware,Altium Limited,Altium Designer,21.3.2 (30)*
G04*
G04 Layer_Color=128*
%FSTAX24Y24*%
%MOIN*%
G70*
G04*
G04 #@! TF.SameCoordinates,4F95F32B-0C25-4130-9E89-9C1B30D11028*
G04*
G04*
G04 #@! TF.FilePolarity,Positive*
G04*
G01*
G75*
%ADD77C,0.0020*%
D77*
X069611Y022545D02*
X070399D01*
X070005Y022151D02*
Y022938D01*
X032456Y0562D02*
X033244D01*
X03285Y055806D02*
Y056594D01*
X069611Y056195D02*
X070399D01*
X070005Y055801D02*
Y056589D01*
X032506Y0226D02*
X033294D01*
X0329Y022206D02*
Y022994D01*
X036672Y031186D02*
X037066D01*
X036869Y030989D02*
Y031383D01*
X039034Y031186D02*
X039428D01*
X039231Y030989D02*
Y031383D01*
X03431Y044414D02*
X034704D01*
X034507Y044217D02*
Y044611D01*
X041396Y044414D02*
X04179D01*
X041593Y044217D02*
Y044611D01*
X043732Y04333D02*
X043968D01*
X04385Y043212D02*
Y043448D01*
X043732Y04233D02*
X043968D01*
X04385Y042212D02*
Y042448D01*
X043732Y04133D02*
X043968D01*
X04385Y041212D02*
Y041448D01*
X043732Y04033D02*
X043968D01*
X04385Y040212D02*
Y040448D01*
X043732Y03933D02*
X043968D01*
X04385Y039212D02*
Y039448D01*
X043732Y03833D02*
X043968D01*
X04385Y038212D02*
Y038448D01*
X043732Y03733D02*
X043968D01*
X04385Y037212D02*
Y037448D01*
X043732Y03633D02*
X043968D01*
X04385Y036212D02*
Y036448D01*
X043732Y03533D02*
X043968D01*
X04385Y035212D02*
Y035448D01*
X043732Y03433D02*
X043968D01*
X04385Y034212D02*
Y034448D01*
X043732Y03333D02*
X043968D01*
X04385Y033212D02*
Y033448D01*
X043732Y03233D02*
X043968D01*
X04385Y032212D02*
Y032448D01*
X043732Y03133D02*
X043968D01*
X04385Y031212D02*
Y031448D01*
X043732Y03033D02*
X043968D01*
X04385Y030212D02*
Y030448D01*
X043732Y02933D02*
X043968D01*
X04385Y029212D02*
Y029448D01*
X043732Y02833D02*
X043968D01*
X04385Y028212D02*
Y028448D01*
X043732Y02733D02*
X043968D01*
X04385Y027212D02*
Y027448D01*
X043732Y02633D02*
X043968D01*
X04385Y026212D02*
Y026448D01*
X043732Y02533D02*
X043968D01*
X04385Y025212D02*
Y025448D01*
X053732Y04333D02*
X053968D01*
X05385Y043212D02*
Y043448D01*
X053732Y04233D02*
X053968D01*
X05385Y042212D02*
Y042448D01*
X053732Y04133D02*
X053968D01*
X05385Y041212D02*
Y041448D01*
X053732Y04033D02*
X053968D01*
X05385Y040212D02*
Y040448D01*
X053732Y03933D02*
X053968D01*
X05385Y039212D02*
Y039448D01*
X053732Y03833D02*
X053968D01*
X05385Y038212D02*
Y038448D01*
X053732Y03733D02*
X053968D01*
X05385Y037212D02*
Y037448D01*
X053732Y03633D02*
X053968D01*
X05385Y036212D02*
Y036448D01*
X053732Y03533D02*
X053968D01*
X05385Y035212D02*
Y035448D01*
X053732Y03433D02*
X053968D01*
X05385Y034212D02*
Y034448D01*
X053732Y03333D02*
X053968D01*
X05385Y033212D02*
Y033448D01*
X053732Y03233D02*
X053968D01*
X05385Y032212D02*
Y032448D01*
X053732Y03133D02*
X053968D01*
X05385Y031212D02*
Y031448D01*
X053732Y03033D02*
X053968D01*
X05385Y030212D02*
Y030448D01*
X053732Y02933D02*
X053968D01*
X05385Y029212D02*
Y029448D01*
X053732Y02833D02*
X053968D01*
X05385Y028212D02*
Y028448D01*
X053732Y02733D02*
X053968D01*
X05385Y027212D02*
Y027448D01*
X053732Y02633D02*
X053968D01*
X05385Y026212D02*
Y026448D01*
X053732Y02533D02*
X053968D01*
X05385Y025212D02*
Y025448D01*
X046093Y04905D02*
X046407D01*
X04625Y048893D02*
Y049207D01*
X046093Y04705D02*
X046407D01*
X04625Y046893D02*
Y047207D01*
X046093Y04805D02*
X046407D01*
X04625Y047893D02*
Y048207D01*
X046093Y05005D02*
X046407D01*
X04625Y049893D02*
Y050207D01*
X049543Y04905D02*
X049857D01*
X0497Y048893D02*
Y049207D01*
X049543Y04705D02*
X049857D01*
X0497Y046893D02*
Y047207D01*
X049543Y04805D02*
X049857D01*
X0497Y047893D02*
Y048207D01*
X049543Y05005D02*
X049857D01*
X0497Y049893D02*
Y050207D01*
X039293Y04905D02*
X039607D01*
X03945Y048893D02*
Y049207D01*
X039293Y04705D02*
X039607D01*
X03945Y046893D02*
Y047207D01*
X039293Y04805D02*
X039607D01*
X03945Y047893D02*
Y048207D01*
X039293Y05005D02*
X039607D01*
X03945Y049893D02*
Y050207D01*
X052993Y04905D02*
X053307D01*
X05315Y048893D02*
Y049207D01*
X052993Y04705D02*
X053307D01*
X05315Y046893D02*
Y047207D01*
X052993Y04805D02*
X053307D01*
X05315Y047893D02*
Y048207D01*
X052993Y05005D02*
X053307D01*
X05315Y049893D02*
Y050207D01*
X042693Y04905D02*
X043007D01*
X04285Y048893D02*
Y049207D01*
X042693Y04705D02*
X043007D01*
X04285Y046893D02*
Y047207D01*
X042693Y04805D02*
X043007D01*
X04285Y047893D02*
Y048207D01*
X042693Y05005D02*
X043007D01*
X04285Y049893D02*
Y050207D01*
X04879Y05322D02*
X0491D01*
X048945Y053065D02*
Y053375D01*
X04608Y0551D02*
X04639D01*
X046235Y054945D02*
Y055255D01*
X04608Y05322D02*
X04639D01*
X046235Y053065D02*
Y053375D01*
X04879Y0551D02*
X0491D01*
X048945Y054945D02*
Y055255D01*
X0445Y05322D02*
X04481D01*
X044655Y053065D02*
Y053375D01*
X04179Y0551D02*
X0421D01*
X041945Y054945D02*
Y055255D01*
X04179Y05322D02*
X0421D01*
X041945Y053065D02*
Y053375D01*
X0445Y0551D02*
X04481D01*
X044655Y054945D02*
Y055255D01*
X053155Y05322D02*
X053465D01*
X05331Y053065D02*
Y053375D01*
X050445Y0551D02*
X050755D01*
X0506Y054945D02*
Y055255D01*
X050445Y05322D02*
X050755D01*
X0506Y053065D02*
Y053375D01*
X053155Y0551D02*
X053465D01*
X05331Y054945D02*
Y055255D01*
X03624Y05322D02*
X03655D01*
X036395Y053065D02*
Y053375D01*
X03353Y0551D02*
X03384D01*
X033685Y054945D02*
Y055255D01*
X03353Y05322D02*
X03384D01*
X033685Y053065D02*
Y053375D01*
X03624Y0551D02*
X03655D01*
X036395Y054945D02*
Y055255D01*
X040405Y05322D02*
X040715D01*
X04056Y053065D02*
Y053375D01*
X037695Y0551D02*
X038005D01*
X03785Y054945D02*
Y055255D01*
X037695Y05322D02*
X038005D01*
X03785Y053065D02*
Y053375D01*
X040405Y0551D02*
X040715D01*
X04056Y054945D02*
Y055255D01*
X03429Y0485D02*
X03461D01*
X03445Y04834D02*
Y04866D01*
X03579Y0485D02*
X03611D01*
X03595Y04834D02*
Y04866D01*
X03365Y0284D02*
X03415D01*
X0339Y02815D02*
Y02865D01*
X04215Y0284D02*
X04265D01*
X0424Y02815D02*
Y02865D01*
X04015Y0284D02*
X04065D01*
X0404Y02815D02*
Y02865D01*
X03565Y0284D02*
X03615D01*
X0359Y02815D02*
Y02865D01*
X034973Y0259D02*
X035327D01*
X03515Y025723D02*
Y026077D01*
X037973Y0259D02*
X038327D01*
X03815Y025723D02*
Y026077D01*
X038027Y02387D02*
X038342D01*
X038184Y023712D02*
Y024027D01*
X036058Y02387D02*
X036373D01*
X036216Y023712D02*
Y024027D01*
X04175Y0241D02*
X04225D01*
X042Y02385D02*
Y02435D01*
X03975Y0241D02*
X04025D01*
X04Y02385D02*
Y02435D01*
X056673Y0509D02*
X056983D01*
X056828Y050745D02*
Y051055D01*
X057673Y0509D02*
X057983D01*
X057828Y050745D02*
Y051055D01*
X057673Y0539D02*
X057983D01*
X057828Y053745D02*
Y054055D01*
X056673Y0539D02*
X056983D01*
X056828Y053745D02*
Y054055D01*
X056673Y0444D02*
X056983D01*
X056828Y044245D02*
Y044555D01*
X057673Y0444D02*
X057983D01*
X057828Y044245D02*
Y044555D01*
X057673Y0474D02*
X057983D01*
X057828Y047245D02*
Y047555D01*
X056673Y0474D02*
X056983D01*
X056828Y047245D02*
Y047555D01*
X067764Y03491D02*
X068236D01*
X068Y034674D02*
Y035146D01*
X067764Y030915D02*
X068236D01*
X068Y030679D02*
Y031151D01*
X067764Y032915D02*
X068236D01*
X068Y032679D02*
Y033151D01*
X064475Y05495D02*
X064925D01*
X0647Y054725D02*
Y055175D01*
X059675Y05015D02*
X060125D01*
X0599Y049925D02*
Y050375D01*
X065475Y05255D02*
X065925D01*
X0657Y052325D02*
Y052775D01*
X059675Y05495D02*
X060125D01*
X0599Y054725D02*
Y055175D01*
X064475Y05015D02*
X064925D01*
X0647Y049925D02*
Y050375D01*
X067764Y05441D02*
X068236D01*
X068Y054174D02*
Y054646D01*
X067764Y050415D02*
X068236D01*
X068Y050179D02*
Y050651D01*
X067764Y052415D02*
X068236D01*
X068Y052179D02*
Y052651D01*
X064475Y03545D02*
X064925D01*
X0647Y035225D02*
Y035675D01*
X059675Y03065D02*
X060125D01*
X0599Y030425D02*
Y030875D01*
X065475Y03305D02*
X065925D01*
X0657Y032825D02*
Y033275D01*
X059675Y03545D02*
X060125D01*
X0599Y035225D02*
Y035675D01*
X064475Y03065D02*
X064925D01*
X0647Y030425D02*
Y030875D01*
X064475Y041985D02*
X064925D01*
X0647Y04176D02*
Y04221D01*
X059675Y037185D02*
X060125D01*
X0599Y03696D02*
Y03741D01*
X065475Y039585D02*
X065925D01*
X0657Y03936D02*
Y03981D01*
X059675Y041985D02*
X060125D01*
X0599Y04176D02*
Y04221D01*
X064475Y037185D02*
X064925D01*
X0647Y03696D02*
Y03741D01*
X064475Y048485D02*
X064925D01*
X0647Y04826D02*
Y04871D01*
X059675Y043685D02*
X060125D01*
X0599Y04346D02*
Y04391D01*
X065475Y046085D02*
X065925D01*
X0657Y04586D02*
Y04631D01*
X059675Y048485D02*
X060125D01*
X0599Y04826D02*
Y04871D01*
X064475Y043685D02*
X064925D01*
X0647Y04346D02*
Y04391D01*
X064475Y028885D02*
X064925D01*
X0647Y02866D02*
Y02911D01*
X059675Y024085D02*
X060125D01*
X0599Y02386D02*
Y02431D01*
X065475Y026485D02*
X065925D01*
X0657Y02626D02*
Y02671D01*
X059675Y028885D02*
X060125D01*
X0599Y02866D02*
Y02911D01*
X064475Y024085D02*
X064925D01*
X0647Y02386D02*
Y02431D01*
X067764Y047945D02*
X068236D01*
X068Y047709D02*
Y048181D01*
X067764Y04395D02*
X068236D01*
X068Y043714D02*
Y044186D01*
X067764Y04595D02*
X068236D01*
X068Y045714D02*
Y046186D01*
X067764Y041445D02*
X068236D01*
X068Y041209D02*
Y041681D01*
X067764Y03745D02*
X068236D01*
X068Y037214D02*
Y037686D01*
X067764Y03945D02*
X068236D01*
X068Y039214D02*
Y039686D01*
X067764Y028345D02*
X068236D01*
X068Y028109D02*
Y028581D01*
X067764Y02435D02*
X068236D01*
X068Y024114D02*
Y024586D01*
X067764Y02635D02*
X068236D01*
X068Y026114D02*
Y026586D01*
X056645Y02805D02*
X056955D01*
X0568Y027895D02*
Y028205D01*
X057645Y02805D02*
X057955D01*
X0578Y027895D02*
Y028205D01*
X057645Y02505D02*
X057955D01*
X0578Y024895D02*
Y025205D01*
X056645Y02505D02*
X056955D01*
X0568Y024895D02*
Y025205D01*
X056673Y04085D02*
X056983D01*
X056828Y040695D02*
Y041005D01*
X057673Y04085D02*
X057983D01*
X057828Y040695D02*
Y041005D01*
X057673Y03785D02*
X057983D01*
X057828Y037695D02*
Y038005D01*
X056673Y03785D02*
X056983D01*
X056828Y037695D02*
Y038005D01*
X056695Y0346D02*
X057005D01*
X05685Y034445D02*
Y034755D01*
X057695Y0346D02*
X058005D01*
X05785Y034445D02*
Y034755D01*
X057695Y0316D02*
X058005D01*
X05785Y031445D02*
Y031755D01*
X056695Y0316D02*
X057005D01*
X05685Y031445D02*
Y031755D01*
X055023Y036019D02*
X055303D01*
X055163Y035879D02*
Y036159D01*
X04626Y0373D02*
X04654D01*
X0464Y03716D02*
Y03744D01*
X055047Y029663D02*
X055327D01*
X055187Y029523D02*
Y029803D01*
X05656Y0308D02*
X05684D01*
X0567Y03066D02*
Y03094D01*
X05646Y0242D02*
X05674D01*
X0566Y02406D02*
Y02434D01*
X05649Y04922D02*
X05677D01*
X05663Y04908D02*
Y04936D01*
X056478Y0362D02*
X056758D01*
X056618Y03606D02*
Y03634D01*
X056478Y04275D02*
X056758D01*
X056618Y04261D02*
Y04289D01*
M02*
