G04*
G04 #@! TF.GenerationSoftware,Altium Limited,Altium Designer,21.3.2 (30)*
G04*
G04 Layer_Color=2752767*
%FSTAX24Y24*%
%MOIN*%
G70*
G04*
G04 #@! TF.SameCoordinates,4F95F32B-0C25-4130-9E89-9C1B30D11028*
G04*
G04*
G04 #@! TF.FilePolarity,Positive*
G04*
G01*
G75*
%ADD77C,0.0020*%
%ADD78C,0.0027*%
%ADD79C,0.0013*%
D77*
X069925Y022465D02*
Y022625D01*
X070085D01*
Y022465D01*
X069925D01*
X03277Y05612D02*
Y05628D01*
X03293D01*
Y05612D01*
X03277D01*
X069925Y056115D02*
Y056275D01*
X070085D01*
Y056115D01*
X069925D01*
X03282Y02252D02*
Y02268D01*
X03298D01*
Y02252D01*
X03282D01*
X04385Y04325D02*
X04377Y04341D01*
X04393D01*
X04385Y04325D01*
Y04225D02*
X04377Y04241D01*
X04393D01*
X04385Y04225D01*
Y04125D02*
X04377Y04141D01*
X04393D01*
X04385Y04125D01*
Y04025D02*
X04377Y04041D01*
X04393D01*
X04385Y04025D01*
Y03925D02*
X04377Y03941D01*
X04393D01*
X04385Y03925D01*
Y03825D02*
X04377Y03841D01*
X04393D01*
X04385Y03825D01*
Y03725D02*
X04377Y03741D01*
X04393D01*
X04385Y03725D01*
Y03625D02*
X04377Y03641D01*
X04393D01*
X04385Y03625D01*
Y03525D02*
X04377Y03541D01*
X04393D01*
X04385Y03525D01*
Y03425D02*
X04377Y03441D01*
X04393D01*
X04385Y03425D01*
Y03325D02*
X04377Y03341D01*
X04393D01*
X04385Y03325D01*
Y03225D02*
X04377Y03241D01*
X04393D01*
X04385Y03225D01*
Y03125D02*
X04377Y03141D01*
X04393D01*
X04385Y03125D01*
Y03025D02*
X04377Y03041D01*
X04393D01*
X04385Y03025D01*
Y02925D02*
X04377Y02941D01*
X04393D01*
X04385Y02925D01*
Y02825D02*
X04377Y02841D01*
X04393D01*
X04385Y02825D01*
Y02725D02*
X04377Y02741D01*
X04393D01*
X04385Y02725D01*
Y02625D02*
X04377Y02641D01*
X04393D01*
X04385Y02625D01*
Y02525D02*
X04377Y02541D01*
X04393D01*
X04385Y02525D01*
X05385Y04325D02*
X05377Y04341D01*
X05393D01*
X05385Y04325D01*
Y04225D02*
X05377Y04241D01*
X05393D01*
X05385Y04225D01*
Y04125D02*
X05377Y04141D01*
X05393D01*
X05385Y04125D01*
Y04025D02*
X05377Y04041D01*
X05393D01*
X05385Y04025D01*
Y03925D02*
X05377Y03941D01*
X05393D01*
X05385Y03925D01*
Y03825D02*
X05377Y03841D01*
X05393D01*
X05385Y03825D01*
Y03725D02*
X05377Y03741D01*
X05393D01*
X05385Y03725D01*
Y03625D02*
X05377Y03641D01*
X05393D01*
X05385Y03625D01*
Y03525D02*
X05377Y03541D01*
X05393D01*
X05385Y03525D01*
Y03425D02*
X05377Y03441D01*
X05393D01*
X05385Y03425D01*
Y03325D02*
X05377Y03341D01*
X05393D01*
X05385Y03325D01*
Y03225D02*
X05377Y03241D01*
X05393D01*
X05385Y03225D01*
Y03125D02*
X05377Y03141D01*
X05393D01*
X05385Y03125D01*
Y03025D02*
X05377Y03041D01*
X05393D01*
X05385Y03025D01*
Y02925D02*
X05377Y02941D01*
X05393D01*
X05385Y02925D01*
Y02825D02*
X05377Y02841D01*
X05393D01*
X05385Y02825D01*
Y02725D02*
X05377Y02741D01*
X05393D01*
X05385Y02725D01*
Y02625D02*
X05377Y02641D01*
X05393D01*
X05385Y02625D01*
Y02525D02*
X05377Y02541D01*
X05393D01*
X05385Y02525D01*
X04625Y04897D02*
X04629Y04901D01*
X04633D01*
X04629Y04905D01*
X04633Y04909D01*
X04629D01*
X04625Y04913D01*
X04621Y04909D01*
X04617D01*
X04621Y04905D01*
X04617Y04901D01*
X04621D01*
X04625Y04897D01*
Y04697D02*
X04629Y04701D01*
X04633D01*
X04629Y04705D01*
X04633Y04709D01*
X04629D01*
X04625Y04713D01*
X04621Y04709D01*
X04617D01*
X04621Y04705D01*
X04617Y04701D01*
X04621D01*
X04625Y04697D01*
Y04797D02*
X04629Y04801D01*
X04633D01*
X04629Y04805D01*
X04633Y04809D01*
X04629D01*
X04625Y04813D01*
X04621Y04809D01*
X04617D01*
X04621Y04805D01*
X04617Y04801D01*
X04621D01*
X04625Y04797D01*
Y04997D02*
X04629Y05001D01*
X04633D01*
X04629Y05005D01*
X04633Y05009D01*
X04629D01*
X04625Y05013D01*
X04621Y05009D01*
X04617D01*
X04621Y05005D01*
X04617Y05001D01*
X04621D01*
X04625Y04997D01*
X0497Y04897D02*
X04974Y04901D01*
X04978D01*
X04974Y04905D01*
X04978Y04909D01*
X04974D01*
X0497Y04913D01*
X04966Y04909D01*
X04962D01*
X04966Y04905D01*
X04962Y04901D01*
X04966D01*
X0497Y04897D01*
Y04697D02*
X04974Y04701D01*
X04978D01*
X04974Y04705D01*
X04978Y04709D01*
X04974D01*
X0497Y04713D01*
X04966Y04709D01*
X04962D01*
X04966Y04705D01*
X04962Y04701D01*
X04966D01*
X0497Y04697D01*
Y04797D02*
X04974Y04801D01*
X04978D01*
X04974Y04805D01*
X04978Y04809D01*
X04974D01*
X0497Y04813D01*
X04966Y04809D01*
X04962D01*
X04966Y04805D01*
X04962Y04801D01*
X04966D01*
X0497Y04797D01*
Y04997D02*
X04974Y05001D01*
X04978D01*
X04974Y05005D01*
X04978Y05009D01*
X04974D01*
X0497Y05013D01*
X04966Y05009D01*
X04962D01*
X04966Y05005D01*
X04962Y05001D01*
X04966D01*
X0497Y04997D01*
X03945Y04897D02*
X03949Y04901D01*
X03953D01*
X03949Y04905D01*
X03953Y04909D01*
X03949D01*
X03945Y04913D01*
X03941Y04909D01*
X03937D01*
X03941Y04905D01*
X03937Y04901D01*
X03941D01*
X03945Y04897D01*
Y04697D02*
X03949Y04701D01*
X03953D01*
X03949Y04705D01*
X03953Y04709D01*
X03949D01*
X03945Y04713D01*
X03941Y04709D01*
X03937D01*
X03941Y04705D01*
X03937Y04701D01*
X03941D01*
X03945Y04697D01*
Y04797D02*
X03949Y04801D01*
X03953D01*
X03949Y04805D01*
X03953Y04809D01*
X03949D01*
X03945Y04813D01*
X03941Y04809D01*
X03937D01*
X03941Y04805D01*
X03937Y04801D01*
X03941D01*
X03945Y04797D01*
Y04997D02*
X03949Y05001D01*
X03953D01*
X03949Y05005D01*
X03953Y05009D01*
X03949D01*
X03945Y05013D01*
X03941Y05009D01*
X03937D01*
X03941Y05005D01*
X03937Y05001D01*
X03941D01*
X03945Y04997D01*
X05315Y04897D02*
X05319Y04901D01*
X05323D01*
X05319Y04905D01*
X05323Y04909D01*
X05319D01*
X05315Y04913D01*
X05311Y04909D01*
X05307D01*
X05311Y04905D01*
X05307Y04901D01*
X05311D01*
X05315Y04897D01*
Y04697D02*
X05319Y04701D01*
X05323D01*
X05319Y04705D01*
X05323Y04709D01*
X05319D01*
X05315Y04713D01*
X05311Y04709D01*
X05307D01*
X05311Y04705D01*
X05307Y04701D01*
X05311D01*
X05315Y04697D01*
Y04797D02*
X05319Y04801D01*
X05323D01*
X05319Y04805D01*
X05323Y04809D01*
X05319D01*
X05315Y04813D01*
X05311Y04809D01*
X05307D01*
X05311Y04805D01*
X05307Y04801D01*
X05311D01*
X05315Y04797D01*
Y04997D02*
X05319Y05001D01*
X05323D01*
X05319Y05005D01*
X05323Y05009D01*
X05319D01*
X05315Y05013D01*
X05311Y05009D01*
X05307D01*
X05311Y05005D01*
X05307Y05001D01*
X05311D01*
X05315Y04997D01*
X04285Y04897D02*
X04289Y04901D01*
X04293D01*
X04289Y04905D01*
X04293Y04909D01*
X04289D01*
X04285Y04913D01*
X04281Y04909D01*
X04277D01*
X04281Y04905D01*
X04277Y04901D01*
X04281D01*
X04285Y04897D01*
Y04697D02*
X04289Y04701D01*
X04293D01*
X04289Y04705D01*
X04293Y04709D01*
X04289D01*
X04285Y04713D01*
X04281Y04709D01*
X04277D01*
X04281Y04705D01*
X04277Y04701D01*
X04281D01*
X04285Y04697D01*
Y04797D02*
X04289Y04801D01*
X04293D01*
X04289Y04805D01*
X04293Y04809D01*
X04289D01*
X04285Y04813D01*
X04281Y04809D01*
X04277D01*
X04281Y04805D01*
X04277Y04801D01*
X04281D01*
X04285Y04797D01*
Y04997D02*
X04289Y05001D01*
X04293D01*
X04289Y05005D01*
X04293Y05009D01*
X04289D01*
X04285Y05013D01*
X04281Y05009D01*
X04277D01*
X04281Y05005D01*
X04277Y05001D01*
X04281D01*
X04285Y04997D01*
X048865Y05314D02*
X048905Y05322D01*
X048865Y0533D01*
X048945Y05326D01*
X049025Y0533D01*
X048985Y05322D01*
X049025Y05314D01*
X048945Y05318D01*
X048865Y05314D01*
X046155Y05502D02*
X046195Y0551D01*
X046155Y05518D01*
X046235Y05514D01*
X046315Y05518D01*
X046275Y0551D01*
X046315Y05502D01*
X046235Y05506D01*
X046155Y05502D01*
Y05314D02*
X046195Y05322D01*
X046155Y0533D01*
X046235Y05326D01*
X046315Y0533D01*
X046275Y05322D01*
X046315Y05314D01*
X046235Y05318D01*
X046155Y05314D01*
X048865Y05502D02*
X048905Y0551D01*
X048865Y05518D01*
X048945Y05514D01*
X049025Y05518D01*
X048985Y0551D01*
X049025Y05502D01*
X048945Y05506D01*
X048865Y05502D01*
X044575Y05314D02*
X044615Y05322D01*
X044575Y0533D01*
X044655Y05326D01*
X044735Y0533D01*
X044695Y05322D01*
X044735Y05314D01*
X044655Y05318D01*
X044575Y05314D01*
X041865Y05502D02*
X041905Y0551D01*
X041865Y05518D01*
X041945Y05514D01*
X042025Y05518D01*
X041985Y0551D01*
X042025Y05502D01*
X041945Y05506D01*
X041865Y05502D01*
Y05314D02*
X041905Y05322D01*
X041865Y0533D01*
X041945Y05326D01*
X042025Y0533D01*
X041985Y05322D01*
X042025Y05314D01*
X041945Y05318D01*
X041865Y05314D01*
X044575Y05502D02*
X044615Y0551D01*
X044575Y05518D01*
X044655Y05514D01*
X044735Y05518D01*
X044695Y0551D01*
X044735Y05502D01*
X044655Y05506D01*
X044575Y05502D01*
X05323Y05314D02*
X05327Y05322D01*
X05323Y0533D01*
X05331Y05326D01*
X05339Y0533D01*
X05335Y05322D01*
X05339Y05314D01*
X05331Y05318D01*
X05323Y05314D01*
X05052Y05502D02*
X05056Y0551D01*
X05052Y05518D01*
X0506Y05514D01*
X05068Y05518D01*
X05064Y0551D01*
X05068Y05502D01*
X0506Y05506D01*
X05052Y05502D01*
Y05314D02*
X05056Y05322D01*
X05052Y0533D01*
X0506Y05326D01*
X05068Y0533D01*
X05064Y05322D01*
X05068Y05314D01*
X0506Y05318D01*
X05052Y05314D01*
X05323Y05502D02*
X05327Y0551D01*
X05323Y05518D01*
X05331Y05514D01*
X05339Y05518D01*
X05335Y0551D01*
X05339Y05502D01*
X05331Y05506D01*
X05323Y05502D01*
X036315Y05314D02*
X036355Y05322D01*
X036315Y0533D01*
X036395Y05326D01*
X036475Y0533D01*
X036435Y05322D01*
X036475Y05314D01*
X036395Y05318D01*
X036315Y05314D01*
X033605Y05502D02*
X033645Y0551D01*
X033605Y05518D01*
X033685Y05514D01*
X033765Y05518D01*
X033725Y0551D01*
X033765Y05502D01*
X033685Y05506D01*
X033605Y05502D01*
Y05314D02*
X033645Y05322D01*
X033605Y0533D01*
X033685Y05326D01*
X033765Y0533D01*
X033725Y05322D01*
X033765Y05314D01*
X033685Y05318D01*
X033605Y05314D01*
X036315Y05502D02*
X036355Y0551D01*
X036315Y05518D01*
X036395Y05514D01*
X036475Y05518D01*
X036435Y0551D01*
X036475Y05502D01*
X036395Y05506D01*
X036315Y05502D01*
X04048Y05314D02*
X04052Y05322D01*
X04048Y0533D01*
X04056Y05326D01*
X04064Y0533D01*
X0406Y05322D01*
X04064Y05314D01*
X04056Y05318D01*
X04048Y05314D01*
X03777Y05502D02*
X03781Y0551D01*
X03777Y05518D01*
X03785Y05514D01*
X03793Y05518D01*
X03789Y0551D01*
X03793Y05502D01*
X03785Y05506D01*
X03777Y05502D01*
Y05314D02*
X03781Y05322D01*
X03777Y0533D01*
X03785Y05326D01*
X03793Y0533D01*
X03789Y05322D01*
X03793Y05314D01*
X03785Y05318D01*
X03777Y05314D01*
X04048Y05502D02*
X04052Y0551D01*
X04048Y05518D01*
X04056Y05514D01*
X04064Y05518D01*
X0406Y0551D01*
X04064Y05502D01*
X04056Y05506D01*
X04048Y05502D01*
X03441Y04846D02*
Y04842D01*
X03449D01*
Y04846D01*
X03453D01*
Y04854D01*
X03449D01*
Y04858D01*
X03441D01*
Y04854D01*
X03437D01*
Y04846D01*
X03441D01*
X03591D02*
Y04842D01*
X03599D01*
Y04846D01*
X03603D01*
Y04854D01*
X03599D01*
Y04858D01*
X03591D01*
Y04854D01*
X03587D01*
Y04846D01*
X03591D01*
X03382Y02832D02*
X03386D01*
X0339Y02836D01*
X03394Y02832D01*
X03398D01*
Y02836D01*
X03394Y0284D01*
X03398Y02844D01*
Y02848D01*
X03394D01*
X0339Y02844D01*
X03386Y02848D01*
X03382D01*
Y02844D01*
X03386Y0284D01*
X03382Y02836D01*
Y02832D01*
X04232D02*
X04236D01*
X0424Y02836D01*
X04244Y02832D01*
X04248D01*
Y02836D01*
X04244Y0284D01*
X04248Y02844D01*
Y02848D01*
X04244D01*
X0424Y02844D01*
X04236Y02848D01*
X04232D01*
Y02844D01*
X04236Y0284D01*
X04232Y02836D01*
Y02832D01*
X04032D02*
X04036D01*
X0404Y02836D01*
X04044Y02832D01*
X04048D01*
Y02836D01*
X04044Y0284D01*
X04048Y02844D01*
Y02848D01*
X04044D01*
X0404Y02844D01*
X04036Y02848D01*
X04032D01*
Y02844D01*
X04036Y0284D01*
X04032Y02836D01*
Y02832D01*
X03582D02*
X03586D01*
X0359Y02836D01*
X03594Y02832D01*
X03598D01*
Y02836D01*
X03594Y0284D01*
X03598Y02844D01*
Y02848D01*
X03594D01*
X0359Y02844D01*
X03586Y02848D01*
X03582D01*
Y02844D01*
X03586Y0284D01*
X03582Y02836D01*
Y02832D01*
X03507Y0259D02*
X03515Y02598D01*
X03523Y0259D01*
X03515Y02582D01*
X03507Y0259D01*
X03807D02*
X03815Y02598D01*
X03823Y0259D01*
X03815Y02582D01*
X03807Y0259D01*
X038184Y02379D02*
X038224Y02383D01*
X038264D01*
X038224Y02387D01*
X038264Y02391D01*
X038224D01*
X038184Y02395D01*
X038144Y02391D01*
X038104D01*
X038144Y02387D01*
X038104Y02383D01*
X038144D01*
X038184Y02379D01*
X036216D02*
X036256Y02383D01*
X036296D01*
X036256Y02387D01*
X036296Y02391D01*
X036256D01*
X036216Y02395D01*
X036176Y02391D01*
X036136D01*
X036176Y02387D01*
X036136Y02383D01*
X036176D01*
X036216Y02379D01*
X04192Y02402D02*
X04196D01*
X042Y02406D01*
X04204Y02402D01*
X04208D01*
Y02406D01*
X04204Y0241D01*
X04208Y02414D01*
Y02418D01*
X04204D01*
X042Y02414D01*
X04196Y02418D01*
X04192D01*
Y02414D01*
X04196Y0241D01*
X04192Y02406D01*
Y02402D01*
X03992D02*
X03996D01*
X04Y02406D01*
X04004Y02402D01*
X04008D01*
Y02406D01*
X04004Y0241D01*
X04008Y02414D01*
Y02418D01*
X04004D01*
X04Y02414D01*
X03996Y02418D01*
X03992D01*
Y02414D01*
X03996Y0241D01*
X03992Y02406D01*
Y02402D01*
X056748Y05082D02*
X056788Y0509D01*
X056748Y05098D01*
X056828Y05094D01*
X056908Y05098D01*
X056868Y0509D01*
X056908Y05082D01*
X056828Y05086D01*
X056748Y05082D01*
X057748D02*
X057788Y0509D01*
X057748Y05098D01*
X057828Y05094D01*
X057908Y05098D01*
X057868Y0509D01*
X057908Y05082D01*
X057828Y05086D01*
X057748Y05082D01*
Y05382D02*
X057788Y0539D01*
X057748Y05398D01*
X057828Y05394D01*
X057908Y05398D01*
X057868Y0539D01*
X057908Y05382D01*
X057828Y05386D01*
X057748Y05382D01*
X056748D02*
X056788Y0539D01*
X056748Y05398D01*
X056828Y05394D01*
X056908Y05398D01*
X056868Y0539D01*
X056908Y05382D01*
X056828Y05386D01*
X056748Y05382D01*
Y04432D02*
X056788Y0444D01*
X056748Y04448D01*
X056828Y04444D01*
X056908Y04448D01*
X056868Y0444D01*
X056908Y04432D01*
X056828Y04436D01*
X056748Y04432D01*
X057748D02*
X057788Y0444D01*
X057748Y04448D01*
X057828Y04444D01*
X057908Y04448D01*
X057868Y0444D01*
X057908Y04432D01*
X057828Y04436D01*
X057748Y04432D01*
Y04732D02*
X057788Y0474D01*
X057748Y04748D01*
X057828Y04744D01*
X057908Y04748D01*
X057868Y0474D01*
X057908Y04732D01*
X057828Y04736D01*
X057748Y04732D01*
X056748D02*
X056788Y0474D01*
X056748Y04748D01*
X056828Y04744D01*
X056908Y04748D01*
X056868Y0474D01*
X056908Y04732D01*
X056828Y04736D01*
X056748Y04732D01*
X06792Y03483D02*
Y03499D01*
X06808D01*
Y03483D01*
X06792D01*
X06796Y03487D02*
Y03495D01*
X06804D01*
Y03487D01*
X06796D01*
X06792Y030835D02*
Y030995D01*
X06808D01*
Y030835D01*
X06792D01*
X06796Y030875D02*
Y030955D01*
X06804D01*
Y030875D01*
X06796D01*
X06792Y032835D02*
Y032995D01*
X06808D01*
Y032835D01*
X06792D01*
X06796Y032875D02*
Y032955D01*
X06804D01*
Y032875D01*
X06796D01*
X06792Y05433D02*
Y05449D01*
X06808D01*
Y05433D01*
X06792D01*
X06796Y05437D02*
Y05445D01*
X06804D01*
Y05437D01*
X06796D01*
X06792Y050335D02*
Y050495D01*
X06808D01*
Y050335D01*
X06792D01*
X06796Y050375D02*
Y050455D01*
X06804D01*
Y050375D01*
X06796D01*
X06792Y052335D02*
Y052495D01*
X06808D01*
Y052335D01*
X06792D01*
X06796Y052375D02*
Y052455D01*
X06804D01*
Y052375D01*
X06796D01*
X06792Y047865D02*
Y048025D01*
X06808D01*
Y047865D01*
X06792D01*
X06796Y047905D02*
Y047985D01*
X06804D01*
Y047905D01*
X06796D01*
X06792Y04387D02*
Y04403D01*
X06808D01*
Y04387D01*
X06792D01*
X06796Y04391D02*
Y04399D01*
X06804D01*
Y04391D01*
X06796D01*
X06792Y04587D02*
Y04603D01*
X06808D01*
Y04587D01*
X06792D01*
X06796Y04591D02*
Y04599D01*
X06804D01*
Y04591D01*
X06796D01*
X06792Y041365D02*
Y041525D01*
X06808D01*
Y041365D01*
X06792D01*
X06796Y041405D02*
Y041485D01*
X06804D01*
Y041405D01*
X06796D01*
X06792Y03737D02*
Y03753D01*
X06808D01*
Y03737D01*
X06792D01*
X06796Y03741D02*
Y03749D01*
X06804D01*
Y03741D01*
X06796D01*
X06792Y03937D02*
Y03953D01*
X06808D01*
Y03937D01*
X06792D01*
X06796Y03941D02*
Y03949D01*
X06804D01*
Y03941D01*
X06796D01*
X06792Y028265D02*
Y028425D01*
X06808D01*
Y028265D01*
X06792D01*
X06796Y028305D02*
Y028385D01*
X06804D01*
Y028305D01*
X06796D01*
X06792Y02427D02*
Y02443D01*
X06808D01*
Y02427D01*
X06792D01*
X06796Y02431D02*
Y02439D01*
X06804D01*
Y02431D01*
X06796D01*
X06792Y02627D02*
Y02643D01*
X06808D01*
Y02627D01*
X06792D01*
X06796Y02631D02*
Y02639D01*
X06804D01*
Y02631D01*
X06796D01*
X05672Y02797D02*
X05676Y02805D01*
X05672Y02813D01*
X0568Y02809D01*
X05688Y02813D01*
X05684Y02805D01*
X05688Y02797D01*
X0568Y02801D01*
X05672Y02797D01*
X05772D02*
X05776Y02805D01*
X05772Y02813D01*
X0578Y02809D01*
X05788Y02813D01*
X05784Y02805D01*
X05788Y02797D01*
X0578Y02801D01*
X05772Y02797D01*
Y02497D02*
X05776Y02505D01*
X05772Y02513D01*
X0578Y02509D01*
X05788Y02513D01*
X05784Y02505D01*
X05788Y02497D01*
X0578Y02501D01*
X05772Y02497D01*
X05672D02*
X05676Y02505D01*
X05672Y02513D01*
X0568Y02509D01*
X05688Y02513D01*
X05684Y02505D01*
X05688Y02497D01*
X0568Y02501D01*
X05672Y02497D01*
X056748Y04077D02*
X056788Y04085D01*
X056748Y04093D01*
X056828Y04089D01*
X056908Y04093D01*
X056868Y04085D01*
X056908Y04077D01*
X056828Y04081D01*
X056748Y04077D01*
X057748D02*
X057788Y04085D01*
X057748Y04093D01*
X057828Y04089D01*
X057908Y04093D01*
X057868Y04085D01*
X057908Y04077D01*
X057828Y04081D01*
X057748Y04077D01*
Y03777D02*
X057788Y03785D01*
X057748Y03793D01*
X057828Y03789D01*
X057908Y03793D01*
X057868Y03785D01*
X057908Y03777D01*
X057828Y03781D01*
X057748Y03777D01*
X056748D02*
X056788Y03785D01*
X056748Y03793D01*
X056828Y03789D01*
X056908Y03793D01*
X056868Y03785D01*
X056908Y03777D01*
X056828Y03781D01*
X056748Y03777D01*
X05677Y03452D02*
X05681Y0346D01*
X05677Y03468D01*
X05685Y03464D01*
X05693Y03468D01*
X05689Y0346D01*
X05693Y03452D01*
X05685Y03456D01*
X05677Y03452D01*
X05777D02*
X05781Y0346D01*
X05777Y03468D01*
X05785Y03464D01*
X05793Y03468D01*
X05789Y0346D01*
X05793Y03452D01*
X05785Y03456D01*
X05777Y03452D01*
Y03152D02*
X05781Y0316D01*
X05777Y03168D01*
X05785Y03164D01*
X05793Y03168D01*
X05789Y0316D01*
X05793Y03152D01*
X05785Y03156D01*
X05777Y03152D01*
X05677D02*
X05681Y0316D01*
X05677Y03168D01*
X05685Y03164D01*
X05693Y03168D01*
X05689Y0316D01*
X05693Y03152D01*
X05685Y03156D01*
X05677Y03152D01*
X055163Y035939D02*
X055083Y036099D01*
X055243D01*
X055163Y035939D01*
Y035979D02*
X055123Y036059D01*
X055203D01*
X055163Y035979D01*
X0464Y03722D02*
X04632Y03738D01*
X04648D01*
X0464Y03722D01*
Y03726D02*
X04636Y03734D01*
X04644D01*
X0464Y03726D01*
X055187Y029583D02*
X055107Y029743D01*
X055267D01*
X055187Y029583D01*
Y029623D02*
X055147Y029703D01*
X055227D01*
X055187Y029623D01*
X0567Y03072D02*
X05662Y03088D01*
X05678D01*
X0567Y03072D01*
Y03076D02*
X05666Y03084D01*
X05674D01*
X0567Y03076D01*
X0566Y02412D02*
X05652Y02428D01*
X05668D01*
X0566Y02412D01*
Y02416D02*
X05656Y02424D01*
X05664D01*
X0566Y02416D01*
X05663Y04914D02*
X05655Y0493D01*
X05671D01*
X05663Y04914D01*
Y04918D02*
X05659Y04926D01*
X05667D01*
X05663Y04918D01*
X056618Y03612D02*
X056538Y03628D01*
X056698D01*
X056618Y03612D01*
Y03616D02*
X056578Y03624D01*
X056658D01*
X056618Y03616D01*
Y04267D02*
X056538Y04283D01*
X056698D01*
X056618Y04267D01*
Y04271D02*
X056578Y04279D01*
X056658D01*
X056618Y04271D01*
D78*
X036949Y031186D02*
G03*
X036949Y031186I-00008J0D01*
G01*
X039311D02*
G03*
X039311Y031186I-00008J0D01*
G01*
X034587Y044414D02*
G03*
X034587Y044414I-00008J0D01*
G01*
X041673D02*
G03*
X041673Y044414I-00008J0D01*
G01*
X06478Y05495D02*
G03*
X06478Y05495I-00008J0D01*
G01*
X05998Y05015D02*
G03*
X05998Y05015I-00008J0D01*
G01*
X06578Y05255D02*
G03*
X06578Y05255I-00008J0D01*
G01*
X05998Y05495D02*
G03*
X05998Y05495I-00008J0D01*
G01*
X06478Y05015D02*
G03*
X06478Y05015I-00008J0D01*
G01*
Y03545D02*
G03*
X06478Y03545I-00008J0D01*
G01*
X05998Y03065D02*
G03*
X05998Y03065I-00008J0D01*
G01*
X06578Y03305D02*
G03*
X06578Y03305I-00008J0D01*
G01*
X05998Y03545D02*
G03*
X05998Y03545I-00008J0D01*
G01*
X06478Y03065D02*
G03*
X06478Y03065I-00008J0D01*
G01*
Y041985D02*
G03*
X06478Y041985I-00008J0D01*
G01*
X05998Y037185D02*
G03*
X05998Y037185I-00008J0D01*
G01*
X06578Y039585D02*
G03*
X06578Y039585I-00008J0D01*
G01*
X05998Y041985D02*
G03*
X05998Y041985I-00008J0D01*
G01*
X06478Y037185D02*
G03*
X06478Y037185I-00008J0D01*
G01*
Y048485D02*
G03*
X06478Y048485I-00008J0D01*
G01*
X05998Y043685D02*
G03*
X05998Y043685I-00008J0D01*
G01*
X06578Y046085D02*
G03*
X06578Y046085I-00008J0D01*
G01*
X05998Y048485D02*
G03*
X05998Y048485I-00008J0D01*
G01*
X06478Y043685D02*
G03*
X06478Y043685I-00008J0D01*
G01*
Y028885D02*
G03*
X06478Y028885I-00008J0D01*
G01*
X05998Y024085D02*
G03*
X05998Y024085I-00008J0D01*
G01*
X06578Y026485D02*
G03*
X06578Y026485I-00008J0D01*
G01*
X05998Y028885D02*
G03*
X05998Y028885I-00008J0D01*
G01*
X06478Y024085D02*
G03*
X06478Y024085I-00008J0D01*
G01*
D79*
X06474Y05495D02*
G03*
X06474Y05495I-00004J0D01*
G01*
X05994Y05015D02*
G03*
X05994Y05015I-00004J0D01*
G01*
X06574Y05255D02*
G03*
X06574Y05255I-00004J0D01*
G01*
X05994Y05495D02*
G03*
X05994Y05495I-00004J0D01*
G01*
X06474Y05015D02*
G03*
X06474Y05015I-00004J0D01*
G01*
Y03545D02*
G03*
X06474Y03545I-00004J0D01*
G01*
X05994Y03065D02*
G03*
X05994Y03065I-00004J0D01*
G01*
X06574Y03305D02*
G03*
X06574Y03305I-00004J0D01*
G01*
X05994Y03545D02*
G03*
X05994Y03545I-00004J0D01*
G01*
X06474Y03065D02*
G03*
X06474Y03065I-00004J0D01*
G01*
Y041985D02*
G03*
X06474Y041985I-00004J0D01*
G01*
X05994Y037185D02*
G03*
X05994Y037185I-00004J0D01*
G01*
X06574Y039585D02*
G03*
X06574Y039585I-00004J0D01*
G01*
X05994Y041985D02*
G03*
X05994Y041985I-00004J0D01*
G01*
X06474Y037185D02*
G03*
X06474Y037185I-00004J0D01*
G01*
Y048485D02*
G03*
X06474Y048485I-00004J0D01*
G01*
X05994Y043685D02*
G03*
X05994Y043685I-00004J0D01*
G01*
X06574Y046085D02*
G03*
X06574Y046085I-00004J0D01*
G01*
X05994Y048485D02*
G03*
X05994Y048485I-00004J0D01*
G01*
X06474Y043685D02*
G03*
X06474Y043685I-00004J0D01*
G01*
Y028885D02*
G03*
X06474Y028885I-00004J0D01*
G01*
X05994Y024085D02*
G03*
X05994Y024085I-00004J0D01*
G01*
X06574Y026485D02*
G03*
X06574Y026485I-00004J0D01*
G01*
X05994Y028885D02*
G03*
X05994Y028885I-00004J0D01*
G01*
X06474Y024085D02*
G03*
X06474Y024085I-00004J0D01*
G01*
M02*
