G04*
G04 #@! TF.GenerationSoftware,Altium Limited,Altium Designer,21.3.2 (30)*
G04*
G04 Layer_Color=8421504*
%FSTAX24Y24*%
%MOIN*%
G70*
G04*
G04 #@! TF.SameCoordinates,4F95F32B-0C25-4130-9E89-9C1B30D11028*
G04*
G04*
G04 #@! TF.FilePolarity,Positive*
G04*
G01*
G75*
%ADD22R,0.0610X0.0433*%
%ADD23R,0.0600X0.0650*%
G04:AMPARAMS|DCode=24|XSize=86.6mil|YSize=59.1mil|CornerRadius=7.4mil|HoleSize=0mil|Usage=FLASHONLY|Rotation=270.000|XOffset=0mil|YOffset=0mil|HoleType=Round|Shape=RoundedRectangle|*
%AMROUNDEDRECTD24*
21,1,0.0866,0.0443,0,0,270.0*
21,1,0.0719,0.0591,0,0,270.0*
1,1,0.0148,-0.0221,-0.0359*
1,1,0.0148,-0.0221,0.0359*
1,1,0.0148,0.0221,0.0359*
1,1,0.0148,0.0221,-0.0359*
%
%ADD24ROUNDEDRECTD24*%
%ADD25R,0.0650X0.0600*%
%ADD26R,0.0335X0.0472*%
%ADD27C,0.0200*%
D22*
X055543Y0365D02*
D03*
Y0378D02*
D03*
X055543Y0497D02*
D03*
Y051D02*
D03*
X055543Y0248D02*
D03*
Y0235D02*
D03*
Y03145D02*
D03*
Y03015D02*
D03*
Y0445D02*
D03*
Y0432D02*
D03*
D23*
X052605Y0521D02*
D03*
X051305D02*
D03*
X03569D02*
D03*
X03439D02*
D03*
X04395D02*
D03*
X04265D02*
D03*
X04824D02*
D03*
X04694D02*
D03*
X039855D02*
D03*
X038555D02*
D03*
X056678Y0356D02*
D03*
X057978D02*
D03*
X05663Y04985D02*
D03*
X056618Y0236D02*
D03*
X0566Y0302D02*
D03*
Y03685D02*
D03*
X056618Y04335D02*
D03*
X03505Y0237D02*
D03*
X03375D02*
D03*
X058038Y0236D02*
D03*
X05802Y0302D02*
D03*
Y03685D02*
D03*
X058038Y04335D02*
D03*
X05805Y04985D02*
D03*
X056678Y04855D02*
D03*
X057978D02*
D03*
X056678Y0552D02*
D03*
X057978D02*
D03*
X058Y042D02*
D03*
X0567D02*
D03*
X057978Y0291D02*
D03*
X056678D02*
D03*
D24*
X05555Y051923D02*
D03*
Y053577D02*
D03*
Y033927D02*
D03*
Y032273D02*
D03*
Y038773D02*
D03*
Y040427D02*
D03*
Y025723D02*
D03*
Y027377D02*
D03*
Y045373D02*
D03*
Y047027D02*
D03*
D25*
X0338Y0248D02*
D03*
Y02622D02*
D03*
D26*
X055548Y054416D02*
D03*
X05592Y055398D02*
D03*
X055162Y0554D02*
D03*
Y042192D02*
D03*
X05592Y04219D02*
D03*
X055548Y041208D02*
D03*
X055162Y029092D02*
D03*
X05592Y02909D02*
D03*
X055548Y028108D02*
D03*
X055162Y035792D02*
D03*
X05592Y03579D02*
D03*
X055548Y034808D02*
D03*
X055162Y048892D02*
D03*
X05592Y04889D02*
D03*
X055548Y047908D02*
D03*
D27*
X057828Y023835D02*
Y02485D01*
M02*
