M48
;Layer_Color=9474304
;FILE_FORMAT=2:4
INCH,LZ
;TYPE=PLATED
T1F00S00C0.0236
T2F00S00C0.0280
T3F00S00C0.0310
T4F00S00C0.0315
T5F00S00C0.0320
T6F00S00C0.0354
T7F00S00C0.0394
T8F00S00C0.0450
T9F00S00C0.0472
T10F00S00C0.0500
T11F00S00C0.0787
%
T01
X05385Y02533
Y02633
Y02733
Y02833
Y02933
Y03033
X04385
Y02933
Y02833
Y02733
Y02633
Y02533
Y03133
Y03233
Y03333
Y03433
Y03533
Y03633
Y03733
Y03833
Y03933
Y04033
Y04133
Y04233
Y04333
X05385
Y04233
Y04133
Y04033
Y03933
Y03833
Y03733
Y03633
Y03533
Y03433
Y03333
Y03233
Y03133
T02
X0566Y0242
X0567Y0308
X055187Y029663
X0464Y0373
X055163Y036019
X056618Y0362
Y04275
X05663Y04922
T03
X0568Y02505
X0578
Y02805
X0568
X05685Y0316
X05785
Y0346
X05685
X056828Y03785
X057828
Y04085
X056828
Y0444
X057828
Y0474
X056828
Y0509
X057828
Y0539
X056828
X05331Y05322
Y0551
X0506
X048945
Y05322
X0506
X046235
X044655
Y0551
X046235
X041945
X04056
Y05322
X041945
X03785
X036395
Y0551
X03785
X033685
Y05322
T04
X036216Y02387
X038184
X0497Y04705
Y04805
Y04905
Y05005
X05315
Y04905
Y04805
Y04705
X04625
Y04805
Y04905
Y05005
X04285
Y04905
Y04805
Y04705
X03945
Y04805
Y04905
Y05005
T05
X03445Y0485
X03595
T06
X03515Y0259
X03815
T07
X036869Y031186
X039231
X041593Y044414
X034507
T08
X0647Y024085
X0657Y026485
X0647Y028885
Y03065
X0599
Y028885
Y024085
Y03545
Y037185
Y041985
Y043685
X0647
Y041985
X0657Y039585
X0647Y037185
Y03545
X0657Y03305
Y046085
X0647Y048485
Y05015
X0657Y05255
X0647Y05495
X0599
Y05015
Y048485
T09
X068Y02435
Y02635
Y028345
Y030915
Y032915
Y03491
Y03745
Y03945
Y041445
Y04395
Y04595
Y047945
Y050415
Y052415
Y05441
T10
X0339Y0284
X0359
X0404
X0424
X042Y0241
X04
T11
X070005Y022545
X0329Y0226
X070005Y056195
X03285Y0562
M30
