G04*
G04 #@! TF.GenerationSoftware,Altium Limited,Altium Designer,21.3.2 (30)*
G04*
G04 Layer_Color=255*
%FSTAX24Y24*%
%MOIN*%
G70*
G04*
G04 #@! TF.SameCoordinates,4F95F32B-0C25-4130-9E89-9C1B30D11028*
G04*
G04*
G04 #@! TF.FilePolarity,Positive*
G04*
G01*
G75*
%ADD22R,0.0610X0.0433*%
%ADD23R,0.0600X0.0650*%
G04:AMPARAMS|DCode=24|XSize=86.6mil|YSize=59.1mil|CornerRadius=7.4mil|HoleSize=0mil|Usage=FLASHONLY|Rotation=270.000|XOffset=0mil|YOffset=0mil|HoleType=Round|Shape=RoundedRectangle|*
%AMROUNDEDRECTD24*
21,1,0.0866,0.0443,0,0,270.0*
21,1,0.0719,0.0591,0,0,270.0*
1,1,0.0148,-0.0221,-0.0359*
1,1,0.0148,-0.0221,0.0359*
1,1,0.0148,0.0221,0.0359*
1,1,0.0148,0.0221,-0.0359*
%
%ADD24ROUNDEDRECTD24*%
%ADD25R,0.0650X0.0600*%
%ADD26R,0.0335X0.0472*%
%ADD54C,0.0600*%
%ADD55R,0.0591X0.0591*%
%ADD56C,0.0591*%
%ADD57R,0.0984X0.0472*%
%ADD58O,0.0984X0.0472*%
%ADD59C,0.0630*%
%ADD60R,0.0630X0.0630*%
%ADD61C,0.0750*%
%ADD62O,0.0700X0.1000*%
%ADD63R,0.0700X0.1000*%
%ADD64O,0.1000X0.1200*%
%ADD65R,0.0709X0.0709*%
%ADD66C,0.0669*%
%ADD67C,0.1100*%
%ADD68R,0.0600X0.0900*%
%ADD69O,0.0600X0.0900*%
%ADD70R,0.0984X0.0787*%
%ADD71C,0.1200*%
D22*
X055543Y0365D02*
D03*
Y0378D02*
D03*
X055543Y0497D02*
D03*
Y051D02*
D03*
X055543Y0248D02*
D03*
Y0235D02*
D03*
Y03145D02*
D03*
Y03015D02*
D03*
Y0445D02*
D03*
Y0432D02*
D03*
D23*
X052605Y0521D02*
D03*
X051305D02*
D03*
X03569D02*
D03*
X03439D02*
D03*
X04395D02*
D03*
X04265D02*
D03*
X04824D02*
D03*
X04694D02*
D03*
X039855D02*
D03*
X038555D02*
D03*
X056678Y0356D02*
D03*
X057978D02*
D03*
X05663Y04985D02*
D03*
X056618Y0236D02*
D03*
X0566Y0302D02*
D03*
Y03685D02*
D03*
X056618Y04335D02*
D03*
X03505Y0237D02*
D03*
X03375D02*
D03*
X058038Y0236D02*
D03*
X05802Y0302D02*
D03*
Y03685D02*
D03*
X058038Y04335D02*
D03*
X05805Y04985D02*
D03*
X056678Y04855D02*
D03*
X057978D02*
D03*
X056678Y0552D02*
D03*
X057978D02*
D03*
X058Y042D02*
D03*
X0567D02*
D03*
X057978Y0291D02*
D03*
X056678D02*
D03*
D24*
X05555Y051923D02*
D03*
Y053577D02*
D03*
Y033927D02*
D03*
Y032273D02*
D03*
Y038773D02*
D03*
Y040427D02*
D03*
Y025723D02*
D03*
Y027377D02*
D03*
Y045373D02*
D03*
Y047027D02*
D03*
D25*
X0338Y0248D02*
D03*
Y02622D02*
D03*
D26*
X055548Y054416D02*
D03*
X05592Y055398D02*
D03*
X055162Y0554D02*
D03*
Y042192D02*
D03*
X05592Y04219D02*
D03*
X055548Y041208D02*
D03*
X055162Y029092D02*
D03*
X05592Y02909D02*
D03*
X055548Y028108D02*
D03*
X055162Y035792D02*
D03*
X05592Y03579D02*
D03*
X055548Y034808D02*
D03*
X055162Y048892D02*
D03*
X05592Y04889D02*
D03*
X055548Y047908D02*
D03*
D54*
X070005Y022545D02*
D03*
X03285Y0562D02*
D03*
X070005Y056195D02*
D03*
X0329Y0226D02*
D03*
D55*
X036869Y031186D02*
D03*
D56*
X039231D02*
D03*
X034507Y044414D02*
D03*
X041593D02*
D03*
D57*
X04385Y04333D02*
D03*
D58*
Y04233D02*
D03*
Y04133D02*
D03*
Y04033D02*
D03*
Y03933D02*
D03*
Y03833D02*
D03*
Y03733D02*
D03*
Y03633D02*
D03*
Y03533D02*
D03*
Y03433D02*
D03*
Y03333D02*
D03*
Y03233D02*
D03*
Y03133D02*
D03*
Y03033D02*
D03*
Y02933D02*
D03*
Y02833D02*
D03*
Y02733D02*
D03*
Y02633D02*
D03*
Y02533D02*
D03*
X05385Y04333D02*
D03*
Y04233D02*
D03*
Y04133D02*
D03*
Y04033D02*
D03*
Y03933D02*
D03*
Y03833D02*
D03*
Y03733D02*
D03*
Y03633D02*
D03*
Y03533D02*
D03*
Y03433D02*
D03*
Y03333D02*
D03*
Y03233D02*
D03*
Y03133D02*
D03*
Y03033D02*
D03*
Y02933D02*
D03*
Y02833D02*
D03*
Y02733D02*
D03*
Y02633D02*
D03*
Y02533D02*
D03*
D59*
X04625Y04905D02*
D03*
Y04805D02*
D03*
Y05005D02*
D03*
X0497Y04905D02*
D03*
Y04805D02*
D03*
Y05005D02*
D03*
X03945Y04905D02*
D03*
Y04805D02*
D03*
Y05005D02*
D03*
X05315Y04905D02*
D03*
Y04805D02*
D03*
Y05005D02*
D03*
X04285Y04905D02*
D03*
Y04805D02*
D03*
Y05005D02*
D03*
D60*
X04625Y04705D02*
D03*
X0497D02*
D03*
X03945D02*
D03*
X05315D02*
D03*
X04285D02*
D03*
D61*
X048945Y05322D02*
D03*
X046235Y0551D02*
D03*
Y05322D02*
D03*
X048945Y0551D02*
D03*
X044655Y05322D02*
D03*
X041945Y0551D02*
D03*
Y05322D02*
D03*
X044655Y0551D02*
D03*
X05331Y05322D02*
D03*
X0506Y0551D02*
D03*
Y05322D02*
D03*
X05331Y0551D02*
D03*
X036395Y05322D02*
D03*
X033685Y0551D02*
D03*
Y05322D02*
D03*
X036395Y0551D02*
D03*
X04056Y05322D02*
D03*
X03785Y0551D02*
D03*
Y05322D02*
D03*
X04056Y0551D02*
D03*
D62*
X03445Y0485D02*
D03*
D63*
X03595D02*
D03*
D64*
X0339Y0284D02*
D03*
X0424D02*
D03*
X0404D02*
D03*
X0359D02*
D03*
D65*
X03515Y0259D02*
D03*
X03815D02*
D03*
D66*
X038184Y02387D02*
D03*
X036216D02*
D03*
D67*
X042Y0241D02*
D03*
X04D02*
D03*
D68*
X056828Y0509D02*
D03*
Y0444D02*
D03*
X0568Y02505D02*
D03*
X056828Y03785D02*
D03*
X05685Y0316D02*
D03*
D69*
X057828Y0509D02*
D03*
Y0539D02*
D03*
X056828D02*
D03*
X057828Y0444D02*
D03*
Y0474D02*
D03*
X056828D02*
D03*
X0568Y02805D02*
D03*
X0578D02*
D03*
Y02505D02*
D03*
X056828Y04085D02*
D03*
X057828D02*
D03*
Y03785D02*
D03*
X05685Y0346D02*
D03*
X05785D02*
D03*
Y0316D02*
D03*
D70*
X068Y03491D02*
D03*
Y030915D02*
D03*
Y032915D02*
D03*
Y05441D02*
D03*
Y050415D02*
D03*
Y052415D02*
D03*
Y047945D02*
D03*
Y04395D02*
D03*
Y04595D02*
D03*
Y041445D02*
D03*
Y03745D02*
D03*
Y03945D02*
D03*
Y028345D02*
D03*
Y02435D02*
D03*
Y02635D02*
D03*
D71*
X0647Y05495D02*
D03*
X0599Y05015D02*
D03*
X0657Y05255D02*
D03*
X0599Y05495D02*
D03*
X0647Y05015D02*
D03*
Y03545D02*
D03*
X0599Y03065D02*
D03*
X0657Y03305D02*
D03*
X0599Y03545D02*
D03*
X0647Y03065D02*
D03*
Y041985D02*
D03*
X0599Y037185D02*
D03*
X0657Y039585D02*
D03*
X0599Y041985D02*
D03*
X0647Y037185D02*
D03*
Y048485D02*
D03*
X0599Y043685D02*
D03*
X0657Y046085D02*
D03*
X0599Y048485D02*
D03*
X0647Y043685D02*
D03*
Y028885D02*
D03*
X0599Y024085D02*
D03*
X0657Y026485D02*
D03*
X0599Y028885D02*
D03*
X0647Y024085D02*
D03*
M02*
