G04*
G04 #@! TF.GenerationSoftware,Altium Limited,Altium Designer,21.3.2 (30)*
G04*
G04 Layer_Physical_Order=2*
G04 Layer_Color=16711680*
%FSTAX24Y24*%
%MOIN*%
G70*
G04*
G04 #@! TF.SameCoordinates,4F95F32B-0C25-4130-9E89-9C1B30D11028*
G04*
G04*
G04 #@! TF.FilePolarity,Positive*
G04*
G01*
G75*
%ADD27C,0.0200*%
%ADD52C,0.0300*%
%ADD53C,0.0400*%
%ADD54C,0.0600*%
%ADD55R,0.0591X0.0591*%
%ADD56C,0.0591*%
%ADD57R,0.0984X0.0472*%
%ADD58O,0.0984X0.0472*%
%ADD59C,0.0630*%
%ADD60R,0.0630X0.0630*%
%ADD61C,0.0750*%
%ADD62O,0.0700X0.1000*%
%ADD63R,0.0700X0.1000*%
%ADD64O,0.1000X0.1200*%
%ADD65R,0.0709X0.0709*%
%ADD67C,0.1100*%
%ADD68R,0.0600X0.0900*%
%ADD69O,0.0600X0.0900*%
%ADD70R,0.0984X0.0787*%
%ADD71C,0.1200*%
%ADD72C,0.0350*%
%ADD73C,0.0787*%
G36*
X07055Y022D02*
X0323D01*
Y05675D01*
X07055D01*
Y022D01*
D02*
G37*
%LPC*%
G36*
X032915Y056694D02*
X032785D01*
X032659Y05666D01*
X032547Y056595D01*
X032455Y056503D01*
X03239Y056391D01*
X032356Y056265D01*
Y056135D01*
X03239Y056009D01*
X032455Y055897D01*
X032547Y055805D01*
X032659Y05574D01*
X032785Y055706D01*
X032915D01*
X033041Y05574D01*
X033153Y055805D01*
X033245Y055897D01*
X03331Y056009D01*
X033344Y056135D01*
Y056265D01*
X03331Y056391D01*
X033245Y056503D01*
X033153Y056595D01*
X033041Y05666D01*
X032915Y056694D01*
D02*
G37*
G36*
X07007Y056688D02*
X06994D01*
X069815Y056655D01*
X069702Y05659D01*
X06961Y056498D01*
X069545Y056385D01*
X069511Y05626D01*
Y05613D01*
X069545Y056004D01*
X06961Y055892D01*
X069702Y0558D01*
X069815Y055735D01*
X06994Y055701D01*
X07007D01*
X070196Y055735D01*
X070308Y0558D01*
X0704Y055892D01*
X070465Y056004D01*
X070499Y05613D01*
Y05626D01*
X070465Y056385D01*
X0704Y056498D01*
X070308Y05659D01*
X070196Y056655D01*
X07007Y056688D01*
D02*
G37*
G36*
X049008Y055575D02*
X048995D01*
Y05515D01*
X04942D01*
Y055163D01*
X049388Y055283D01*
X049325Y055392D01*
X049237Y05548D01*
X049128Y055543D01*
X049008Y055575D01*
D02*
G37*
G36*
X053373D02*
X05336D01*
Y05515D01*
X053785D01*
Y055163D01*
X053753Y055283D01*
X05369Y055392D01*
X053602Y05548D01*
X053493Y055543D01*
X053373Y055575D01*
D02*
G37*
G36*
X050663D02*
X05065D01*
Y05515D01*
X051075D01*
Y055163D01*
X051043Y055283D01*
X05098Y055392D01*
X050892Y05548D01*
X050783Y055543D01*
X050663Y055575D01*
D02*
G37*
G36*
X044718D02*
X044705D01*
Y05515D01*
X04513D01*
Y055163D01*
X045098Y055283D01*
X045035Y055392D01*
X044947Y05548D01*
X044838Y055543D01*
X044718Y055575D01*
D02*
G37*
G36*
X042008D02*
X041995D01*
Y05515D01*
X04242D01*
Y055163D01*
X042388Y055283D01*
X042325Y055392D01*
X042237Y05548D01*
X042128Y055543D01*
X042008Y055575D01*
D02*
G37*
G36*
X040623D02*
X04061D01*
Y05515D01*
X041035D01*
Y055163D01*
X041003Y055283D01*
X04094Y055392D01*
X040852Y05548D01*
X040743Y055543D01*
X040623Y055575D01*
D02*
G37*
G36*
X037913D02*
X0379D01*
Y05515D01*
X038325D01*
Y055163D01*
X038293Y055283D01*
X03823Y055392D01*
X038142Y05548D01*
X038033Y055543D01*
X037913Y055575D01*
D02*
G37*
G36*
X036458D02*
X036445D01*
Y05515D01*
X03687D01*
Y055163D01*
X036838Y055283D01*
X036775Y055392D01*
X036687Y05548D01*
X036578Y055543D01*
X036458Y055575D01*
D02*
G37*
G36*
X033748D02*
X033735D01*
Y05515D01*
X03416D01*
Y055163D01*
X034128Y055283D01*
X034065Y055392D01*
X033977Y05548D01*
X033868Y055543D01*
X033748Y055575D01*
D02*
G37*
G36*
X046298D02*
X046285D01*
Y05515D01*
X04671D01*
Y055163D01*
X046678Y055283D01*
X046615Y055392D01*
X046527Y05548D01*
X046418Y055543D01*
X046298Y055575D01*
D02*
G37*
G36*
X048895D02*
X048882D01*
X048762Y055543D01*
X048653Y05548D01*
X048565Y055392D01*
X048502Y055283D01*
X04847Y055163D01*
Y05515D01*
X048895D01*
Y055575D01*
D02*
G37*
G36*
X05326D02*
X053247D01*
X053127Y055543D01*
X053018Y05548D01*
X05293Y055392D01*
X052867Y055283D01*
X052835Y055163D01*
Y05515D01*
X05326D01*
Y055575D01*
D02*
G37*
G36*
X05055D02*
X050537D01*
X050417Y055543D01*
X050308Y05548D01*
X05022Y055392D01*
X050157Y055283D01*
X050125Y055163D01*
Y05515D01*
X05055D01*
Y055575D01*
D02*
G37*
G36*
X044605D02*
X044592D01*
X044472Y055543D01*
X044363Y05548D01*
X044275Y055392D01*
X044212Y055283D01*
X04418Y055163D01*
Y05515D01*
X044605D01*
Y055575D01*
D02*
G37*
G36*
X041895D02*
X041882D01*
X041762Y055543D01*
X041653Y05548D01*
X041565Y055392D01*
X041502Y055283D01*
X04147Y055163D01*
Y05515D01*
X041895D01*
Y055575D01*
D02*
G37*
G36*
X04051D02*
X040497D01*
X040377Y055543D01*
X040268Y05548D01*
X04018Y055392D01*
X040117Y055283D01*
X040085Y055163D01*
Y05515D01*
X04051D01*
Y055575D01*
D02*
G37*
G36*
X0378D02*
X037787D01*
X037667Y055543D01*
X037558Y05548D01*
X03747Y055392D01*
X037407Y055283D01*
X037375Y055163D01*
Y05515D01*
X0378D01*
Y055575D01*
D02*
G37*
G36*
X036345D02*
X036332D01*
X036212Y055543D01*
X036103Y05548D01*
X036015Y055392D01*
X035952Y055283D01*
X03592Y055163D01*
Y05515D01*
X036345D01*
Y055575D01*
D02*
G37*
G36*
X033635D02*
X033622D01*
X033502Y055543D01*
X033393Y05548D01*
X033305Y055392D01*
X033242Y055283D01*
X03321Y055163D01*
Y05515D01*
X033635D01*
Y055575D01*
D02*
G37*
G36*
X046185D02*
X046172D01*
X046052Y055543D01*
X045943Y05548D01*
X045855Y055392D01*
X045792Y055283D01*
X04576Y055163D01*
Y05515D01*
X046185D01*
Y055575D01*
D02*
G37*
G36*
X053785Y05505D02*
X05336D01*
Y054625D01*
X053373D01*
X053493Y054657D01*
X053602Y05472D01*
X05369Y054808D01*
X053753Y054917D01*
X053785Y055037D01*
Y05505D01*
D02*
G37*
G36*
X05326D02*
X052835D01*
Y055037D01*
X052867Y054917D01*
X05293Y054808D01*
X053018Y05472D01*
X053127Y054657D01*
X053247Y054625D01*
X05326D01*
Y05505D01*
D02*
G37*
G36*
X051075D02*
X05065D01*
Y054625D01*
X050663D01*
X050783Y054657D01*
X050892Y05472D01*
X05098Y054808D01*
X051043Y054917D01*
X051075Y055037D01*
Y05505D01*
D02*
G37*
G36*
X05055D02*
X050125D01*
Y055037D01*
X050157Y054917D01*
X05022Y054808D01*
X050308Y05472D01*
X050417Y054657D01*
X050537Y054625D01*
X05055D01*
Y05505D01*
D02*
G37*
G36*
X04942D02*
X048995D01*
Y054625D01*
X049008D01*
X049128Y054657D01*
X049237Y05472D01*
X049325Y054808D01*
X049388Y054917D01*
X04942Y055037D01*
Y05505D01*
D02*
G37*
G36*
X048895D02*
X04847D01*
Y055037D01*
X048502Y054917D01*
X048565Y054808D01*
X048653Y05472D01*
X048762Y054657D01*
X048882Y054625D01*
X048895D01*
Y05505D01*
D02*
G37*
G36*
X04671D02*
X046285D01*
Y054625D01*
X046298D01*
X046418Y054657D01*
X046527Y05472D01*
X046615Y054808D01*
X046678Y054917D01*
X04671Y055037D01*
Y05505D01*
D02*
G37*
G36*
X046185D02*
X04576D01*
Y055037D01*
X045792Y054917D01*
X045855Y054808D01*
X045943Y05472D01*
X046052Y054657D01*
X046172Y054625D01*
X046185D01*
Y05505D01*
D02*
G37*
G36*
X04513D02*
X044705D01*
Y054625D01*
X044718D01*
X044838Y054657D01*
X044947Y05472D01*
X045035Y054808D01*
X045098Y054917D01*
X04513Y055037D01*
Y05505D01*
D02*
G37*
G36*
X044605D02*
X04418D01*
Y055037D01*
X044212Y054917D01*
X044275Y054808D01*
X044363Y05472D01*
X044472Y054657D01*
X044592Y054625D01*
X044605D01*
Y05505D01*
D02*
G37*
G36*
X04242D02*
X041995D01*
Y054625D01*
X042008D01*
X042128Y054657D01*
X042237Y05472D01*
X042325Y054808D01*
X042388Y054917D01*
X04242Y055037D01*
Y05505D01*
D02*
G37*
G36*
X041895D02*
X04147D01*
Y055037D01*
X041502Y054917D01*
X041565Y054808D01*
X041653Y05472D01*
X041762Y054657D01*
X041882Y054625D01*
X041895D01*
Y05505D01*
D02*
G37*
G36*
X041035D02*
X04061D01*
Y054625D01*
X040623D01*
X040743Y054657D01*
X040852Y05472D01*
X04094Y054808D01*
X041003Y054917D01*
X041035Y055037D01*
Y05505D01*
D02*
G37*
G36*
X04051D02*
X040085D01*
Y055037D01*
X040117Y054917D01*
X04018Y054808D01*
X040268Y05472D01*
X040377Y054657D01*
X040497Y054625D01*
X04051D01*
Y05505D01*
D02*
G37*
G36*
X038325D02*
X0379D01*
Y054625D01*
X037913D01*
X038033Y054657D01*
X038142Y05472D01*
X03823Y054808D01*
X038293Y054917D01*
X038325Y055037D01*
Y05505D01*
D02*
G37*
G36*
X0378D02*
X037375D01*
Y055037D01*
X037407Y054917D01*
X03747Y054808D01*
X037558Y05472D01*
X037667Y054657D01*
X037787Y054625D01*
X0378D01*
Y05505D01*
D02*
G37*
G36*
X03687D02*
X036445D01*
Y054625D01*
X036458D01*
X036578Y054657D01*
X036687Y05472D01*
X036775Y054808D01*
X036838Y054917D01*
X03687Y055037D01*
Y05505D01*
D02*
G37*
G36*
X036345D02*
X03592D01*
Y055037D01*
X035952Y054917D01*
X036015Y054808D01*
X036103Y05472D01*
X036212Y054657D01*
X036332Y054625D01*
X036345D01*
Y05505D01*
D02*
G37*
G36*
X03416D02*
X033735D01*
Y054625D01*
X033748D01*
X033868Y054657D01*
X033977Y05472D01*
X034065Y054808D01*
X034128Y054917D01*
X03416Y055037D01*
Y05505D01*
D02*
G37*
G36*
X033635D02*
X03321D01*
Y055037D01*
X033242Y054917D01*
X033305Y054808D01*
X033393Y05472D01*
X033502Y054657D01*
X033622Y054625D01*
X033635D01*
Y05505D01*
D02*
G37*
G36*
X064769Y05565D02*
X064631D01*
X064496Y055623D01*
X064368Y05557D01*
X064254Y055494D01*
X064156Y055396D01*
X06408Y055282D01*
X064027Y055154D01*
X064Y055019D01*
Y054881D01*
X064027Y054746D01*
X06408Y054618D01*
X064156Y054504D01*
X064254Y054406D01*
X064263Y0544D01*
X064248Y054353D01*
X060925D01*
X060561Y054717D01*
X060573Y054746D01*
X0606Y054881D01*
Y055019D01*
X060573Y055154D01*
X06052Y055282D01*
X060444Y055396D01*
X060346Y055494D01*
X060232Y05557D01*
X060104Y055623D01*
X059969Y05565D01*
X059831D01*
X059696Y055623D01*
X059568Y05557D01*
X059454Y055494D01*
X059356Y055396D01*
X05928Y055282D01*
X059227Y055154D01*
X0592Y055019D01*
Y054881D01*
X059227Y054746D01*
X05928Y054618D01*
X059356Y054504D01*
X059454Y054406D01*
X059568Y05433D01*
X059696Y054277D01*
X059831Y05425D01*
X059969D01*
X060104Y054277D01*
X060133Y054289D01*
X060586Y053836D01*
X060649Y053788D01*
X060722Y053758D01*
X0608Y053747D01*
X065838D01*
X065916Y053758D01*
X065989Y053788D01*
X066052Y053836D01*
X066323Y054107D01*
X067408D01*
Y053916D01*
X068592D01*
Y054904D01*
X067408D01*
Y054713D01*
X066198D01*
X066119Y054702D01*
X066046Y054672D01*
X065984Y054624D01*
X065712Y054353D01*
X065152D01*
X065137Y0544D01*
X065146Y054406D01*
X065244Y054504D01*
X06532Y054618D01*
X065373Y054746D01*
X0654Y054881D01*
Y055019D01*
X065373Y055154D01*
X06532Y055282D01*
X065244Y055396D01*
X065146Y055494D01*
X065032Y05557D01*
X064904Y055623D01*
X064769Y05565D01*
D02*
G37*
G36*
X057828Y054453D02*
X057724Y05444D01*
X057626Y054399D01*
X057543Y054335D01*
X057479Y054252D01*
X057438Y054154D01*
X057425Y05405D01*
Y05375D01*
X057438Y053646D01*
X057479Y053548D01*
X057543Y053465D01*
X057626Y053401D01*
X057724Y05336D01*
X057828Y053347D01*
X057932Y05336D01*
X05803Y053401D01*
X058113Y053465D01*
X058177Y053548D01*
X058218Y053646D01*
X058232Y05375D01*
Y05405D01*
X058218Y054154D01*
X058177Y054252D01*
X058113Y054335D01*
X05803Y054399D01*
X057932Y05444D01*
X057828Y054453D01*
D02*
G37*
G36*
X053373Y053695D02*
X053247D01*
X053127Y053663D01*
X053018Y0536D01*
X05293Y053512D01*
X052867Y053403D01*
X052835Y053283D01*
Y053157D01*
X052867Y053037D01*
X05293Y052928D01*
X053018Y05284D01*
X053127Y052777D01*
X053247Y052745D01*
X053373D01*
X053493Y052777D01*
X053602Y05284D01*
X05369Y052928D01*
X053753Y053037D01*
X053785Y053157D01*
Y053283D01*
X053753Y053403D01*
X05369Y053512D01*
X053602Y0536D01*
X053493Y053663D01*
X053373Y053695D01*
D02*
G37*
G36*
X046298D02*
X046172D01*
X046052Y053663D01*
X045943Y0536D01*
X045855Y053512D01*
X045792Y053403D01*
X04576Y053283D01*
Y053157D01*
X045792Y053037D01*
X045855Y052928D01*
X045943Y05284D01*
X046052Y052777D01*
X046172Y052745D01*
X046298D01*
X046418Y052777D01*
X046527Y05284D01*
X046615Y052928D01*
X046678Y053037D01*
X04671Y053157D01*
Y053283D01*
X046678Y053403D01*
X046615Y053512D01*
X046527Y0536D01*
X046418Y053663D01*
X046298Y053695D01*
D02*
G37*
G36*
X042008D02*
X041882D01*
X041762Y053663D01*
X041653Y0536D01*
X041565Y053512D01*
X041502Y053403D01*
X04147Y053283D01*
Y053157D01*
X041502Y053037D01*
X041565Y052928D01*
X041653Y05284D01*
X041762Y052777D01*
X041882Y052745D01*
X042008D01*
X042128Y052777D01*
X042237Y05284D01*
X042325Y052928D01*
X042388Y053037D01*
X04242Y053157D01*
Y053283D01*
X042388Y053403D01*
X042325Y053512D01*
X042237Y0536D01*
X042128Y053663D01*
X042008Y053695D01*
D02*
G37*
G36*
X037913D02*
X037787D01*
X037667Y053663D01*
X037558Y0536D01*
X03747Y053512D01*
X037407Y053403D01*
X037375Y053283D01*
Y053157D01*
X037407Y053037D01*
X03747Y052928D01*
X037558Y05284D01*
X037667Y052777D01*
X037787Y052745D01*
X037913D01*
X038033Y052777D01*
X038142Y05284D01*
X03823Y052928D01*
X038293Y053037D01*
X038325Y053157D01*
Y053283D01*
X038293Y053403D01*
X03823Y053512D01*
X038142Y0536D01*
X038033Y053663D01*
X037913Y053695D01*
D02*
G37*
G36*
X033748D02*
X033622D01*
X033502Y053663D01*
X033393Y0536D01*
X033305Y053512D01*
X033242Y053403D01*
X03321Y053283D01*
Y053157D01*
X033242Y053037D01*
X033305Y052928D01*
X033393Y05284D01*
X033502Y052777D01*
X033622Y052745D01*
X033748D01*
X033868Y052777D01*
X033977Y05284D01*
X034065Y052928D01*
X034128Y053037D01*
X03416Y053157D01*
Y053283D01*
X034128Y053403D01*
X034065Y053512D01*
X033977Y0536D01*
X033868Y053663D01*
X033748Y053695D01*
D02*
G37*
G36*
X049008D02*
X048882D01*
X048762Y053663D01*
X048653Y0536D01*
X048565Y053512D01*
X048502Y053403D01*
X04847Y053283D01*
Y053157D01*
X048502Y053037D01*
X048565Y052928D01*
X048642Y052851D01*
Y051946D01*
X048592Y051943D01*
X048592Y051944D01*
X048562Y052017D01*
X048514Y05208D01*
X048514Y05208D01*
X04828Y052314D01*
X048217Y052362D01*
X048144Y052392D01*
X048066Y052403D01*
X045015D01*
X044958Y05246D01*
Y052851D01*
X045035Y052928D01*
X045098Y053037D01*
X04513Y053157D01*
Y053283D01*
X045098Y053403D01*
X045035Y053512D01*
X044947Y0536D01*
X044838Y053663D01*
X044718Y053695D01*
X044592D01*
X044472Y053663D01*
X044363Y0536D01*
X044275Y053512D01*
X044212Y053403D01*
X04418Y053283D01*
Y053157D01*
X044212Y053037D01*
X044275Y052928D01*
X044352Y052851D01*
Y052334D01*
X044363Y052256D01*
X044393Y052183D01*
X044441Y05212D01*
X044675Y051886D01*
X044675Y051886D01*
X044738Y051838D01*
X044811Y051808D01*
X04485Y051803D01*
X044847Y051753D01*
X04092D01*
X040863Y05181D01*
Y052851D01*
X04094Y052928D01*
X041003Y053037D01*
X041035Y053157D01*
Y053283D01*
X041003Y053403D01*
X04094Y053512D01*
X040852Y0536D01*
X040743Y053663D01*
X040623Y053695D01*
X040497D01*
X040377Y053663D01*
X040268Y0536D01*
X04018Y053512D01*
X040117Y053403D01*
X040085Y053283D01*
Y053157D01*
X040117Y053037D01*
X04018Y052928D01*
X040257Y052851D01*
Y051684D01*
X040268Y051606D01*
X040298Y051533D01*
X040346Y05147D01*
X04058Y051236D01*
X04058Y051236D01*
X040643Y051188D01*
X040716Y051158D01*
X040794Y051147D01*
X04729D01*
X047347Y05109D01*
Y050558D01*
X047297Y050555D01*
X047292Y050594D01*
X047262Y050667D01*
X047214Y05073D01*
X047214Y05073D01*
X04698Y050964D01*
X046917Y051012D01*
X046844Y051042D01*
X046766Y051053D01*
X036755D01*
X036698Y05111D01*
Y052851D01*
X036775Y052928D01*
X036838Y053037D01*
X03687Y053157D01*
Y053283D01*
X036838Y053403D01*
X036775Y053512D01*
X036687Y0536D01*
X036578Y053663D01*
X036458Y053695D01*
X036332D01*
X036212Y053663D01*
X036103Y0536D01*
X036015Y053512D01*
X035952Y053403D01*
X03592Y053283D01*
Y053157D01*
X035952Y053037D01*
X036015Y052928D01*
X036092Y052851D01*
Y050984D01*
X036103Y050906D01*
X036133Y050833D01*
X036181Y05077D01*
X036415Y050536D01*
X036415Y050536D01*
X036478Y050488D01*
X036551Y050458D01*
X036629Y050447D01*
X039208D01*
X039222Y050397D01*
X039195Y050382D01*
X039118Y050305D01*
X039063Y05021D01*
X039035Y050105D01*
Y049995D01*
X039063Y04989D01*
X039118Y049795D01*
X039195Y049718D01*
X03929Y049663D01*
X039395Y049635D01*
X039505D01*
X03961Y049663D01*
X039705Y049718D01*
X039782Y049795D01*
X039837Y04989D01*
X039865Y049995D01*
Y050105D01*
X039837Y05021D01*
X039782Y050305D01*
X039705Y050382D01*
X039678Y050397D01*
X039692Y050447D01*
X042608D01*
X042622Y050397D01*
X042595Y050382D01*
X042518Y050305D01*
X042463Y05021D01*
X042435Y050105D01*
Y049995D01*
X042463Y04989D01*
X042518Y049795D01*
X042595Y049718D01*
X04269Y049663D01*
X042795Y049635D01*
X042905D01*
X04301Y049663D01*
X043105Y049718D01*
X043182Y049795D01*
X043237Y04989D01*
X043265Y049995D01*
Y050105D01*
X043237Y05021D01*
X043182Y050305D01*
X043105Y050382D01*
X043078Y050397D01*
X043092Y050447D01*
X046008D01*
X046022Y050397D01*
X045995Y050382D01*
X045918Y050305D01*
X045863Y05021D01*
X045835Y050105D01*
Y049995D01*
X045863Y04989D01*
X045918Y049795D01*
X045995Y049718D01*
X04609Y049663D01*
X046195Y049635D01*
X046305D01*
X04641Y049663D01*
X046505Y049718D01*
X046582Y049795D01*
X046637Y04989D01*
X046647Y04993D01*
X046697Y049923D01*
Y049177D01*
X046647Y04917D01*
X046637Y04921D01*
X046582Y049305D01*
X046505Y049382D01*
X04641Y049437D01*
X046305Y049465D01*
X0463D01*
Y04905D01*
Y048635D01*
X046305D01*
X04641Y048663D01*
X046505Y048718D01*
X046582Y048795D01*
X046637Y04889D01*
X046647Y04893D01*
X046697Y048923D01*
Y048177D01*
X046647Y04817D01*
X046637Y04821D01*
X046582Y048305D01*
X046505Y048382D01*
X04641Y048437D01*
X046305Y048465D01*
X046195D01*
X04609Y048437D01*
X045995Y048382D01*
X045918Y048305D01*
X0456D01*
X045502Y048285D01*
X04542Y04823D01*
X045129Y04794D01*
X045074Y047857D01*
X045055Y04776D01*
Y047751D01*
X045005Y04775D01*
X044985Y047848D01*
X04493Y04793D01*
X04473Y04813D01*
X04463Y04823D01*
X044548Y048285D01*
X04445Y048305D01*
X043182D01*
X043105Y048382D01*
X04301Y048437D01*
X042905Y048465D01*
X042795D01*
X04269Y048437D01*
X042595Y048382D01*
X042518Y048305D01*
X042463Y04821D01*
X042435Y048105D01*
Y047995D01*
X042463Y04789D01*
X042518Y047795D01*
X042595Y047718D01*
X04269Y047663D01*
X042795Y047635D01*
X042905D01*
X04301Y047663D01*
X043105Y047718D01*
X043182Y047795D01*
X044344D01*
X044495Y047644D01*
Y039611D01*
X044469Y039585D01*
X044326D01*
X044275Y039624D01*
X044194Y039658D01*
X044106Y039669D01*
X043594D01*
X043506Y039658D01*
X043425Y039624D01*
X043354Y03957D01*
X0433Y0395D01*
X043267Y039418D01*
X043255Y03933D01*
X043267Y039242D01*
X0433Y039161D01*
X043354Y03909D01*
X043425Y039036D01*
X043506Y039003D01*
X043594Y038991D01*
X044106D01*
X044194Y039003D01*
X044275Y039036D01*
X044326Y039075D01*
X044574D01*
X044672Y039095D01*
X044755Y03915D01*
X04493Y039326D01*
X044985Y039408D01*
X045005Y039506D01*
X045055Y039505D01*
Y038746D01*
X044894Y038585D01*
X044326D01*
X044275Y038624D01*
X044194Y038658D01*
X044106Y038669D01*
X043594D01*
X043506Y038658D01*
X043425Y038624D01*
X043354Y03857D01*
X0433Y0385D01*
X043267Y038418D01*
X043255Y03833D01*
X043267Y038242D01*
X0433Y038161D01*
X043354Y03809D01*
X043425Y038036D01*
X043506Y038003D01*
X043594Y037991D01*
X044106D01*
X044194Y038003D01*
X044275Y038036D01*
X044326Y038075D01*
X044999D01*
X045097Y038095D01*
X04518Y03815D01*
X04549Y03846D01*
X045545Y038543D01*
X045564Y03864D01*
Y047654D01*
X045706Y047795D01*
X045918D01*
X045995Y047718D01*
X04609Y047663D01*
X046195Y047635D01*
X046305D01*
X04641Y047663D01*
X046505Y047718D01*
X046582Y047795D01*
X046637Y04789D01*
X046647Y04793D01*
X046697Y047923D01*
Y047502D01*
X046665Y047465D01*
X046647Y047465D01*
X045835D01*
Y046635D01*
X046647D01*
X046665Y046635D01*
X046697Y046598D01*
Y037435D01*
X046647Y037421D01*
X04662Y037469D01*
X046569Y03752D01*
X046506Y037556D01*
X046436Y037575D01*
X046364D01*
X046294Y037556D01*
X046231Y03752D01*
X04623Y037519D01*
X044385D01*
X044346Y03757D01*
X044275Y037624D01*
X044194Y037658D01*
X044106Y037669D01*
X043594D01*
X043506Y037658D01*
X043425Y037624D01*
X043354Y03757D01*
X0433Y0375D01*
X043267Y037418D01*
X043255Y03733D01*
X043267Y037242D01*
X0433Y037161D01*
X043354Y03709D01*
X043425Y037036D01*
X043506Y037003D01*
X043594Y036991D01*
X044106D01*
X044194Y037003D01*
X044275Y037036D01*
X044346Y03709D01*
X044362Y037111D01*
X0462D01*
X046231Y03708D01*
X046294Y037044D01*
X046364Y037025D01*
X046436D01*
X046506Y037044D01*
X046569Y03708D01*
X04662Y037131D01*
X046647Y037179D01*
X046697Y037165D01*
Y03135D01*
X046708Y031272D01*
X046738Y031199D01*
X046786Y031136D01*
X049806Y028116D01*
X049869Y028068D01*
X049942Y028038D01*
X05002Y028028D01*
X053446D01*
X053506Y028003D01*
X053594Y027991D01*
X054106D01*
X054194Y028003D01*
X054275Y028036D01*
X054346Y02809D01*
X0544Y028161D01*
X054433Y028242D01*
X054445Y02833D01*
X054433Y028418D01*
X0544Y0285D01*
X054346Y02857D01*
X054275Y028624D01*
X054194Y028658D01*
X054106Y028669D01*
X053594D01*
X053506Y028658D01*
X053446Y028633D01*
X050145D01*
X047303Y031475D01*
Y031822D01*
X047353Y031825D01*
X047358Y031786D01*
X047388Y031713D01*
X047436Y03165D01*
X049736Y02935D01*
X049736Y02935D01*
X04997Y029116D01*
X04997Y029116D01*
X050033Y029068D01*
X050106Y029038D01*
X050184Y029028D01*
X053446D01*
X053506Y029003D01*
X053594Y028991D01*
X054106D01*
X054194Y029003D01*
X054275Y029036D01*
X054346Y02909D01*
X0544Y029161D01*
X054433Y029242D01*
X054445Y02933D01*
X054433Y029418D01*
X0544Y0295D01*
X054346Y02957D01*
X054275Y029624D01*
X054194Y029658D01*
X054106Y029669D01*
X053594D01*
X053506Y029658D01*
X053446Y029633D01*
X05031D01*
X050164Y029778D01*
X050164Y029778D01*
X047953Y03199D01*
Y032457D01*
X048003Y032461D01*
X048008Y032422D01*
X048038Y032349D01*
X048086Y032286D01*
X050256Y030116D01*
X050319Y030068D01*
X050392Y030038D01*
X05047Y030028D01*
X053446D01*
X053506Y030003D01*
X053594Y029991D01*
X054106D01*
X054194Y030003D01*
X054275Y030036D01*
X054346Y03009D01*
X0544Y030161D01*
X054433Y030242D01*
X054445Y03033D01*
X054433Y030418D01*
X0544Y0305D01*
X054346Y03057D01*
X054275Y030624D01*
X054194Y030658D01*
X054106Y030669D01*
X053594D01*
X053506Y030658D01*
X053446Y030633D01*
X050595D01*
X048603Y032625D01*
Y046131D01*
X048653Y046151D01*
X048659Y046145D01*
Y033089D01*
X048669Y03301D01*
X048699Y032937D01*
X048747Y032875D01*
X050506Y031116D01*
X050506Y031116D01*
X050569Y031068D01*
X050642Y031038D01*
X05072Y031028D01*
X053446D01*
X053506Y031003D01*
X053594Y030991D01*
X054106D01*
X054194Y031003D01*
X054275Y031036D01*
X054346Y03109D01*
X0544Y031161D01*
X054433Y031242D01*
X054445Y03133D01*
X054433Y031418D01*
X0544Y0315D01*
X054346Y03157D01*
X054275Y031624D01*
X054194Y031658D01*
X054106Y031669D01*
X053594D01*
X053506Y031658D01*
X053446Y031633D01*
X050845D01*
X049264Y033214D01*
Y046254D01*
X049254Y046333D01*
X049248Y046347D01*
Y046605D01*
X049285Y046635D01*
X049298Y046635D01*
X050115D01*
Y047465D01*
X049298D01*
X049285Y047465D01*
X049248Y047495D01*
Y047942D01*
X049298Y047949D01*
X049313Y04789D01*
X049368Y047795D01*
X049445Y047718D01*
X04954Y047663D01*
X049645Y047635D01*
X049755D01*
X04986Y047663D01*
X049955Y047718D01*
X050032Y047795D01*
X050087Y04789D01*
X050115Y047995D01*
Y048105D01*
X050087Y04821D01*
X050032Y048305D01*
X049955Y048382D01*
X04986Y048437D01*
X049755Y048465D01*
X049645D01*
X04954Y048437D01*
X049445Y048382D01*
X049368Y048305D01*
X049313Y04821D01*
X049298Y048151D01*
X049248Y048158D01*
Y048942D01*
X049298Y048949D01*
X049313Y04889D01*
X049368Y048795D01*
X049445Y048718D01*
X04954Y048663D01*
X049645Y048635D01*
X04965D01*
Y04905D01*
Y049465D01*
X049645D01*
X04954Y049437D01*
X049445Y049382D01*
X049368Y049305D01*
X049313Y04921D01*
X049298Y049151D01*
X049248Y049158D01*
Y049942D01*
X049298Y049949D01*
X049313Y04989D01*
X049368Y049795D01*
X049445Y049718D01*
X04954Y049663D01*
X049645Y049635D01*
X049755D01*
X04986Y049663D01*
X049955Y049718D01*
X050032Y049795D01*
X050087Y04989D01*
X050115Y049995D01*
Y050105D01*
X050087Y05021D01*
X050032Y050305D01*
X049955Y050382D01*
X04986Y050437D01*
X049755Y050465D01*
X049645D01*
X04954Y050437D01*
X049445Y050382D01*
X049368Y050305D01*
X049313Y05021D01*
X049298Y050151D01*
X049248Y050158D01*
Y052851D01*
X049325Y052928D01*
X049388Y053037D01*
X04942Y053157D01*
Y053283D01*
X049388Y053403D01*
X049325Y053512D01*
X049237Y0536D01*
X049128Y053663D01*
X049008Y053695D01*
D02*
G37*
G36*
X065769Y05325D02*
X065631D01*
X065496Y053223D01*
X065368Y05317D01*
X065254Y053094D01*
X065156Y052996D01*
X06508Y052882D01*
X065027Y052754D01*
X065Y052619D01*
Y052481D01*
X065027Y052346D01*
X06508Y052218D01*
X065156Y052104D01*
X065254Y052006D01*
X065368Y05193D01*
X065496Y051877D01*
X065631Y05185D01*
X065769D01*
X065904Y051877D01*
X066032Y05193D01*
X066146Y052006D01*
X066244Y052104D01*
X066295Y05218D01*
X067408D01*
Y051921D01*
X068592D01*
Y052909D01*
X067408D01*
Y052785D01*
X06636D01*
X06632Y052882D01*
X066244Y052996D01*
X066146Y053094D01*
X066032Y05317D01*
X065904Y053223D01*
X065769Y05325D01*
D02*
G37*
G36*
X0657Y051353D02*
X0608D01*
X060722Y051342D01*
X060649Y051312D01*
X060586Y051264D01*
X060133Y050811D01*
X060104Y050823D01*
X059969Y05085D01*
X059831D01*
X059696Y050823D01*
X059568Y05077D01*
X059454Y050694D01*
X059356Y050596D01*
X05928Y050482D01*
X059227Y050354D01*
X0592Y050219D01*
Y050081D01*
X059227Y049946D01*
X05928Y049818D01*
X059356Y049704D01*
X059454Y049606D01*
X059568Y04953D01*
X059696Y049477D01*
X059831Y04945D01*
X059969D01*
X060104Y049477D01*
X060232Y04953D01*
X060346Y049606D01*
X060444Y049704D01*
X06052Y049818D01*
X060573Y049946D01*
X0606Y050081D01*
Y050219D01*
X060573Y050354D01*
X060561Y050383D01*
X060925Y050747D01*
X064248D01*
X064263Y0507D01*
X064254Y050694D01*
X064156Y050596D01*
X06408Y050482D01*
X064027Y050354D01*
X064Y050219D01*
Y050081D01*
X064027Y049946D01*
X06408Y049818D01*
X064156Y049704D01*
X064254Y049606D01*
X064368Y04953D01*
X064496Y049477D01*
X064631Y04945D01*
X064769D01*
X064904Y049477D01*
X065032Y04953D01*
X065146Y049606D01*
X065244Y049704D01*
X06532Y049818D01*
X065373Y049946D01*
X0654Y050081D01*
Y050219D01*
X065373Y050354D01*
X06532Y050482D01*
X065244Y050596D01*
X065146Y050694D01*
X065137Y0507D01*
X065152Y050747D01*
X065575D01*
X066121Y050201D01*
X066121Y050201D01*
X066184Y050153D01*
X066257Y050123D01*
X066335Y050112D01*
X066335Y050112D01*
X067408D01*
Y049921D01*
X068592D01*
Y050909D01*
X067408D01*
Y050718D01*
X06646D01*
X065914Y051264D01*
X065851Y051312D01*
X065778Y051342D01*
X0657Y051353D01*
D02*
G37*
G36*
X056828Y054453D02*
X056724Y05444D01*
X056626Y054399D01*
X056543Y054335D01*
X056479Y054252D01*
X056438Y054154D01*
X056425Y05405D01*
Y05375D01*
X056438Y053646D01*
X056479Y053548D01*
X056543Y053465D01*
X056547Y053461D01*
Y05321D01*
X05649Y053153D01*
X054334D01*
X054256Y053142D01*
X054183Y053112D01*
X05412Y053064D01*
X05412Y053064D01*
X053886Y05283D01*
X053838Y052767D01*
X053808Y052694D01*
X053797Y052616D01*
Y05041D01*
X05374Y050353D01*
X053434D01*
X053405Y050382D01*
X05331Y050437D01*
X053205Y050465D01*
X053095D01*
X05299Y050437D01*
X052895Y050382D01*
X052818Y050305D01*
X052763Y05021D01*
X052735Y050105D01*
Y049995D01*
X052763Y04989D01*
X052818Y049795D01*
X052895Y049718D01*
X05299Y049663D01*
X053095Y049635D01*
X053205D01*
X05331Y049663D01*
X053405Y049718D01*
X053434Y049747D01*
X053866D01*
X053944Y049758D01*
X054017Y049788D01*
X05408Y049836D01*
X054314Y05007D01*
X054314Y05007D01*
X054362Y050133D01*
X054392Y050206D01*
X054403Y050284D01*
Y05249D01*
X05446Y052547D01*
X056616D01*
X056694Y052558D01*
X056767Y052588D01*
X05683Y052636D01*
X057064Y05287D01*
X057064Y05287D01*
X057112Y052933D01*
X057142Y053006D01*
X057153Y053084D01*
Y053516D01*
X057177Y053548D01*
X057218Y053646D01*
X057232Y05375D01*
Y05405D01*
X057218Y054154D01*
X057177Y054252D01*
X057113Y054335D01*
X05703Y054399D01*
X056932Y05444D01*
X056828Y054453D01*
D02*
G37*
G36*
X057228Y05145D02*
X056428D01*
Y05035D01*
X057228D01*
Y05145D01*
D02*
G37*
G36*
X057828Y051453D02*
X057724Y05144D01*
X057626Y051399D01*
X057543Y051335D01*
X057479Y051252D01*
X057438Y051154D01*
X057425Y05105D01*
Y05075D01*
X057438Y050646D01*
X057479Y050548D01*
X057543Y050465D01*
X057626Y050401D01*
X057724Y05036D01*
X057828Y050347D01*
X057932Y05036D01*
X05803Y050401D01*
X058113Y050465D01*
X058177Y050548D01*
X058218Y050646D01*
X058232Y05075D01*
Y05105D01*
X058218Y051154D01*
X058177Y051252D01*
X058113Y051335D01*
X05803Y051399D01*
X057932Y05144D01*
X057828Y051453D01*
D02*
G37*
G36*
X053205Y049465D02*
X0532D01*
Y0491D01*
X053565D01*
Y049105D01*
X053537Y04921D01*
X053482Y049305D01*
X053405Y049382D01*
X05331Y049437D01*
X053205Y049465D01*
D02*
G37*
G36*
X049755D02*
X04975D01*
Y0491D01*
X050115D01*
Y049105D01*
X050087Y04921D01*
X050032Y049305D01*
X049955Y049382D01*
X04986Y049437D01*
X049755Y049465D01*
D02*
G37*
G36*
X042905D02*
X0429D01*
Y0491D01*
X043265D01*
Y049105D01*
X043237Y04921D01*
X043182Y049305D01*
X043105Y049382D01*
X04301Y049437D01*
X042905Y049465D01*
D02*
G37*
G36*
X039505D02*
X0395D01*
Y0491D01*
X039865D01*
Y049105D01*
X039837Y04921D01*
X039782Y049305D01*
X039705Y049382D01*
X03961Y049437D01*
X039505Y049465D01*
D02*
G37*
G36*
X0531D02*
X053095D01*
X05299Y049437D01*
X052895Y049382D01*
X052818Y049305D01*
X052763Y04921D01*
X052735Y049105D01*
Y0491D01*
X0531D01*
Y049465D01*
D02*
G37*
G36*
X0394D02*
X039395D01*
X03929Y049437D01*
X039195Y049382D01*
X039118Y049305D01*
X039063Y04921D01*
X039035Y049105D01*
Y0491D01*
X0394D01*
Y049465D01*
D02*
G37*
G36*
X0428D02*
X042795D01*
X04269Y049437D01*
X042595Y049382D01*
X042518Y049305D01*
X042463Y04921D01*
X042435Y049105D01*
Y0491D01*
X0428D01*
Y049465D01*
D02*
G37*
G36*
X0462D02*
X046195D01*
X04609Y049437D01*
X045995Y049382D01*
X045918Y049305D01*
X045863Y04921D01*
X045835Y049105D01*
Y0491D01*
X0462D01*
Y049465D01*
D02*
G37*
G36*
X056666Y049495D02*
X056594D01*
X056524Y049476D01*
X056461Y04944D01*
X056445Y049424D01*
X056217D01*
X056139Y049408D01*
X056073Y049364D01*
X056073Y049364D01*
X055956Y049247D01*
X055912Y049181D01*
X055896Y049103D01*
Y042534D01*
X054373D01*
X054346Y04257D01*
X054275Y042624D01*
X054194Y042658D01*
X054106Y042669D01*
X053594D01*
X053506Y042658D01*
X053425Y042624D01*
X053354Y04257D01*
X0533Y0425D01*
X053267Y042418D01*
X053255Y04233D01*
X053267Y042242D01*
X0533Y042161D01*
X053354Y04209D01*
X053425Y042036D01*
X053506Y042003D01*
X053594Y041991D01*
X054106D01*
X054194Y042003D01*
X054275Y042036D01*
X054346Y04209D01*
X054373Y042126D01*
X055983D01*
X056061Y042142D01*
X056127Y042186D01*
X056162Y04215D01*
X055906Y041894D01*
X055862Y041828D01*
X055846Y04175D01*
Y036604D01*
X054359D01*
X054313Y036595D01*
X054275Y036624D01*
X054194Y036658D01*
X054106Y036669D01*
X053594D01*
X053506Y036658D01*
X053425Y036624D01*
X053354Y03657D01*
X0533Y0365D01*
X053267Y036418D01*
X053255Y03633D01*
X053267Y036242D01*
X0533Y036161D01*
X053354Y03609D01*
X053425Y036036D01*
X053506Y036003D01*
X053594Y035991D01*
X054106D01*
X054194Y036003D01*
X054275Y036036D01*
X054346Y03609D01*
X0544Y036161D01*
X054413Y036193D01*
X05442Y036194D01*
X054423Y036196D01*
X05489D01*
X054918Y036146D01*
X054906Y036125D01*
X054891Y036069D01*
X055434D01*
X055419Y036125D01*
X055407Y036146D01*
X055436Y036196D01*
X055933D01*
X056011Y036212D01*
X056077Y036256D01*
X056194Y036373D01*
X056194Y036373D01*
X056238Y036439D01*
X056254Y036517D01*
Y041666D01*
X056762Y042174D01*
X056806Y04224D01*
X056822Y042318D01*
Y042565D01*
X056838Y042581D01*
X056874Y042644D01*
X056893Y042714D01*
Y042786D01*
X056874Y042856D01*
X056838Y042919D01*
X056787Y04297D01*
X056724Y043006D01*
X056654Y043025D01*
X056582D01*
X056512Y043006D01*
X056449Y04297D01*
X056398Y042919D01*
X056362Y042856D01*
X056354Y042827D01*
X056304Y042833D01*
Y049016D01*
X056445D01*
X056461Y049D01*
X056524Y048964D01*
X056594Y048945D01*
X056666D01*
X056736Y048964D01*
X056799Y049D01*
X05685Y049051D01*
X056886Y049114D01*
X056905Y049184D01*
Y049256D01*
X056886Y049326D01*
X05685Y049389D01*
X056799Y04944D01*
X056736Y049476D01*
X056666Y049495D01*
D02*
G37*
G36*
X053565Y049D02*
X0532D01*
Y048635D01*
X053205D01*
X05331Y048663D01*
X053405Y048718D01*
X053482Y048795D01*
X053537Y04889D01*
X053565Y048995D01*
Y049D01*
D02*
G37*
G36*
X0531D02*
X052735D01*
Y048995D01*
X052763Y04889D01*
X052818Y048795D01*
X052895Y048718D01*
X05299Y048663D01*
X053095Y048635D01*
X0531D01*
Y049D01*
D02*
G37*
G36*
X050115D02*
X04975D01*
Y048635D01*
X049755D01*
X04986Y048663D01*
X049955Y048718D01*
X050032Y048795D01*
X050087Y04889D01*
X050115Y048995D01*
Y049D01*
D02*
G37*
G36*
X0462D02*
X045835D01*
Y048995D01*
X045863Y04889D01*
X045918Y048795D01*
X045995Y048718D01*
X04609Y048663D01*
X046195Y048635D01*
X0462D01*
Y049D01*
D02*
G37*
G36*
X043265D02*
X0429D01*
Y048635D01*
X042905D01*
X04301Y048663D01*
X043105Y048718D01*
X043182Y048795D01*
X043237Y04889D01*
X043265Y048995D01*
Y049D01*
D02*
G37*
G36*
X0428D02*
X042435D01*
Y048995D01*
X042463Y04889D01*
X042518Y048795D01*
X042595Y048718D01*
X04269Y048663D01*
X042795Y048635D01*
X0428D01*
Y049D01*
D02*
G37*
G36*
X039865D02*
X0395D01*
Y048635D01*
X039505D01*
X03961Y048663D01*
X039705Y048718D01*
X039782Y048795D01*
X039837Y04889D01*
X039865Y048995D01*
Y049D01*
D02*
G37*
G36*
X0394D02*
X039035D01*
Y048995D01*
X039063Y04889D01*
X039118Y048795D01*
X039195Y048718D01*
X03929Y048663D01*
X039395Y048635D01*
X0394D01*
Y049D01*
D02*
G37*
G36*
X03445Y049104D02*
X034333Y049088D01*
X034223Y049043D01*
X034129Y048971D01*
X034057Y048877D01*
X034012Y048767D01*
X033996Y04865D01*
Y04835D01*
X034012Y048233D01*
X034057Y048123D01*
X034129Y048029D01*
X034223Y047957D01*
X034333Y047912D01*
X03445Y047896D01*
X034567Y047912D01*
X034677Y047957D01*
X034771Y048029D01*
X034843Y048123D01*
X034888Y048233D01*
X034904Y04835D01*
Y04865D01*
X034888Y048767D01*
X034843Y048877D01*
X034771Y048971D01*
X034677Y049043D01*
X034567Y049088D01*
X03445Y049104D01*
D02*
G37*
G36*
X064769Y049185D02*
X064631D01*
X064496Y049158D01*
X064368Y049105D01*
X064254Y049029D01*
X064156Y048931D01*
X06408Y048817D01*
X064027Y048689D01*
X064Y048554D01*
Y048416D01*
X064027Y048281D01*
X06408Y048153D01*
X064156Y048039D01*
X064254Y047941D01*
X064263Y047935D01*
X064248Y047888D01*
X060925D01*
X060561Y048252D01*
X060573Y048281D01*
X0606Y048416D01*
Y048554D01*
X060573Y048689D01*
X06052Y048817D01*
X060444Y048931D01*
X060346Y049029D01*
X060232Y049105D01*
X060104Y049158D01*
X059969Y049185D01*
X059831D01*
X059696Y049158D01*
X059568Y049105D01*
X059454Y049029D01*
X059356Y048931D01*
X05928Y048817D01*
X059227Y048689D01*
X0592Y048554D01*
Y048416D01*
X059227Y048281D01*
X05928Y048153D01*
X059356Y048039D01*
X059454Y047941D01*
X059568Y047865D01*
X059696Y047812D01*
X059831Y047785D01*
X059969D01*
X060104Y047812D01*
X060133Y047824D01*
X060586Y047371D01*
X060649Y047323D01*
X060722Y047293D01*
X0608Y047282D01*
X065838D01*
X065916Y047293D01*
X065989Y047323D01*
X066052Y047371D01*
X066323Y047642D01*
X067408D01*
Y047451D01*
X068592D01*
Y048439D01*
X067408D01*
Y048248D01*
X066198D01*
X066119Y048237D01*
X066046Y048207D01*
X065984Y048159D01*
X065712Y047888D01*
X065152D01*
X065137Y047935D01*
X065146Y047941D01*
X065244Y048039D01*
X06532Y048153D01*
X065373Y048281D01*
X0654Y048416D01*
Y048554D01*
X065373Y048689D01*
X06532Y048817D01*
X065244Y048931D01*
X065146Y049029D01*
X065032Y049105D01*
X064904Y049158D01*
X064769Y049185D01*
D02*
G37*
G36*
X053205Y048465D02*
X053095D01*
X05299Y048437D01*
X052895Y048382D01*
X052818Y048305D01*
X052763Y04821D01*
X052735Y048105D01*
Y047995D01*
X052763Y04789D01*
X052818Y047795D01*
X052895Y047718D01*
X05299Y047663D01*
X053095Y047635D01*
X053205D01*
X05331Y047663D01*
X053405Y047718D01*
X053482Y047795D01*
X053537Y04789D01*
X053565Y047995D01*
Y048105D01*
X053537Y04821D01*
X053482Y048305D01*
X053405Y048382D01*
X05331Y048437D01*
X053205Y048465D01*
D02*
G37*
G36*
X039505D02*
X039395D01*
X03929Y048437D01*
X039195Y048382D01*
X039118Y048305D01*
X039063Y04821D01*
X039035Y048105D01*
Y047995D01*
X039063Y04789D01*
X039118Y047795D01*
X039195Y047718D01*
X03929Y047663D01*
X039395Y047635D01*
X039505D01*
X03961Y047663D01*
X039705Y047718D01*
X039782Y047795D01*
X039837Y04789D01*
X039865Y047995D01*
Y048105D01*
X039837Y04821D01*
X039782Y048305D01*
X039705Y048382D01*
X03961Y048437D01*
X039505Y048465D01*
D02*
G37*
G36*
X057828Y047953D02*
X057724Y04794D01*
X057626Y047899D01*
X057543Y047835D01*
X057479Y047752D01*
X057438Y047654D01*
X057425Y04755D01*
Y04725D01*
X057438Y047146D01*
X057479Y047048D01*
X057543Y046965D01*
X057626Y046901D01*
X057724Y04686D01*
X057828Y046847D01*
X057932Y04686D01*
X05803Y046901D01*
X058113Y046965D01*
X058177Y047048D01*
X058218Y047146D01*
X058232Y04725D01*
Y04755D01*
X058218Y047654D01*
X058177Y047752D01*
X058113Y047835D01*
X05803Y047899D01*
X057932Y04794D01*
X057828Y047953D01*
D02*
G37*
G36*
X056828D02*
X056724Y04794D01*
X056626Y047899D01*
X056543Y047835D01*
X056479Y047752D01*
X056438Y047654D01*
X056425Y04755D01*
Y04725D01*
X056438Y047146D01*
X056479Y047048D01*
X056543Y046965D01*
X056626Y046901D01*
X056724Y04686D01*
X056828Y046847D01*
X056932Y04686D01*
X05703Y046901D01*
X057113Y046965D01*
X057177Y047048D01*
X057218Y047146D01*
X057232Y04725D01*
Y04755D01*
X057218Y047654D01*
X057177Y047752D01*
X057113Y047835D01*
X05703Y047899D01*
X056932Y04794D01*
X056828Y047953D01*
D02*
G37*
G36*
X053565Y047465D02*
X052735D01*
Y046635D01*
X053565D01*
Y047465D01*
D02*
G37*
G36*
X039865D02*
X039035D01*
Y046635D01*
X039865D01*
Y047465D01*
D02*
G37*
G36*
X065769Y046785D02*
X065631D01*
X065496Y046758D01*
X065368Y046705D01*
X065254Y046629D01*
X065156Y046531D01*
X06508Y046417D01*
X065027Y046289D01*
X065Y046154D01*
Y046016D01*
X065027Y045881D01*
X06508Y045753D01*
X065156Y045639D01*
X065254Y045541D01*
X065368Y045465D01*
X065496Y045412D01*
X065631Y045385D01*
X065769D01*
X065904Y045412D01*
X066032Y045465D01*
X066146Y045541D01*
X066244Y045639D01*
X066295Y045715D01*
X067408D01*
Y045456D01*
X068592D01*
Y046444D01*
X067408D01*
Y04632D01*
X06636D01*
X06632Y046417D01*
X066244Y046531D01*
X066146Y046629D01*
X066032Y046705D01*
X065904Y046758D01*
X065769Y046785D01*
D02*
G37*
G36*
X0657Y044888D02*
X0608D01*
X060722Y044877D01*
X060649Y044847D01*
X060586Y044799D01*
X060133Y044346D01*
X060104Y044358D01*
X059969Y044385D01*
X059831D01*
X059696Y044358D01*
X059568Y044305D01*
X059454Y044229D01*
X059356Y044131D01*
X05928Y044017D01*
X059227Y043889D01*
X0592Y043754D01*
Y043616D01*
X059227Y043481D01*
X05928Y043353D01*
X059356Y043239D01*
X059454Y043141D01*
X059568Y043065D01*
X059696Y043012D01*
X059831Y042985D01*
X059969D01*
X060104Y043012D01*
X060232Y043065D01*
X060346Y043141D01*
X060444Y043239D01*
X06052Y043353D01*
X060573Y043481D01*
X0606Y043616D01*
Y043754D01*
X060573Y043889D01*
X060561Y043918D01*
X060925Y044282D01*
X064248D01*
X064263Y044235D01*
X064254Y044229D01*
X064156Y044131D01*
X06408Y044017D01*
X064027Y043889D01*
X064Y043754D01*
Y043616D01*
X064027Y043481D01*
X06408Y043353D01*
X064156Y043239D01*
X064254Y043141D01*
X064368Y043065D01*
X064496Y043012D01*
X064631Y042985D01*
X064769D01*
X064904Y043012D01*
X065032Y043065D01*
X065146Y043141D01*
X065244Y043239D01*
X06532Y043353D01*
X065373Y043481D01*
X0654Y043616D01*
Y043754D01*
X065373Y043889D01*
X06532Y044017D01*
X065244Y044131D01*
X065146Y044229D01*
X065137Y044235D01*
X065152Y044282D01*
X065575D01*
X066121Y043736D01*
X066121Y043736D01*
X066184Y043688D01*
X066257Y043658D01*
X066335Y043647D01*
X066335Y043647D01*
X067408D01*
Y043456D01*
X068592D01*
Y044444D01*
X067408D01*
Y044253D01*
X06646D01*
X065914Y044799D01*
X065851Y044847D01*
X065778Y044877D01*
X0657Y044888D01*
D02*
G37*
G36*
X0364Y0491D02*
X0355D01*
Y0479D01*
X035647D01*
Y044648D01*
X035658Y04457D01*
X035688Y044497D01*
X035736Y044435D01*
X03597Y0442D01*
X03597Y0442D01*
X036033Y044152D01*
X036106Y044122D01*
X036184Y044112D01*
X041337D01*
X041351Y044098D01*
X041441Y044046D01*
X041541Y044019D01*
X041645D01*
X041746Y044046D01*
X041836Y044098D01*
X04191Y044171D01*
X041962Y044262D01*
X041989Y044362D01*
Y044466D01*
X041962Y044567D01*
X04191Y044657D01*
X041836Y04473D01*
X041746Y044783D01*
X041645Y044809D01*
X041541D01*
X041441Y044783D01*
X041351Y04473D01*
X041337Y044717D01*
X03631D01*
X036253Y044774D01*
Y0479D01*
X0364D01*
Y0491D01*
D02*
G37*
G36*
X034559Y044809D02*
X034455D01*
X034354Y044783D01*
X034264Y04473D01*
X03419Y044657D01*
X034138Y044567D01*
X034111Y044466D01*
Y044362D01*
X034138Y044262D01*
X03419Y044171D01*
X034264Y044098D01*
X034354Y044046D01*
X034455Y044019D01*
X034559D01*
X034659Y044046D01*
X034749Y044098D01*
X034823Y044171D01*
X034875Y044262D01*
X034902Y044362D01*
Y044466D01*
X034875Y044567D01*
X034823Y044657D01*
X034749Y04473D01*
X034659Y044783D01*
X034559Y044809D01*
D02*
G37*
G36*
X057228Y04495D02*
X056428D01*
Y04385D01*
X057228D01*
Y04495D01*
D02*
G37*
G36*
X057828Y044953D02*
X057724Y04494D01*
X057626Y044899D01*
X057543Y044835D01*
X057479Y044752D01*
X057438Y044654D01*
X057425Y04455D01*
Y04425D01*
X057438Y044146D01*
X057479Y044048D01*
X057543Y043965D01*
X057626Y043901D01*
X057724Y04386D01*
X057828Y043847D01*
X057932Y04386D01*
X05803Y043901D01*
X058113Y043965D01*
X058177Y044048D01*
X058218Y044146D01*
X058232Y04425D01*
Y04455D01*
X058218Y044654D01*
X058177Y044752D01*
X058113Y044835D01*
X05803Y044899D01*
X057932Y04494D01*
X057828Y044953D01*
D02*
G37*
G36*
X044442Y043666D02*
X043258D01*
Y042994D01*
X044442D01*
Y043666D01*
D02*
G37*
G36*
X054106Y043669D02*
X053594D01*
X053506Y043658D01*
X053425Y043624D01*
X053354Y04357D01*
X0533Y0435D01*
X053267Y043418D01*
X053255Y04333D01*
X053267Y043242D01*
X0533Y043161D01*
X053354Y04309D01*
X053425Y043036D01*
X053506Y043003D01*
X053594Y042991D01*
X054106D01*
X054194Y043003D01*
X054275Y043036D01*
X054346Y04309D01*
X0544Y043161D01*
X054433Y043242D01*
X054445Y04333D01*
X054433Y043418D01*
X0544Y0435D01*
X054346Y04357D01*
X054275Y043624D01*
X054194Y043658D01*
X054106Y043669D01*
D02*
G37*
G36*
X044106Y042669D02*
X043594D01*
X043506Y042658D01*
X043425Y042624D01*
X043354Y04257D01*
X0433Y0425D01*
X043267Y042418D01*
X043255Y04233D01*
X043267Y042242D01*
X0433Y042161D01*
X043354Y04209D01*
X043425Y042036D01*
X043506Y042003D01*
X043594Y041991D01*
X044106D01*
X044194Y042003D01*
X044275Y042036D01*
X044346Y04209D01*
X0444Y042161D01*
X044433Y042242D01*
X044445Y04233D01*
X044433Y042418D01*
X0444Y0425D01*
X044346Y04257D01*
X044275Y042624D01*
X044194Y042658D01*
X044106Y042669D01*
D02*
G37*
G36*
X064769Y042685D02*
X064631D01*
X064496Y042658D01*
X064368Y042605D01*
X064254Y042529D01*
X064156Y042431D01*
X06408Y042317D01*
X064027Y042189D01*
X064Y042054D01*
Y041916D01*
X064027Y041781D01*
X06408Y041653D01*
X064156Y041539D01*
X064254Y041441D01*
X064263Y041435D01*
X064248Y041388D01*
X060925D01*
X060561Y041752D01*
X060573Y041781D01*
X0606Y041916D01*
Y042054D01*
X060573Y042189D01*
X06052Y042317D01*
X060444Y042431D01*
X060346Y042529D01*
X060232Y042605D01*
X060104Y042658D01*
X059969Y042685D01*
X059831D01*
X059696Y042658D01*
X059568Y042605D01*
X059454Y042529D01*
X059356Y042431D01*
X05928Y042317D01*
X059227Y042189D01*
X0592Y042054D01*
Y041916D01*
X059227Y041781D01*
X05928Y041653D01*
X059356Y041539D01*
X059454Y041441D01*
X059568Y041365D01*
X059696Y041312D01*
X059831Y041285D01*
X059969D01*
X060104Y041312D01*
X060133Y041324D01*
X060586Y040871D01*
X060649Y040823D01*
X060722Y040793D01*
X0608Y040782D01*
X065838D01*
X065916Y040793D01*
X065989Y040823D01*
X066052Y040871D01*
X066323Y041142D01*
X067408D01*
Y040951D01*
X068592D01*
Y041939D01*
X067408D01*
Y041748D01*
X066198D01*
X066119Y041737D01*
X066046Y041707D01*
X065984Y041659D01*
X065712Y041388D01*
X065152D01*
X065137Y041435D01*
X065146Y041441D01*
X065244Y041539D01*
X06532Y041653D01*
X065373Y041781D01*
X0654Y041916D01*
Y042054D01*
X065373Y042189D01*
X06532Y042317D01*
X065244Y042431D01*
X065146Y042529D01*
X065032Y042605D01*
X064904Y042658D01*
X064769Y042685D01*
D02*
G37*
G36*
X054106Y041669D02*
X053594D01*
X053506Y041658D01*
X053425Y041624D01*
X053354Y04157D01*
X0533Y0415D01*
X053267Y041418D01*
X053255Y04133D01*
X053267Y041242D01*
X0533Y041161D01*
X053354Y04109D01*
X053425Y041036D01*
X053506Y041003D01*
X053594Y040991D01*
X054106D01*
X054194Y041003D01*
X054275Y041036D01*
X054346Y04109D01*
X0544Y041161D01*
X054433Y041242D01*
X054445Y04133D01*
X054433Y041418D01*
X0544Y0415D01*
X054346Y04157D01*
X054275Y041624D01*
X054194Y041658D01*
X054106Y041669D01*
D02*
G37*
G36*
X044106D02*
X043594D01*
X043506Y041658D01*
X043425Y041624D01*
X043354Y04157D01*
X0433Y0415D01*
X043267Y041418D01*
X043255Y04133D01*
X043267Y041242D01*
X0433Y041161D01*
X043354Y04109D01*
X043425Y041036D01*
X043506Y041003D01*
X043594Y040991D01*
X044106D01*
X044194Y041003D01*
X044275Y041036D01*
X044346Y04109D01*
X0444Y041161D01*
X044433Y041242D01*
X044445Y04133D01*
X044433Y041418D01*
X0444Y0415D01*
X044346Y04157D01*
X044275Y041624D01*
X044194Y041658D01*
X044106Y041669D01*
D02*
G37*
G36*
X057828Y041403D02*
X057724Y04139D01*
X057626Y041349D01*
X057543Y041285D01*
X057479Y041202D01*
X057438Y041104D01*
X057425Y041D01*
Y0407D01*
X057438Y040596D01*
X057479Y040498D01*
X057543Y040415D01*
X057626Y040351D01*
X057724Y04031D01*
X057828Y040297D01*
X057932Y04031D01*
X05803Y040351D01*
X058113Y040415D01*
X058177Y040498D01*
X058218Y040596D01*
X058232Y0407D01*
Y041D01*
X058218Y041104D01*
X058177Y041202D01*
X058113Y041285D01*
X05803Y041349D01*
X057932Y04139D01*
X057828Y041403D01*
D02*
G37*
G36*
X056828D02*
X056724Y04139D01*
X056626Y041349D01*
X056543Y041285D01*
X056479Y041202D01*
X056438Y041104D01*
X056425Y041D01*
Y0407D01*
X056438Y040596D01*
X056479Y040498D01*
X056543Y040415D01*
X056626Y040351D01*
X056724Y04031D01*
X056828Y040297D01*
X056932Y04031D01*
X05703Y040351D01*
X057113Y040415D01*
X057177Y040498D01*
X057218Y040596D01*
X057232Y0407D01*
Y041D01*
X057218Y041104D01*
X057177Y041202D01*
X057113Y041285D01*
X05703Y041349D01*
X056932Y04139D01*
X056828Y041403D01*
D02*
G37*
G36*
X054106Y040669D02*
X053594D01*
X053506Y040658D01*
X053425Y040624D01*
X053354Y04057D01*
X0533Y0405D01*
X053267Y040418D01*
X053255Y04033D01*
X053267Y040242D01*
X0533Y040161D01*
X053354Y04009D01*
X053425Y040036D01*
X053506Y040003D01*
X053594Y039991D01*
X054106D01*
X054194Y040003D01*
X054275Y040036D01*
X054346Y04009D01*
X0544Y040161D01*
X054433Y040242D01*
X054445Y04033D01*
X054433Y040418D01*
X0544Y0405D01*
X054346Y04057D01*
X054275Y040624D01*
X054194Y040658D01*
X054106Y040669D01*
D02*
G37*
G36*
X044106D02*
X043594D01*
X043506Y040658D01*
X043425Y040624D01*
X043354Y04057D01*
X0433Y0405D01*
X043267Y040418D01*
X043255Y04033D01*
X043267Y040242D01*
X0433Y040161D01*
X043354Y04009D01*
X043425Y040036D01*
X043506Y040003D01*
X043594Y039991D01*
X044106D01*
X044194Y040003D01*
X044275Y040036D01*
X044346Y04009D01*
X0444Y040161D01*
X044433Y040242D01*
X044445Y04033D01*
X044433Y040418D01*
X0444Y0405D01*
X044346Y04057D01*
X044275Y040624D01*
X044194Y040658D01*
X044106Y040669D01*
D02*
G37*
G36*
X054106Y039669D02*
X053594D01*
X053506Y039658D01*
X053425Y039624D01*
X053354Y03957D01*
X0533Y0395D01*
X053267Y039418D01*
X053255Y03933D01*
X053267Y039242D01*
X0533Y039161D01*
X053354Y03909D01*
X053425Y039036D01*
X053506Y039003D01*
X053594Y038991D01*
X054106D01*
X054194Y039003D01*
X054275Y039036D01*
X054346Y03909D01*
X0544Y039161D01*
X054433Y039242D01*
X054445Y03933D01*
X054433Y039418D01*
X0544Y0395D01*
X054346Y03957D01*
X054275Y039624D01*
X054194Y039658D01*
X054106Y039669D01*
D02*
G37*
G36*
X065769Y040285D02*
X065631D01*
X065496Y040258D01*
X065368Y040205D01*
X065254Y040129D01*
X065156Y040031D01*
X06508Y039917D01*
X065027Y039789D01*
X065Y039654D01*
Y039516D01*
X065027Y039381D01*
X06508Y039253D01*
X065156Y039139D01*
X065254Y039041D01*
X065368Y038965D01*
X065496Y038912D01*
X065631Y038885D01*
X065769D01*
X065904Y038912D01*
X066032Y038965D01*
X066146Y039041D01*
X066244Y039139D01*
X066295Y039215D01*
X067408D01*
Y038956D01*
X068592D01*
Y039944D01*
X067408D01*
Y03982D01*
X06636D01*
X06632Y039917D01*
X066244Y040031D01*
X066146Y040129D01*
X066032Y040205D01*
X065904Y040258D01*
X065769Y040285D01*
D02*
G37*
G36*
X054106Y038669D02*
X053594D01*
X053506Y038658D01*
X053425Y038624D01*
X053354Y03857D01*
X0533Y0385D01*
X053267Y038418D01*
X053255Y03833D01*
X053267Y038242D01*
X0533Y038161D01*
X053354Y03809D01*
X053425Y038036D01*
X053506Y038003D01*
X053594Y037991D01*
X054106D01*
X054194Y038003D01*
X054275Y038036D01*
X054346Y03809D01*
X0544Y038161D01*
X054433Y038242D01*
X054445Y03833D01*
X054433Y038418D01*
X0544Y0385D01*
X054346Y03857D01*
X054275Y038624D01*
X054194Y038658D01*
X054106Y038669D01*
D02*
G37*
G36*
X0657Y038388D02*
X0608D01*
X060722Y038377D01*
X060649Y038347D01*
X060586Y038299D01*
X060133Y037846D01*
X060104Y037858D01*
X059969Y037885D01*
X059831D01*
X059696Y037858D01*
X059568Y037805D01*
X059454Y037729D01*
X059356Y037631D01*
X05928Y037517D01*
X059227Y037389D01*
X0592Y037254D01*
Y037116D01*
X059227Y036981D01*
X05928Y036853D01*
X059356Y036739D01*
X059454Y036641D01*
X059568Y036565D01*
X059696Y036512D01*
X059831Y036485D01*
X059969D01*
X060104Y036512D01*
X060232Y036565D01*
X060346Y036641D01*
X060444Y036739D01*
X06052Y036853D01*
X060573Y036981D01*
X0606Y037116D01*
Y037254D01*
X060573Y037389D01*
X060561Y037418D01*
X060925Y037782D01*
X064248D01*
X064263Y037735D01*
X064254Y037729D01*
X064156Y037631D01*
X06408Y037517D01*
X064027Y037389D01*
X064Y037254D01*
Y037116D01*
X064027Y036981D01*
X06408Y036853D01*
X064156Y036739D01*
X064254Y036641D01*
X064368Y036565D01*
X064496Y036512D01*
X064631Y036485D01*
X064769D01*
X064904Y036512D01*
X065032Y036565D01*
X065146Y036641D01*
X065244Y036739D01*
X06532Y036853D01*
X065373Y036981D01*
X0654Y037116D01*
Y037254D01*
X065373Y037389D01*
X06532Y037517D01*
X065244Y037631D01*
X065146Y037729D01*
X065137Y037735D01*
X065152Y037782D01*
X065575D01*
X066121Y037236D01*
X066121Y037236D01*
X066184Y037188D01*
X066257Y037158D01*
X066335Y037147D01*
X066335Y037147D01*
X067408D01*
Y036956D01*
X068592D01*
Y037944D01*
X067408D01*
Y037753D01*
X06646D01*
X065914Y038299D01*
X065851Y038347D01*
X065778Y038377D01*
X0657Y038388D01*
D02*
G37*
G36*
X057228Y0384D02*
X056428D01*
Y0373D01*
X057228D01*
Y0384D01*
D02*
G37*
G36*
X057828Y038403D02*
X057724Y03839D01*
X057626Y038349D01*
X057543Y038285D01*
X057479Y038202D01*
X057438Y038104D01*
X057425Y038D01*
Y0377D01*
X057438Y037596D01*
X057479Y037498D01*
X057543Y037415D01*
X057626Y037351D01*
X057724Y03731D01*
X057828Y037297D01*
X057932Y03731D01*
X05803Y037351D01*
X058113Y037415D01*
X058177Y037498D01*
X058218Y037596D01*
X058232Y0377D01*
Y038D01*
X058218Y038104D01*
X058177Y038202D01*
X058113Y038285D01*
X05803Y038349D01*
X057932Y03839D01*
X057828Y038403D01*
D02*
G37*
G36*
X054106Y037669D02*
X053594D01*
X053506Y037658D01*
X053425Y037624D01*
X053354Y03757D01*
X0533Y0375D01*
X053267Y037418D01*
X053255Y03733D01*
X053267Y037242D01*
X0533Y037161D01*
X053354Y03709D01*
X053425Y037036D01*
X053506Y037003D01*
X053594Y036991D01*
X054106D01*
X054194Y037003D01*
X054275Y037036D01*
X054346Y03709D01*
X0544Y037161D01*
X054433Y037242D01*
X054445Y03733D01*
X054433Y037418D01*
X0544Y0375D01*
X054346Y03757D01*
X054275Y037624D01*
X054194Y037658D01*
X054106Y037669D01*
D02*
G37*
G36*
X044106Y036669D02*
X043594D01*
X043506Y036658D01*
X043425Y036624D01*
X043354Y03657D01*
X0433Y0365D01*
X043267Y036418D01*
X043255Y03633D01*
X043267Y036242D01*
X0433Y036161D01*
X043354Y03609D01*
X043425Y036036D01*
X043506Y036003D01*
X043594Y035991D01*
X044106D01*
X044194Y036003D01*
X044275Y036036D01*
X044346Y03609D01*
X0444Y036161D01*
X044433Y036242D01*
X044445Y03633D01*
X044433Y036418D01*
X0444Y0365D01*
X044346Y03657D01*
X044275Y036624D01*
X044194Y036658D01*
X044106Y036669D01*
D02*
G37*
G36*
X055434Y035969D02*
X055213D01*
Y035748D01*
X055269Y035763D01*
X055332Y035799D01*
X055383Y03585D01*
X055419Y035913D01*
X055434Y035969D01*
D02*
G37*
G36*
X055113D02*
X054891D01*
X054906Y035913D01*
X054943Y03585D01*
X054994Y035799D01*
X055057Y035763D01*
X055113Y035748D01*
Y035969D01*
D02*
G37*
G36*
X056654Y036475D02*
X056582D01*
X056512Y036456D01*
X056449Y03642D01*
X056398Y036369D01*
X056362Y036306D01*
X056343Y036236D01*
Y036164D01*
X056362Y036094D01*
X056398Y036031D01*
X056414Y036015D01*
Y035534D01*
X054373D01*
X054346Y03557D01*
X054275Y035624D01*
X054194Y035658D01*
X054106Y035669D01*
X053594D01*
X053506Y035658D01*
X053425Y035624D01*
X053354Y03557D01*
X0533Y0355D01*
X053267Y035418D01*
X053255Y03533D01*
X053267Y035242D01*
X0533Y035161D01*
X053354Y03509D01*
X053425Y035036D01*
X053506Y035003D01*
X053594Y034991D01*
X054106D01*
X054194Y035003D01*
X054275Y035036D01*
X054346Y03509D01*
X054373Y035126D01*
X056501D01*
X056579Y035142D01*
X056645Y035186D01*
X056762Y035303D01*
X056762Y035303D01*
X056806Y035369D01*
X056822Y035447D01*
Y036015D01*
X056838Y036031D01*
X056874Y036094D01*
X056893Y036164D01*
Y036236D01*
X056874Y036306D01*
X056838Y036369D01*
X056787Y03642D01*
X056724Y036456D01*
X056654Y036475D01*
D02*
G37*
G36*
X043265Y047465D02*
X042435D01*
Y046635D01*
X042646D01*
Y035499D01*
X042662Y035421D01*
X042706Y035355D01*
X042823Y035238D01*
X042823Y035238D01*
X042889Y035194D01*
X042967Y035178D01*
X043293D01*
X0433Y035161D01*
X043354Y03509D01*
X043425Y035036D01*
X043506Y035003D01*
X043594Y034991D01*
X044106D01*
X044194Y035003D01*
X044275Y035036D01*
X044346Y03509D01*
X0444Y035161D01*
X044433Y035242D01*
X044445Y03533D01*
X044433Y035418D01*
X0444Y0355D01*
X044346Y03557D01*
X044275Y035624D01*
X044194Y035658D01*
X044106Y035669D01*
X043594D01*
X043506Y035658D01*
X043425Y035624D01*
X043375Y035586D01*
X043054D01*
Y046635D01*
X043265D01*
Y047465D01*
D02*
G37*
G36*
X064769Y03615D02*
X064631D01*
X064496Y036123D01*
X064368Y03607D01*
X064254Y035994D01*
X064156Y035896D01*
X06408Y035782D01*
X064027Y035654D01*
X064Y035519D01*
Y035381D01*
X064027Y035246D01*
X06408Y035118D01*
X064156Y035004D01*
X064254Y034906D01*
X064263Y0349D01*
X064248Y034853D01*
X060925D01*
X060561Y035217D01*
X060573Y035246D01*
X0606Y035381D01*
Y035519D01*
X060573Y035654D01*
X06052Y035782D01*
X060444Y035896D01*
X060346Y035994D01*
X060232Y03607D01*
X060104Y036123D01*
X059969Y03615D01*
X059831D01*
X059696Y036123D01*
X059568Y03607D01*
X059454Y035994D01*
X059356Y035896D01*
X05928Y035782D01*
X059227Y035654D01*
X0592Y035519D01*
Y035381D01*
X059227Y035246D01*
X05928Y035118D01*
X059356Y035004D01*
X059454Y034906D01*
X059568Y03483D01*
X059696Y034777D01*
X059831Y03475D01*
X059969D01*
X060104Y034777D01*
X060133Y034789D01*
X060586Y034336D01*
X060649Y034288D01*
X060722Y034258D01*
X0608Y034247D01*
X065838D01*
X065916Y034258D01*
X065989Y034288D01*
X066052Y034336D01*
X066323Y034607D01*
X067408D01*
Y034416D01*
X068592D01*
Y035404D01*
X067408D01*
Y035213D01*
X066198D01*
X066119Y035202D01*
X066046Y035172D01*
X065984Y035124D01*
X065712Y034853D01*
X065152D01*
X065137Y0349D01*
X065146Y034906D01*
X065244Y035004D01*
X06532Y035118D01*
X065373Y035246D01*
X0654Y035381D01*
Y035519D01*
X065373Y035654D01*
X06532Y035782D01*
X065244Y035896D01*
X065146Y035994D01*
X065032Y03607D01*
X064904Y036123D01*
X064769Y03615D01*
D02*
G37*
G36*
X05785Y035153D02*
X057746Y03514D01*
X057648Y035099D01*
X057565Y035035D01*
X057501Y034952D01*
X05746Y034854D01*
X057447Y03475D01*
Y03445D01*
X05746Y034346D01*
X057501Y034248D01*
X057565Y034165D01*
X057648Y034101D01*
X057746Y03406D01*
X05785Y034047D01*
X057954Y03406D01*
X058052Y034101D01*
X058135Y034165D01*
X058199Y034248D01*
X05824Y034346D01*
X058253Y03445D01*
Y03475D01*
X05824Y034854D01*
X058199Y034952D01*
X058135Y035035D01*
X058052Y035099D01*
X057954Y03514D01*
X05785Y035153D01*
D02*
G37*
G36*
X05685D02*
X056746Y03514D01*
X056648Y035099D01*
X056565Y035035D01*
X056501Y034952D01*
X05646Y034854D01*
X056447Y03475D01*
Y03445D01*
X05646Y034346D01*
X056501Y034248D01*
X056565Y034165D01*
X056648Y034101D01*
X056746Y03406D01*
X05685Y034047D01*
X056954Y03406D01*
X057052Y034101D01*
X057135Y034165D01*
X057199Y034248D01*
X05724Y034346D01*
X057253Y03445D01*
Y03475D01*
X05724Y034854D01*
X057199Y034952D01*
X057135Y035035D01*
X057052Y035099D01*
X056954Y03514D01*
X05685Y035153D01*
D02*
G37*
G36*
X044106Y034669D02*
X043594D01*
X043506Y034658D01*
X043425Y034624D01*
X043354Y03457D01*
X0433Y0345D01*
X043267Y034418D01*
X043255Y03433D01*
X043267Y034242D01*
X0433Y034161D01*
X043354Y03409D01*
X043425Y034036D01*
X043506Y034003D01*
X043594Y033991D01*
X044106D01*
X044194Y034003D01*
X044275Y034036D01*
X044346Y03409D01*
X0444Y034161D01*
X044433Y034242D01*
X044445Y03433D01*
X044433Y034418D01*
X0444Y0345D01*
X044346Y03457D01*
X044275Y034624D01*
X044194Y034658D01*
X044106Y034669D01*
D02*
G37*
G36*
X03605Y041577D02*
X034285D01*
Y033623D01*
X03605D01*
Y041577D01*
D02*
G37*
G36*
X054106Y034669D02*
X053594D01*
X053506Y034658D01*
X053425Y034624D01*
X053354Y03457D01*
X0533Y0345D01*
X053267Y034418D01*
X053255Y03433D01*
X053267Y034242D01*
X0533Y034161D01*
X053354Y03409D01*
X053425Y034036D01*
X053506Y034003D01*
X053594Y033991D01*
X054106D01*
X054194Y034003D01*
X054275Y034036D01*
X054346Y03409D01*
X054373Y034126D01*
X055948D01*
X056069Y034005D01*
Y033403D01*
X056019Y033382D01*
X055927Y033474D01*
X055861Y033519D01*
X055783Y033534D01*
X054373D01*
X054346Y03357D01*
X054275Y033624D01*
X054194Y033658D01*
X054106Y033669D01*
X053594D01*
X053506Y033658D01*
X053425Y033624D01*
X053354Y03357D01*
X0533Y0335D01*
X053267Y033418D01*
X053255Y03333D01*
X053267Y033242D01*
X0533Y033161D01*
X053354Y03309D01*
X053425Y033036D01*
X053506Y033003D01*
X053594Y032991D01*
X054106D01*
X054194Y033003D01*
X054275Y033036D01*
X054346Y03309D01*
X054373Y033126D01*
X055696D01*
Y03085D01*
X055712Y030772D01*
X055756Y030706D01*
X056096Y030366D01*
Y0245D01*
X056112Y024422D01*
X056156Y024356D01*
X056325Y024187D01*
Y024164D01*
X056344Y024094D01*
X05638Y024031D01*
X056431Y02398D01*
X056494Y023944D01*
X056564Y023925D01*
X056636D01*
X056706Y023944D01*
X056769Y02398D01*
X05682Y024031D01*
X056856Y024094D01*
X056875Y024164D01*
Y024236D01*
X056856Y024306D01*
X05682Y024369D01*
X056769Y02442D01*
X056717Y02445D01*
X056728Y0245D01*
X0572D01*
Y0256D01*
X056504D01*
Y02756D01*
X056554Y027585D01*
X056598Y027551D01*
X056696Y02751D01*
X0568Y027497D01*
X056904Y02751D01*
X057002Y027551D01*
X057085Y027615D01*
X057149Y027698D01*
X05719Y027796D01*
X057203Y0279D01*
Y0282D01*
X05719Y028304D01*
X057149Y028402D01*
X057085Y028485D01*
X057002Y028549D01*
X056904Y02859D01*
X0568Y028603D01*
X056696Y02859D01*
X056598Y028549D01*
X056554Y028515D01*
X056504Y02854D01*
Y03045D01*
X056488Y030528D01*
X056444Y030594D01*
X056128Y03091D01*
X056132Y030927D01*
X056186Y030943D01*
X056369Y03076D01*
X056435Y030715D01*
X056438Y030715D01*
X056444Y030694D01*
X05648Y030631D01*
X056531Y03058D01*
X056594Y030544D01*
X056664Y030525D01*
X056736D01*
X056806Y030544D01*
X056869Y03058D01*
X05692Y030631D01*
X056956Y030694D01*
X056975Y030764D01*
Y030836D01*
X056956Y030906D01*
X05692Y030969D01*
X056889Y031D01*
X05691Y03105D01*
X05725D01*
Y03215D01*
X056477D01*
Y03409D01*
X056462Y034168D01*
X056417Y034234D01*
X056177Y034474D01*
X056111Y034519D01*
X056033Y034534D01*
X054373D01*
X054346Y03457D01*
X054275Y034624D01*
X054194Y034658D01*
X054106Y034669D01*
D02*
G37*
G36*
X044106Y033669D02*
X043594D01*
X043506Y033658D01*
X043425Y033624D01*
X043354Y03357D01*
X0433Y0335D01*
X043267Y033418D01*
X043255Y03333D01*
X043267Y033242D01*
X0433Y033161D01*
X043354Y03309D01*
X043425Y033036D01*
X043506Y033003D01*
X043594Y032991D01*
X044106D01*
X044194Y033003D01*
X044275Y033036D01*
X044346Y03309D01*
X0444Y033161D01*
X044433Y033242D01*
X044445Y03333D01*
X044433Y033418D01*
X0444Y0335D01*
X044346Y03357D01*
X044275Y033624D01*
X044194Y033658D01*
X044106Y033669D01*
D02*
G37*
G36*
X065769Y03375D02*
X065631D01*
X065496Y033723D01*
X065368Y03367D01*
X065254Y033594D01*
X065156Y033496D01*
X06508Y033382D01*
X065027Y033254D01*
X065Y033119D01*
Y032981D01*
X065027Y032846D01*
X06508Y032718D01*
X065156Y032604D01*
X065254Y032506D01*
X065368Y03243D01*
X065496Y032377D01*
X065631Y03235D01*
X065769D01*
X065904Y032377D01*
X066032Y03243D01*
X066146Y032506D01*
X066244Y032604D01*
X066295Y03268D01*
X067408D01*
Y032421D01*
X068592D01*
Y033409D01*
X067408D01*
Y033285D01*
X06636D01*
X06632Y033382D01*
X066244Y033496D01*
X066146Y033594D01*
X066032Y03367D01*
X065904Y033723D01*
X065769Y03375D01*
D02*
G37*
G36*
X050663Y053695D02*
X050537D01*
X050417Y053663D01*
X050308Y0536D01*
X05022Y053512D01*
X050157Y053403D01*
X050125Y053283D01*
Y053157D01*
X050157Y053037D01*
X05022Y052928D01*
X050308Y05284D01*
X050417Y052777D01*
X050537Y052745D01*
X050546D01*
Y0328D01*
X050562Y032722D01*
X050606Y032656D01*
X051056Y032206D01*
X051122Y032162D01*
X0512Y032146D01*
X053312D01*
X053354Y03209D01*
X053425Y032036D01*
X053506Y032003D01*
X053594Y031991D01*
X054106D01*
X054194Y032003D01*
X054275Y032036D01*
X054346Y03209D01*
X0544Y032161D01*
X054433Y032242D01*
X054445Y03233D01*
X054433Y032418D01*
X0544Y0325D01*
X054346Y03257D01*
X054275Y032624D01*
X054194Y032658D01*
X054106Y032669D01*
X053594D01*
X053506Y032658D01*
X053425Y032624D01*
X053354Y03257D01*
X053342Y032554D01*
X051284D01*
X050954Y032884D01*
Y052828D01*
X050942Y05289D01*
X05098Y052928D01*
X051043Y053037D01*
X051075Y053157D01*
Y053283D01*
X051043Y053403D01*
X05098Y053512D01*
X050892Y0536D01*
X050783Y053663D01*
X050663Y053695D01*
D02*
G37*
G36*
X044106Y032669D02*
X043594D01*
X043506Y032658D01*
X043425Y032624D01*
X043354Y03257D01*
X0433Y0325D01*
X043267Y032418D01*
X043255Y03233D01*
X043267Y032242D01*
X0433Y032161D01*
X043354Y03209D01*
X043425Y032036D01*
X043506Y032003D01*
X043594Y031991D01*
X044106D01*
X044194Y032003D01*
X044275Y032036D01*
X044346Y03209D01*
X0444Y032161D01*
X044433Y032242D01*
X044445Y03233D01*
X044433Y032418D01*
X0444Y0325D01*
X044346Y03257D01*
X044275Y032624D01*
X044194Y032658D01*
X044106Y032669D01*
D02*
G37*
G36*
X0657Y031853D02*
X0608D01*
X060722Y031842D01*
X060649Y031812D01*
X060586Y031764D01*
X060133Y031311D01*
X060104Y031323D01*
X059969Y03135D01*
X059831D01*
X059696Y031323D01*
X059568Y03127D01*
X059454Y031194D01*
X059356Y031096D01*
X05928Y030982D01*
X059227Y030854D01*
X0592Y030719D01*
Y030581D01*
X059227Y030446D01*
X05928Y030318D01*
X059356Y030204D01*
X059454Y030106D01*
X059568Y03003D01*
X059696Y029977D01*
X059831Y02995D01*
X059969D01*
X060104Y029977D01*
X060232Y03003D01*
X060346Y030106D01*
X060444Y030204D01*
X06052Y030318D01*
X060573Y030446D01*
X0606Y030581D01*
Y030719D01*
X060573Y030854D01*
X060561Y030883D01*
X060925Y031247D01*
X064248D01*
X064263Y0312D01*
X064254Y031194D01*
X064156Y031096D01*
X06408Y030982D01*
X064027Y030854D01*
X064Y030719D01*
Y030581D01*
X064027Y030446D01*
X06408Y030318D01*
X064156Y030204D01*
X064254Y030106D01*
X064368Y03003D01*
X064496Y029977D01*
X064631Y02995D01*
X064769D01*
X064904Y029977D01*
X065032Y03003D01*
X065146Y030106D01*
X065244Y030204D01*
X06532Y030318D01*
X065373Y030446D01*
X0654Y030581D01*
Y030719D01*
X065373Y030854D01*
X06532Y030982D01*
X065244Y031096D01*
X065146Y031194D01*
X065137Y0312D01*
X065152Y031247D01*
X065575D01*
X066121Y030701D01*
X066121Y030701D01*
X066184Y030653D01*
X066257Y030623D01*
X066335Y030612D01*
X066335Y030612D01*
X067408D01*
Y030421D01*
X068592D01*
Y031409D01*
X067408D01*
Y031218D01*
X06646D01*
X065914Y031764D01*
X065851Y031812D01*
X065778Y031842D01*
X0657Y031853D01*
D02*
G37*
G36*
X05785Y032153D02*
X057746Y03214D01*
X057648Y032099D01*
X057565Y032035D01*
X057501Y031952D01*
X05746Y031854D01*
X057447Y03175D01*
Y03145D01*
X05746Y031346D01*
X057501Y031248D01*
X057565Y031165D01*
X057648Y031101D01*
X057746Y03106D01*
X05785Y031047D01*
X057954Y03106D01*
X058052Y031101D01*
X058135Y031165D01*
X058199Y031248D01*
X05824Y031346D01*
X058253Y03145D01*
Y03175D01*
X05824Y031854D01*
X058199Y031952D01*
X058135Y032035D01*
X058052Y032099D01*
X057954Y03214D01*
X05785Y032153D01*
D02*
G37*
G36*
X044106Y031669D02*
X043594D01*
X043506Y031658D01*
X043425Y031624D01*
X043354Y03157D01*
X0433Y0315D01*
X043267Y031418D01*
X043255Y03133D01*
X043267Y031242D01*
X0433Y031161D01*
X043354Y03109D01*
X043425Y031036D01*
X043506Y031003D01*
X043594Y030991D01*
X044106D01*
X044194Y031003D01*
X044275Y031036D01*
X044346Y03109D01*
X0444Y031161D01*
X044433Y031242D01*
X044445Y03133D01*
X044433Y031418D01*
X0444Y0315D01*
X044346Y03157D01*
X044275Y031624D01*
X044194Y031658D01*
X044106Y031669D01*
D02*
G37*
G36*
Y030669D02*
X043594D01*
X043506Y030658D01*
X043425Y030624D01*
X043354Y03057D01*
X0433Y0305D01*
X043267Y030418D01*
X043255Y03033D01*
X043267Y030242D01*
X0433Y030161D01*
X043354Y03009D01*
X043425Y030036D01*
X043506Y030003D01*
X043594Y029991D01*
X044106D01*
X044194Y030003D01*
X044275Y030036D01*
X044346Y03009D01*
X0444Y030161D01*
X044433Y030242D01*
X044445Y03033D01*
X044433Y030418D01*
X0444Y0305D01*
X044346Y03057D01*
X044275Y030624D01*
X044194Y030658D01*
X044106Y030669D01*
D02*
G37*
G36*
X055237Y029935D02*
Y029713D01*
X055458D01*
X055443Y029769D01*
X055407Y029832D01*
X055356Y029883D01*
X055293Y02992D01*
X055237Y029935D01*
D02*
G37*
G36*
X055137D02*
X055081Y02992D01*
X055018Y029883D01*
X054967Y029832D01*
X05493Y029769D01*
X054915Y029713D01*
X055137D01*
Y029935D01*
D02*
G37*
G36*
X055458Y029613D02*
X055237D01*
Y029392D01*
X055293Y029407D01*
X055356Y029443D01*
X055407Y029494D01*
X055443Y029557D01*
X055458Y029613D01*
D02*
G37*
G36*
X055137D02*
X054915D01*
X05493Y029557D01*
X054967Y029494D01*
X055018Y029443D01*
X055081Y029407D01*
X055137Y029392D01*
Y029613D01*
D02*
G37*
G36*
X044106Y029669D02*
X043594D01*
X043506Y029658D01*
X043425Y029624D01*
X043354Y02957D01*
X0433Y0295D01*
X043267Y029418D01*
X043255Y02933D01*
X043267Y029242D01*
X0433Y029161D01*
X043354Y02909D01*
X043425Y029036D01*
X043506Y029003D01*
X043594Y028991D01*
X044106D01*
X044194Y029003D01*
X044275Y029036D01*
X044346Y02909D01*
X0444Y029161D01*
X044433Y029242D01*
X044445Y02933D01*
X044433Y029418D01*
X0444Y0295D01*
X044346Y02957D01*
X044275Y029624D01*
X044194Y029658D01*
X044106Y029669D01*
D02*
G37*
G36*
X0424Y029103D02*
X042282Y029091D01*
X042169Y029057D01*
X042065Y029001D01*
X041974Y028926D01*
X041899Y028835D01*
X041843Y028731D01*
X041834Y028703D01*
X040966D01*
X040957Y028731D01*
X040901Y028835D01*
X040826Y028926D01*
X040735Y029001D01*
X040631Y029057D01*
X040518Y029091D01*
X0404Y029103D01*
X040282Y029091D01*
X040169Y029057D01*
X040065Y029001D01*
X039974Y028926D01*
X039899Y028835D01*
X039843Y028731D01*
X039809Y028618D01*
X039797Y0285D01*
Y0283D01*
X039809Y028182D01*
X039843Y028069D01*
X039899Y027965D01*
X039974Y027874D01*
X040065Y027799D01*
X040169Y027743D01*
X040282Y027709D01*
X0404Y027697D01*
X040518Y027709D01*
X040631Y027743D01*
X040735Y027799D01*
X040826Y027874D01*
X040901Y027965D01*
X040957Y028069D01*
X040966Y028097D01*
X041834D01*
X041843Y028069D01*
X041899Y027965D01*
X041974Y027874D01*
X041997Y027854D01*
Y02475D01*
X041936D01*
X04181Y024725D01*
X041692Y024676D01*
X041586Y024605D01*
X041495Y024514D01*
X041424Y024408D01*
X041375Y02429D01*
X04135Y024164D01*
Y024036D01*
X041375Y02391D01*
X041424Y023792D01*
X041495Y023686D01*
X041586Y023595D01*
X041692Y023524D01*
X04181Y023475D01*
X041936Y02345D01*
X042064D01*
X04219Y023475D01*
X042308Y023524D01*
X042414Y023595D01*
X042505Y023686D01*
X042576Y023792D01*
X042625Y02391D01*
X04265Y024036D01*
Y024164D01*
X042625Y02429D01*
X042576Y024408D01*
X042559Y024434D01*
X042562Y024438D01*
X042592Y024511D01*
X042603Y024589D01*
Y027734D01*
X042631Y027743D01*
X042735Y027799D01*
X042826Y027874D01*
X042901Y027965D01*
X042957Y028069D01*
X042991Y028182D01*
X043003Y0283D01*
Y0285D01*
X042991Y028618D01*
X042957Y028731D01*
X042901Y028835D01*
X042826Y028926D01*
X042735Y029001D01*
X042631Y029057D01*
X042518Y029091D01*
X0424Y029103D01*
D02*
G37*
G36*
X037264Y031581D02*
X036474D01*
Y031218D01*
X035736Y030481D01*
X035688Y030418D01*
X035658Y030345D01*
X035647Y030267D01*
Y029045D01*
X035565Y029001D01*
X035474Y028926D01*
X035399Y028835D01*
X035343Y028731D01*
X035334Y028703D01*
X034466D01*
X034457Y028731D01*
X034401Y028835D01*
X034326Y028926D01*
X034235Y029001D01*
X034131Y029057D01*
X034018Y029091D01*
X0339Y029103D01*
X033782Y029091D01*
X033669Y029057D01*
X033565Y029001D01*
X033474Y028926D01*
X033399Y028835D01*
X033343Y028731D01*
X033309Y028618D01*
X033297Y0285D01*
Y0283D01*
X033309Y028182D01*
X033343Y028069D01*
X033399Y027965D01*
X033474Y027874D01*
X033565Y027799D01*
X033669Y027743D01*
X033782Y027709D01*
X0339Y027697D01*
X034018Y027709D01*
X034131Y027743D01*
X034235Y027799D01*
X034326Y027874D01*
X034401Y027965D01*
X034457Y028069D01*
X034466Y028097D01*
X035334D01*
X035343Y028069D01*
X035399Y027965D01*
X035474Y027874D01*
X035565Y027799D01*
X035669Y027743D01*
X035782Y027709D01*
X0359Y027697D01*
X036018Y027709D01*
X036131Y027743D01*
X036235Y027799D01*
X036326Y027874D01*
X036401Y027965D01*
X036457Y028069D01*
X036466Y028097D01*
X03784D01*
X037897Y02804D01*
Y026354D01*
X037696D01*
Y025446D01*
X03784D01*
Y024223D01*
X037789Y024173D01*
X037724Y02406D01*
X037691Y023935D01*
Y023805D01*
X037724Y023679D01*
X037789Y023567D01*
X037881Y023475D01*
X037994Y02341D01*
X038119Y023376D01*
X038249D01*
X038375Y02341D01*
X038487Y023475D01*
X038579Y023567D01*
X038644Y023679D01*
X038678Y023805D01*
Y023935D01*
X038644Y02406D01*
X038579Y024173D01*
X038487Y024265D01*
X038445Y02429D01*
Y025446D01*
X038604D01*
Y026354D01*
X038503D01*
Y028166D01*
X038492Y028244D01*
X038462Y028317D01*
X038414Y02838D01*
X038414Y02838D01*
X03818Y028614D01*
X038117Y028662D01*
X038044Y028692D01*
X037966Y028703D01*
X036466D01*
X036457Y028731D01*
X036401Y028835D01*
X036326Y028926D01*
X036253Y028987D01*
Y030142D01*
X036902Y030791D01*
X037264D01*
Y031581D01*
D02*
G37*
G36*
X064769Y029585D02*
X064631D01*
X064496Y029558D01*
X064368Y029505D01*
X064254Y029429D01*
X064156Y029331D01*
X06408Y029217D01*
X064027Y029089D01*
X064Y028954D01*
Y028816D01*
X064027Y028681D01*
X06408Y028553D01*
X064156Y028439D01*
X064254Y028341D01*
X064263Y028335D01*
X064248Y028288D01*
X060925D01*
X060561Y028652D01*
X060573Y028681D01*
X0606Y028816D01*
Y028954D01*
X060573Y029089D01*
X06052Y029217D01*
X060444Y029331D01*
X060346Y029429D01*
X060232Y029505D01*
X060104Y029558D01*
X059969Y029585D01*
X059831D01*
X059696Y029558D01*
X059568Y029505D01*
X059454Y029429D01*
X059356Y029331D01*
X05928Y029217D01*
X059227Y029089D01*
X0592Y028954D01*
Y028816D01*
X059227Y028681D01*
X05928Y028553D01*
X059356Y028439D01*
X059454Y028341D01*
X059568Y028265D01*
X059696Y028212D01*
X059831Y028185D01*
X059969D01*
X060104Y028212D01*
X060133Y028224D01*
X060586Y027771D01*
X060649Y027723D01*
X060722Y027693D01*
X0608Y027682D01*
X065838D01*
X065916Y027693D01*
X065989Y027723D01*
X066052Y027771D01*
X066323Y028042D01*
X067408D01*
Y027851D01*
X068592D01*
Y028839D01*
X067408D01*
Y028648D01*
X066198D01*
X066119Y028637D01*
X066046Y028607D01*
X065984Y028559D01*
X065712Y028288D01*
X065152D01*
X065137Y028335D01*
X065146Y028341D01*
X065244Y028439D01*
X06532Y028553D01*
X065373Y028681D01*
X0654Y028816D01*
Y028954D01*
X065373Y029089D01*
X06532Y029217D01*
X065244Y029331D01*
X065146Y029429D01*
X065032Y029505D01*
X064904Y029558D01*
X064769Y029585D01*
D02*
G37*
G36*
X044106Y028669D02*
X043594D01*
X043506Y028658D01*
X043425Y028624D01*
X043354Y02857D01*
X0433Y0285D01*
X043267Y028418D01*
X043255Y02833D01*
X043267Y028242D01*
X0433Y028161D01*
X043354Y02809D01*
X043425Y028036D01*
X043506Y028003D01*
X043594Y027991D01*
X044106D01*
X044194Y028003D01*
X044275Y028036D01*
X044346Y02809D01*
X0444Y028161D01*
X044433Y028242D01*
X044445Y02833D01*
X044433Y028418D01*
X0444Y0285D01*
X044346Y02857D01*
X044275Y028624D01*
X044194Y028658D01*
X044106Y028669D01*
D02*
G37*
G36*
X0578Y028603D02*
X057696Y02859D01*
X057598Y028549D01*
X057515Y028485D01*
X057451Y028402D01*
X05741Y028304D01*
X057397Y0282D01*
Y0279D01*
X05741Y027796D01*
X057451Y027698D01*
X057515Y027615D01*
X057598Y027551D01*
X057696Y02751D01*
X0578Y027497D01*
X057904Y02751D01*
X058002Y027551D01*
X058085Y027615D01*
X058149Y027698D01*
X05819Y027796D01*
X058203Y0279D01*
Y0282D01*
X05819Y028304D01*
X058149Y028402D01*
X058085Y028485D01*
X058002Y028549D01*
X057904Y02859D01*
X0578Y028603D01*
D02*
G37*
G36*
X054106Y027669D02*
X053594D01*
X053506Y027658D01*
X053425Y027624D01*
X053354Y02757D01*
X0533Y0275D01*
X053267Y027418D01*
X053255Y02733D01*
X053267Y027242D01*
X0533Y027161D01*
X053354Y02709D01*
X053425Y027036D01*
X053506Y027003D01*
X053594Y026991D01*
X054106D01*
X054194Y027003D01*
X054275Y027036D01*
X054346Y02709D01*
X0544Y027161D01*
X054433Y027242D01*
X054445Y02733D01*
X054433Y027418D01*
X0544Y0275D01*
X054346Y02757D01*
X054275Y027624D01*
X054194Y027658D01*
X054106Y027669D01*
D02*
G37*
G36*
X044106D02*
X043594D01*
X043506Y027658D01*
X043425Y027624D01*
X043354Y02757D01*
X0433Y0275D01*
X043267Y027418D01*
X043255Y02733D01*
X043267Y027242D01*
X0433Y027161D01*
X043354Y02709D01*
X043425Y027036D01*
X043506Y027003D01*
X043594Y026991D01*
X044106D01*
X044194Y027003D01*
X044275Y027036D01*
X044346Y02709D01*
X0444Y027161D01*
X044433Y027242D01*
X044445Y02733D01*
X044433Y027418D01*
X0444Y0275D01*
X044346Y02757D01*
X044275Y027624D01*
X044194Y027658D01*
X044106Y027669D01*
D02*
G37*
G36*
Y026669D02*
X0439D01*
Y02638D01*
X044438D01*
X044433Y026418D01*
X0444Y0265D01*
X044346Y02657D01*
X044275Y026624D01*
X044194Y026658D01*
X044106Y026669D01*
D02*
G37*
G36*
X0438D02*
X043594D01*
X043506Y026658D01*
X043425Y026624D01*
X043354Y02657D01*
X0433Y0265D01*
X043267Y026418D01*
X043262Y02638D01*
X0438D01*
Y026669D01*
D02*
G37*
G36*
X054106D02*
X053594D01*
X053506Y026658D01*
X053425Y026624D01*
X053354Y02657D01*
X0533Y0265D01*
X053267Y026418D01*
X053255Y02633D01*
X053267Y026242D01*
X0533Y026161D01*
X053354Y02609D01*
X053425Y026036D01*
X053506Y026003D01*
X053594Y025991D01*
X054106D01*
X054194Y026003D01*
X054275Y026036D01*
X054346Y02609D01*
X0544Y026161D01*
X054433Y026242D01*
X054445Y02633D01*
X054433Y026418D01*
X0544Y0265D01*
X054346Y02657D01*
X054275Y026624D01*
X054194Y026658D01*
X054106Y026669D01*
D02*
G37*
G36*
X044438Y02628D02*
X0439D01*
Y025991D01*
X044106D01*
X044194Y026003D01*
X044275Y026036D01*
X044346Y02609D01*
X0444Y026161D01*
X044433Y026242D01*
X044438Y02628D01*
D02*
G37*
G36*
X0438D02*
X043262D01*
X043267Y026242D01*
X0433Y026161D01*
X043354Y02609D01*
X043425Y026036D01*
X043506Y026003D01*
X043594Y025991D01*
X0438D01*
Y02628D01*
D02*
G37*
G36*
X065769Y027185D02*
X065631D01*
X065496Y027158D01*
X065368Y027105D01*
X065254Y027029D01*
X065156Y026931D01*
X06508Y026817D01*
X065027Y026689D01*
X065Y026554D01*
Y026416D01*
X065027Y026281D01*
X06508Y026153D01*
X065156Y026039D01*
X065254Y025941D01*
X065368Y025865D01*
X065496Y025812D01*
X065631Y025785D01*
X065769D01*
X065904Y025812D01*
X066032Y025865D01*
X066146Y025941D01*
X066244Y026039D01*
X066295Y026115D01*
X067408D01*
Y025856D01*
X068592D01*
Y026844D01*
X067408D01*
Y02672D01*
X06636D01*
X06632Y026817D01*
X066244Y026931D01*
X066146Y027029D01*
X066032Y027105D01*
X065904Y027158D01*
X065769Y027185D01*
D02*
G37*
G36*
X054106Y025669D02*
X053594D01*
X053506Y025658D01*
X053425Y025624D01*
X053354Y02557D01*
X0533Y0255D01*
X053267Y025418D01*
X053255Y02533D01*
X053267Y025242D01*
X0533Y025161D01*
X053354Y02509D01*
X053425Y025036D01*
X053506Y025003D01*
X053594Y024991D01*
X054106D01*
X054194Y025003D01*
X054275Y025036D01*
X054346Y02509D01*
X0544Y025161D01*
X054433Y025242D01*
X054445Y02533D01*
X054433Y025418D01*
X0544Y0255D01*
X054346Y02557D01*
X054275Y025624D01*
X054194Y025658D01*
X054106Y025669D01*
D02*
G37*
G36*
X044106D02*
X043594D01*
X043506Y025658D01*
X043425Y025624D01*
X043354Y02557D01*
X0433Y0255D01*
X043267Y025418D01*
X043255Y02533D01*
X043267Y025242D01*
X0433Y025161D01*
X043354Y02509D01*
X043425Y025036D01*
X043506Y025003D01*
X043594Y024991D01*
X044106D01*
X044194Y025003D01*
X044275Y025036D01*
X044346Y02509D01*
X0444Y025161D01*
X044433Y025242D01*
X044445Y02533D01*
X044433Y025418D01*
X0444Y0255D01*
X044346Y02557D01*
X044275Y025624D01*
X044194Y025658D01*
X044106Y025669D01*
D02*
G37*
G36*
X0657Y025288D02*
X0608D01*
X060722Y025277D01*
X060649Y025247D01*
X060586Y025199D01*
X060133Y024746D01*
X060104Y024758D01*
X059969Y024785D01*
X059831D01*
X059696Y024758D01*
X059568Y024705D01*
X059454Y024629D01*
X059356Y024531D01*
X05928Y024417D01*
X059227Y024289D01*
X0592Y024154D01*
Y024016D01*
X059227Y023881D01*
X05928Y023753D01*
X059356Y023639D01*
X059454Y023541D01*
X059568Y023465D01*
X059696Y023412D01*
X059831Y023385D01*
X059969D01*
X060104Y023412D01*
X060232Y023465D01*
X060346Y023541D01*
X060444Y023639D01*
X06052Y023753D01*
X060573Y023881D01*
X0606Y024016D01*
Y024154D01*
X060573Y024289D01*
X060561Y024318D01*
X060925Y024682D01*
X064248D01*
X064263Y024635D01*
X064254Y024629D01*
X064156Y024531D01*
X06408Y024417D01*
X064027Y024289D01*
X064Y024154D01*
Y024016D01*
X064027Y023881D01*
X06408Y023753D01*
X064156Y023639D01*
X064254Y023541D01*
X064368Y023465D01*
X064496Y023412D01*
X064631Y023385D01*
X064769D01*
X064904Y023412D01*
X065032Y023465D01*
X065146Y023541D01*
X065244Y023639D01*
X06532Y023753D01*
X065373Y023881D01*
X0654Y024016D01*
Y024154D01*
X065373Y024289D01*
X06532Y024417D01*
X065244Y024531D01*
X065146Y024629D01*
X065137Y024635D01*
X065152Y024682D01*
X065575D01*
X066121Y024136D01*
X066121Y024136D01*
X066184Y024088D01*
X066257Y024058D01*
X066335Y024047D01*
X066335Y024047D01*
X067408D01*
Y023856D01*
X068592D01*
Y024844D01*
X067408D01*
Y024653D01*
X06646D01*
X065914Y025199D01*
X065851Y025247D01*
X065778Y025277D01*
X0657Y025288D01*
D02*
G37*
G36*
X0578Y025603D02*
X057696Y02559D01*
X057598Y025549D01*
X057515Y025485D01*
X057451Y025402D01*
X05741Y025304D01*
X057397Y0252D01*
Y0249D01*
X05741Y024796D01*
X057451Y024698D01*
X057515Y024615D01*
X057598Y024551D01*
X057696Y02451D01*
X0578Y024497D01*
X057904Y02451D01*
X058002Y024551D01*
X058085Y024615D01*
X058149Y024698D01*
X05819Y024796D01*
X058203Y0249D01*
Y0252D01*
X05819Y025304D01*
X058149Y025402D01*
X058085Y025485D01*
X058002Y025549D01*
X057904Y02559D01*
X0578Y025603D01*
D02*
G37*
G36*
X039283Y031581D02*
X039179D01*
X039079Y031554D01*
X038988Y031502D01*
X038915Y031429D01*
X038863Y031338D01*
X038836Y031238D01*
Y031134D01*
X038863Y031033D01*
X038897Y030973D01*
Y025139D01*
X038908Y02506D01*
X038938Y024987D01*
X038986Y024925D01*
X03942Y024491D01*
X039443Y024436D01*
X039424Y024408D01*
X039375Y02429D01*
X03935Y024164D01*
Y024036D01*
X039375Y02391D01*
X039424Y023792D01*
X039495Y023686D01*
X039586Y023595D01*
X039692Y023524D01*
X03981Y023475D01*
X039936Y02345D01*
X040064D01*
X04019Y023475D01*
X040308Y023524D01*
X040414Y023595D01*
X040505Y023686D01*
X040576Y023792D01*
X040625Y02391D01*
X04065Y024036D01*
Y024164D01*
X040625Y02429D01*
X040576Y024408D01*
X040505Y024514D01*
X040414Y024605D01*
X040308Y024676D01*
X04019Y024725D01*
X040064Y02475D01*
X039982D01*
X039968Y024784D01*
X03992Y024846D01*
X03992Y024846D01*
X039503Y025264D01*
Y030898D01*
X039547Y030943D01*
X039599Y031033D01*
X039626Y031134D01*
Y031238D01*
X039599Y031338D01*
X039547Y031429D01*
X039474Y031502D01*
X039384Y031554D01*
X039283Y031581D01*
D02*
G37*
G36*
X035604Y026354D02*
X034696D01*
Y025446D01*
X03484D01*
X034886Y025386D01*
X034949Y025338D01*
X035022Y025308D01*
X0351Y025297D01*
X035178Y025308D01*
X035251Y025338D01*
X035314Y025386D01*
X035374Y025446D01*
X035604D01*
Y025447D01*
X03579D01*
X035913Y025325D01*
Y024265D01*
X035913Y024265D01*
X035821Y024173D01*
X035756Y02406D01*
X035722Y023935D01*
Y023805D01*
X035756Y023679D01*
X035821Y023567D01*
X035913Y023475D01*
X036025Y02341D01*
X036151Y023376D01*
X036281D01*
X036406Y02341D01*
X036519Y023475D01*
X036611Y023567D01*
X036676Y023679D01*
X036709Y023805D01*
Y023935D01*
X036676Y02406D01*
X036611Y024173D01*
X036519Y024265D01*
X036518Y024265D01*
Y02545D01*
X036508Y025528D01*
X036478Y025601D01*
X03643Y025664D01*
X03613Y025964D01*
X036067Y026012D01*
X035994Y026042D01*
X035916Y026053D01*
X035604D01*
Y026354D01*
D02*
G37*
G36*
X032965Y023094D02*
X032835D01*
X032709Y02306D01*
X032597Y022995D01*
X032505Y022903D01*
X03244Y022791D01*
X032406Y022665D01*
Y022535D01*
X03244Y022409D01*
X032505Y022297D01*
X032597Y022205D01*
X032709Y02214D01*
X032835Y022106D01*
X032965D01*
X033091Y02214D01*
X033203Y022205D01*
X033295Y022297D01*
X03336Y022409D01*
X033394Y022535D01*
Y022665D01*
X03336Y022791D01*
X033295Y022903D01*
X033203Y022995D01*
X033091Y02306D01*
X032965Y023094D01*
D02*
G37*
G36*
X07007Y023038D02*
X06994D01*
X069815Y023005D01*
X069702Y02294D01*
X06961Y022848D01*
X069545Y022735D01*
X069511Y02261D01*
Y02248D01*
X069545Y022354D01*
X06961Y022242D01*
X069702Y02215D01*
X069815Y022085D01*
X06994Y022051D01*
X07007D01*
X070196Y022085D01*
X070308Y02215D01*
X0704Y022242D01*
X070465Y022354D01*
X070499Y02248D01*
Y02261D01*
X070465Y022735D01*
X0704Y022848D01*
X070308Y02294D01*
X070196Y023005D01*
X07007Y023038D01*
D02*
G37*
%LPD*%
G36*
X034972Y041356D02*
X03502Y041353D01*
X035064Y041348D01*
X035105Y041341D01*
X035143Y041332D01*
X035177Y041323D01*
X035208Y041312D01*
X035236Y0413D01*
X03526Y041289D01*
X035281Y041279D01*
X035299Y041269D01*
X035314Y04126D01*
X035325Y041252D01*
X035333Y041247D01*
X035338Y041242D01*
X03534Y041241D01*
X035364Y041218D01*
X035385Y041193D01*
X035404Y041167D01*
X035419Y04114D01*
X035432Y041113D01*
X035443Y041086D01*
X035453Y041059D01*
X03546Y041034D01*
X035466Y04101D01*
X035469Y040987D01*
X035473Y040967D01*
X035475Y04095D01*
X035476Y040935D01*
Y04093D01*
X035477Y040925D01*
Y040916D01*
X035475Y040881D01*
X035471Y040849D01*
X035465Y040819D01*
X035456Y04079D01*
X035446Y040763D01*
X035435Y040738D01*
X035423Y040715D01*
X035411Y040694D01*
X035399Y040675D01*
X035387Y040659D01*
X035376Y040644D01*
X035366Y040632D01*
X035357Y040622D01*
X035351Y040616D01*
X035347Y040612D01*
X035345Y04061D01*
X035319Y040589D01*
X035293Y040571D01*
X035264Y040555D01*
X035234Y040541D01*
X035204Y040529D01*
X035174Y04052D01*
X035145Y040511D01*
X035116Y040505D01*
X035089Y0405D01*
X035064Y040497D01*
X035042Y040494D01*
X035022Y040492D01*
X035014Y040491D01*
X035007D01*
X035D01*
X034995Y04049D01*
X03499D01*
X034987D01*
X034985D01*
X034985D01*
X034949Y040491D01*
X034915Y040494D01*
X034883Y040498D01*
X034853Y040505D01*
X034825Y040511D01*
X034799Y040519D01*
X034775Y040527D01*
X034752Y040536D01*
X034732Y040545D01*
X034714Y040553D01*
X0347Y04056D01*
X034688Y040568D01*
X034677Y040573D01*
X03467Y040578D01*
X034666Y040581D01*
X034664Y040582D01*
X034637Y040605D01*
X034613Y040631D01*
X034591Y040658D01*
X034574Y040686D01*
X034558Y040716D01*
X034546Y040745D01*
X034535Y040775D01*
X034527Y040804D01*
X03452Y040831D01*
X034516Y040857D01*
X034512Y04088D01*
X03451Y0409D01*
X034509Y040909D01*
X034508Y040917D01*
Y040923D01*
X034507Y04093D01*
Y04094D01*
X034508Y040967D01*
X03451Y040994D01*
X034514Y04102D01*
X034518Y041044D01*
X034523Y041066D01*
X034529Y041088D01*
X034536Y041106D01*
X034542Y041124D01*
X034549Y04114D01*
X034554Y041154D01*
X034561Y041165D01*
X034566Y041176D01*
X03457Y041184D01*
X034574Y041189D01*
X034576Y041193D01*
X034577Y041194D01*
X03459Y041213D01*
X034605Y04123D01*
X034622Y041246D01*
X034639Y041261D01*
X034655Y041274D01*
X034673Y041287D01*
X034689Y041298D01*
X034706Y041307D01*
X034721Y041316D01*
X034736Y041324D01*
X034749Y04133D01*
X03476Y041335D01*
X034769Y041339D01*
X034776Y041342D01*
X03478Y041343D01*
X034782Y041344D01*
X034823Y0411D01*
X034798Y041091D01*
X034777Y041082D01*
X03476Y041072D01*
X034746Y041062D01*
X034735Y041053D01*
X034727Y041046D01*
X034723Y041041D01*
X034721Y041041D01*
Y04104D01*
X034711Y041024D01*
X034703Y041008D01*
X034698Y040992D01*
X034694Y040977D01*
X034692Y040963D01*
X034691Y040953D01*
X03469Y040948D01*
Y040942D01*
X034691Y040927D01*
X034693Y040912D01*
X034696Y040898D01*
X0347Y040884D01*
X03471Y04086D01*
X034714Y040849D01*
X034721Y04084D01*
X034726Y040831D01*
X034731Y040823D01*
X034737Y040816D01*
X034741Y04081D01*
X034745Y040806D01*
X034748Y040803D01*
X03475Y040801D01*
X034751Y0408D01*
X034763Y04079D01*
X034776Y040782D01*
X034789Y040774D01*
X034803Y040767D01*
X034817Y040761D01*
X034831Y040757D01*
X034859Y04075D01*
X034872Y040747D01*
X034883Y040745D01*
X034894Y040744D01*
X034903Y040743D01*
X034911D01*
X034916Y040742D01*
X03492D01*
X034921D01*
Y041357D01*
X034972Y041356D01*
D02*
G37*
G36*
X035167Y040316D02*
X035188Y040314D01*
X035207Y040313D01*
X035224Y040312D01*
X03524Y040309D01*
X035254Y040307D01*
X035267Y040304D01*
X035278Y040301D01*
X035287Y0403D01*
X035295Y040298D01*
X035302Y040295D01*
X035306Y040294D01*
X03531Y040292D01*
X035312Y040291D01*
X035313D01*
X035342Y040276D01*
X035355Y040268D01*
X035366Y04026D01*
X035377Y040252D01*
X035387Y040242D01*
X035396Y040234D01*
X035405Y040226D01*
X035411Y040217D01*
X035417Y04021D01*
X035423Y040203D01*
X035428Y040198D01*
X03543Y040192D01*
X035433Y040189D01*
X035435Y040187D01*
Y040186D01*
X035442Y040172D01*
X035449Y040158D01*
X035459Y040129D01*
X035466Y0401D01*
X035471Y040073D01*
X035473Y040061D01*
X035475Y040049D01*
X035476Y040039D01*
Y04003D01*
X035477Y040023D01*
Y040013D01*
X035475Y039983D01*
X035471Y039956D01*
X035465Y03993D01*
X035462Y039918D01*
X035458Y039906D01*
X035454Y039897D01*
X035452Y039888D01*
X035448Y039881D01*
X035445Y039873D01*
X035443Y039869D01*
X035442Y039865D01*
X03544Y039862D01*
Y039861D01*
X035424Y039835D01*
X035406Y039811D01*
X035388Y039789D01*
X03537Y03977D01*
X035362Y03976D01*
X035354Y039753D01*
X035347Y039746D01*
X035341Y039741D01*
X035336Y039736D01*
X035332Y039733D01*
X03533Y039731D01*
X035329Y03973D01*
X035355Y039713D01*
X035378Y039696D01*
X035396Y039678D01*
X035412Y03966D01*
X035424Y039646D01*
X035429Y039639D01*
X035433Y039634D01*
X035436Y039629D01*
X035438Y039625D01*
X03544Y039623D01*
Y039623D01*
X035452Y039597D01*
X035461Y039571D01*
X035467Y039545D01*
X035472Y039521D01*
X035474Y03951D01*
X035475Y039499D01*
X035476Y03949D01*
Y039483D01*
X035477Y039476D01*
Y039468D01*
X035475Y039438D01*
X03547Y039408D01*
X035463Y039379D01*
X035454Y039352D01*
X035442Y039327D01*
X03543Y039303D01*
X035417Y039281D01*
X035404Y039261D01*
X03539Y039242D01*
X035376Y039227D01*
X035364Y039213D01*
X035353Y039201D01*
X035343Y039191D01*
X035336Y039185D01*
X035331Y039181D01*
X03533Y039179D01*
X035456D01*
Y038954D01*
X034529D01*
Y039199D01*
X034978D01*
X035002D01*
X035025Y0392D01*
X035046Y039201D01*
X035065Y039202D01*
X035082Y039203D01*
X035097Y039205D01*
X035111Y039207D01*
X035124Y039209D01*
X035135Y03921D01*
X035145Y039212D01*
X035152Y039214D01*
X035158Y039216D01*
X035163Y039216D01*
X035167Y039217D01*
X035169Y039218D01*
X03517D01*
X03519Y039227D01*
X035207Y039237D01*
X035222Y039247D01*
X035235Y039258D01*
X035244Y039267D01*
X035252Y039276D01*
X035256Y039281D01*
X035257Y039282D01*
Y039283D01*
X035268Y039301D01*
X035276Y039318D01*
X035281Y039336D01*
X035285Y039351D01*
X035287Y039365D01*
X035288Y039371D01*
X035289Y039376D01*
Y039386D01*
X035288Y039402D01*
X035286Y039417D01*
X035282Y03943D01*
X03528Y03944D01*
X035276Y039449D01*
X035272Y039455D01*
X03527Y039459D01*
X035269Y03946D01*
X035261Y03947D01*
X035252Y039478D01*
X035243Y039485D01*
X035232Y03949D01*
X035224Y039495D01*
X035217Y039498D01*
X035212Y039499D01*
X035211Y0395D01*
X03521D01*
X035202Y039503D01*
X035192Y039505D01*
X03518Y039507D01*
X035167Y039509D01*
X035138Y039511D01*
X035108Y039512D01*
X035095Y039513D01*
X035081D01*
X035069Y039514D01*
X035059D01*
X035049D01*
X035042D01*
X035038D01*
X035036D01*
X034529D01*
Y039759D01*
X034973D01*
X034997D01*
X035019Y03976D01*
X035039Y039761D01*
X035059Y039762D01*
X035076Y039764D01*
X035091Y039766D01*
X035106Y039768D01*
X035118Y03977D01*
X035129Y039771D01*
X035139Y039772D01*
X035146Y039774D01*
X035154Y039776D01*
X035158Y039777D01*
X035162Y039778D01*
X035164Y039779D01*
X035165D01*
X035186Y039787D01*
X035206Y039797D01*
X035221Y039808D01*
X035234Y03982D01*
X035244Y039829D01*
X035252Y039837D01*
X035256Y039843D01*
X035257Y039844D01*
Y039845D01*
X035268Y039862D01*
X035276Y039879D01*
X035281Y039895D01*
X035285Y03991D01*
X035287Y039923D01*
X035289Y039933D01*
Y039942D01*
X035288Y039955D01*
X035287Y039967D01*
X035284Y039978D01*
X035281Y039988D01*
X035272Y040005D01*
X035263Y04002D01*
X035253Y040031D01*
X035244Y04004D01*
X035241Y040042D01*
X035238Y040044D01*
X035237Y040046D01*
X035236D01*
X035228Y040051D01*
X035217Y040054D01*
X035205Y040058D01*
X035191Y040061D01*
X035162Y040066D01*
X035132Y040069D01*
X035117Y04007D01*
X035103Y040071D01*
X035091D01*
X03508Y040072D01*
X035071D01*
X035064D01*
X035059D01*
X035058D01*
X034529D01*
Y040317D01*
X035121D01*
X035145D01*
X035167Y040316D01*
D02*
G37*
G36*
X035032Y038778D02*
X035069Y038774D01*
X035103Y038768D01*
X035136Y038759D01*
X035167Y038748D01*
X035195Y038737D01*
X035221Y038725D01*
X035245Y038712D01*
X035267Y038699D01*
X035285Y038687D01*
X035302Y038676D01*
X035315Y038666D01*
X035326Y038658D01*
X035333Y03865D01*
X035338Y038647D01*
X03534Y038645D01*
X035364Y038619D01*
X035385Y038591D01*
X035404Y038563D01*
X035419Y038535D01*
X035432Y038505D01*
X035443Y038476D01*
X035453Y038449D01*
X03546Y038422D01*
X035466Y038397D01*
X035469Y038374D01*
X035473Y038352D01*
X035475Y038335D01*
X035476Y03832D01*
Y038315D01*
X035477Y038309D01*
Y0383D01*
X035476Y038275D01*
X035474Y03825D01*
X035471Y038227D01*
X035467Y038204D01*
X035463Y038182D01*
X035457Y038162D01*
X035452Y038143D01*
X035446Y038125D01*
X035441Y038109D01*
X035435Y038095D01*
X035429Y038082D01*
X035425Y038072D01*
X035421Y038064D01*
X035418Y038057D01*
X035417Y038054D01*
X035416Y038053D01*
X035404Y038032D01*
X035391Y038014D01*
X035377Y037996D01*
X035363Y03798D01*
X035348Y037965D01*
X035334Y037951D01*
X035319Y037938D01*
X035306Y037926D01*
X035293Y037916D01*
X035281Y037908D01*
X035269Y0379D01*
X035259Y037894D01*
X035252Y037889D01*
X035245Y037885D01*
X035242Y037884D01*
X035241Y037883D01*
X03522Y037872D01*
X035198Y037863D01*
X035177Y037855D01*
X035156Y037847D01*
X035135Y037842D01*
X035116Y037837D01*
X035097Y037834D01*
X03508Y03783D01*
X035064Y037827D01*
X035049Y037825D01*
X035036Y037824D01*
X035026Y037823D01*
X035017Y037822D01*
X03501D01*
X035007D01*
X035005D01*
X034975Y037823D01*
X034948Y037825D01*
X034921Y037828D01*
X034895Y037832D01*
X034871Y037836D01*
X034849Y037842D01*
X034828Y037847D01*
X034809Y037853D01*
X034792Y037859D01*
X034776Y037863D01*
X034763Y037869D01*
X034753Y037873D01*
X034744Y037877D01*
X034739Y03788D01*
X034734Y037882D01*
X034733Y037883D01*
X034713Y037895D01*
X034694Y037908D01*
X034677Y037921D01*
X03466Y037935D01*
X034645Y03795D01*
X034631Y037965D01*
X034618Y037979D01*
X034607Y037993D01*
X034597Y038007D01*
X034589Y038019D01*
X034581Y03803D01*
X034576Y038039D01*
X034571Y038047D01*
X034567Y038054D01*
X034566Y038057D01*
X034565Y038058D01*
X034554Y038081D01*
X034546Y038102D01*
X034538Y038124D01*
X034531Y038145D01*
X034526Y038166D01*
X034521Y038186D01*
X034517Y038205D01*
X034515Y038223D01*
X034512Y03824D01*
X03451Y038255D01*
X034509Y038268D01*
X034508Y03828D01*
X034507Y038289D01*
Y038302D01*
X034509Y03834D01*
X034513Y038376D01*
X03452Y03841D01*
X034529Y038442D01*
X03454Y038473D01*
X034551Y0385D01*
X034564Y038526D01*
X034577Y03855D01*
X034589Y038572D01*
X034602Y03859D01*
X034613Y038606D01*
X034624Y03862D01*
X034632Y03863D01*
X03464Y038637D01*
X034643Y038642D01*
X034645Y038644D01*
X034672Y038668D01*
X0347Y038689D01*
X034729Y038707D01*
X034758Y038722D01*
X034788Y038735D01*
X034816Y038747D01*
X034845Y038756D01*
X034872Y038763D01*
X034897Y038769D01*
X03492Y038772D01*
X034941Y038776D01*
X034959Y038778D01*
X034973Y038779D01*
X03498D01*
X034985Y03878D01*
X034988D01*
X034991D01*
X034993D01*
X034994D01*
X035032Y038778D01*
D02*
G37*
G36*
X035809Y037356D02*
X035305D01*
Y036849D01*
X035809D01*
Y036591D01*
X034529D01*
Y036849D01*
X035088D01*
Y037356D01*
X034529D01*
Y037614D01*
X035809D01*
Y037356D01*
D02*
G37*
G36*
Y035944D02*
X034935Y035715D01*
X035809Y035484D01*
Y035097D01*
X034529D01*
Y035337D01*
X035536D01*
X034529Y03559D01*
Y035838D01*
X035536Y036092D01*
X034529Y036093D01*
Y036332D01*
X035809D01*
Y035944D01*
D02*
G37*
G36*
X034923Y034883D02*
X034944Y034882D01*
X034964Y034879D01*
X034984Y034875D01*
X035001Y034872D01*
X035018Y034867D01*
X035034Y034862D01*
X035047Y034858D01*
X03506Y034853D01*
X035071Y034849D01*
X035081Y034844D01*
X035089Y03484D01*
X035096Y034837D01*
X0351Y034834D01*
X035103Y034833D01*
X035104Y034832D01*
X035119Y034822D01*
X035133Y034812D01*
X035159Y034788D01*
X035171Y034776D01*
X035182Y034764D01*
X035192Y034753D01*
X0352Y034742D01*
X035208Y034731D01*
X035215Y034722D01*
X03522Y034713D01*
X035226Y034705D01*
X03523Y034699D01*
X035232Y034694D01*
X035233Y034691D01*
X035234Y03469D01*
X035244Y034673D01*
X035252Y034652D01*
X035261Y034631D01*
X035269Y034609D01*
X035285Y034563D01*
X035292Y03454D01*
X035299Y034517D01*
X035305Y034496D01*
X03531Y034477D01*
X035315Y034458D01*
X035319Y034443D01*
X035322Y03443D01*
X035325Y03442D01*
X035326Y034417D01*
Y034414D01*
X035327Y034413D01*
Y034412D01*
X035335Y034379D01*
X035343Y034347D01*
X035351Y03432D01*
X035359Y034295D01*
X035367Y034273D01*
X035374Y034254D01*
X03538Y034237D01*
X035387Y034222D01*
X035392Y03421D01*
X035397Y0342D01*
X035402Y034192D01*
X035405Y034185D01*
X035409Y03418D01*
X035411Y034177D01*
X035413Y034175D01*
Y034174D01*
X035426Y034161D01*
X035439Y034152D01*
X035452Y034146D01*
X035464Y034141D01*
X035475Y034138D01*
X035483Y034137D01*
X035489Y034136D01*
X03549D01*
X035491D01*
X0355Y034137D01*
X035508Y034138D01*
X035524Y034143D01*
X035537Y034149D01*
X035548Y034157D01*
X035557Y034164D01*
X035564Y034171D01*
X035568Y034175D01*
X035569Y034177D01*
X035577Y03419D01*
X035585Y034203D01*
X035591Y034217D01*
X035597Y034232D01*
X035605Y034261D01*
X035611Y034289D01*
X035613Y034303D01*
X035614Y034315D01*
X035614Y034326D01*
X035615Y034335D01*
X035616Y034343D01*
Y034373D01*
X035614Y034393D01*
X035613Y034409D01*
X03561Y034425D01*
X035606Y03444D01*
X035602Y034454D01*
X035599Y034466D01*
X035595Y034477D01*
X03559Y034486D01*
X035587Y034494D01*
X035583Y034502D01*
X035579Y034507D01*
X035577Y034512D01*
X035575Y034515D01*
X035574Y034517D01*
X035573Y034517D01*
X035565Y034528D01*
X035554Y034536D01*
X035532Y034552D01*
X035509Y034564D01*
X035486Y034574D01*
X035475Y034578D01*
X035465Y03458D01*
X035455Y034583D01*
X035447Y034585D01*
X035441Y034587D01*
X035436Y034588D01*
X035432Y034589D01*
X035431D01*
X035442Y034847D01*
X035475Y034844D01*
X035505Y034839D01*
X035534Y034833D01*
X035561Y034824D01*
X035586Y034814D01*
X035609Y034803D01*
X03563Y034792D01*
X035649Y03478D01*
X035666Y034768D01*
X035681Y034757D01*
X035694Y034747D01*
X035704Y034738D01*
X035713Y034729D01*
X035719Y034724D01*
X035723Y03472D01*
X035724Y034718D01*
X035742Y034694D01*
X035759Y034668D01*
X035773Y03464D01*
X035786Y034611D01*
X035796Y03458D01*
X035804Y03455D01*
X035812Y03452D01*
X035817Y034492D01*
X035821Y034464D01*
X035824Y034439D01*
X035827Y034416D01*
X035828Y034395D01*
X035829Y034386D01*
Y034379D01*
X03583Y034372D01*
Y034356D01*
X035829Y034329D01*
X035828Y034303D01*
X035826Y034278D01*
X035823Y034254D01*
X03582Y034232D01*
X035816Y034211D01*
X035812Y034192D01*
X035808Y034174D01*
X035803Y034159D01*
X035799Y034145D01*
X035795Y034133D01*
X035792Y034122D01*
X035789Y034115D01*
X035787Y034109D01*
X035786Y034105D01*
X035785Y034104D01*
X035776Y034085D01*
X035766Y034067D01*
X035756Y03405D01*
X035746Y034035D01*
X035735Y034021D01*
X035725Y034008D01*
X035713Y033996D01*
X035703Y033985D01*
X035693Y033975D01*
X035685Y033967D01*
X035676Y03396D01*
X035669Y033954D01*
X035663Y033949D01*
X035659Y033947D01*
X035656Y033945D01*
X035655Y033944D01*
X035639Y033935D01*
X035623Y033926D01*
X035607Y033919D01*
X03559Y033912D01*
X035575Y033907D01*
X03556Y033902D01*
X035545Y0339D01*
X035532Y033896D01*
X035519Y033894D01*
X035507Y033892D01*
X035497Y033891D01*
X035489Y03389D01*
X035481Y033889D01*
X035477D01*
X035473D01*
X035472D01*
X035444Y03389D01*
X035417Y033894D01*
X035392Y0339D01*
X035368Y033908D01*
X035345Y033916D01*
X035324Y033926D01*
X035305Y033937D01*
X035287Y033949D01*
X03527Y033959D01*
X035257Y03397D01*
X035244Y03398D01*
X035233Y033988D01*
X035226Y033996D01*
X03522Y034002D01*
X035216Y034006D01*
X035215Y034007D01*
X035201Y034024D01*
X035188Y034044D01*
X035175Y034065D01*
X035163Y034088D01*
X035152Y034111D01*
X035142Y034136D01*
X035133Y03416D01*
X035123Y034184D01*
X035116Y034207D01*
X035108Y034228D01*
X035102Y034247D01*
X035097Y034265D01*
X035094Y034279D01*
X035092Y034284D01*
X035091Y034289D01*
X035089Y034293D01*
Y034295D01*
X035088Y034297D01*
Y034298D01*
X035081Y034327D01*
X035074Y034354D01*
X035069Y034378D01*
X035063Y034399D01*
X035058Y034418D01*
X035053Y034435D01*
X035049Y03445D01*
X035046Y034463D01*
X035043Y034473D01*
X03504Y034482D01*
X035037Y03449D01*
X035035Y034496D01*
X035034Y0345D01*
X035034Y034504D01*
X035033Y034504D01*
Y034505D01*
X035028Y034517D01*
X035023Y034529D01*
X035014Y034548D01*
X035004Y034565D01*
X034996Y034578D01*
X034987Y034587D01*
X034982Y034593D01*
X034978Y034598D01*
X034976Y034599D01*
X034964Y034608D01*
X034951Y034615D01*
X034938Y034619D01*
X034926Y034622D01*
X034915Y034625D01*
X034907Y034626D01*
X034901D01*
X0349D01*
X034899D01*
X034887Y034625D01*
X034874Y034623D01*
X034862Y03462D01*
X03485Y034615D01*
X03483Y034605D01*
X034812Y034594D01*
X034804Y034588D01*
X034797Y034582D01*
X034791Y034577D01*
X034786Y034572D01*
X034782Y034567D01*
X034779Y034565D01*
X034777Y034563D01*
X034776Y034562D01*
X034767Y03455D01*
X034759Y034536D01*
X034752Y034521D01*
X034746Y034506D01*
X034741Y034491D01*
X034737Y034475D01*
X03473Y034444D01*
X034728Y03443D01*
X034726Y034417D01*
X034726Y034405D01*
X034725Y034394D01*
X034724Y034386D01*
Y034374D01*
X034725Y034353D01*
X034726Y034332D01*
X034729Y034313D01*
X034733Y034295D01*
X034738Y034278D01*
X034742Y034263D01*
X034748Y034248D01*
X034753Y034236D01*
X034759Y034224D01*
X034764Y034215D01*
X034769Y034206D01*
X034774Y034199D01*
X034777Y034194D01*
X03478Y03419D01*
X034782Y034187D01*
X034783Y034186D01*
X034795Y034174D01*
X034808Y034162D01*
X034822Y034152D01*
X034837Y034143D01*
X034852Y034134D01*
X034868Y034127D01*
X034899Y034114D01*
X034912Y03411D01*
X034925Y034106D01*
X034937Y034102D01*
X034948Y034099D01*
X034957Y034097D01*
X034963Y034096D01*
X034967Y034095D01*
X034969D01*
X034945Y033843D01*
X034906Y033849D01*
X034869Y033857D01*
X034835Y033866D01*
X034802Y033878D01*
X034774Y03389D01*
X034747Y033903D01*
X034722Y033916D01*
X034701Y03393D01*
X034681Y033943D01*
X034664Y033955D01*
X03465Y033967D01*
X034639Y033977D01*
X034629Y033986D01*
X034623Y033992D01*
X034618Y033996D01*
X034617Y033998D01*
X034598Y034023D01*
X03458Y034051D01*
X034566Y034081D01*
X034553Y034111D01*
X034541Y034142D01*
X034533Y034173D01*
X034526Y034204D01*
X034519Y034233D01*
X034515Y034261D01*
X034511Y034287D01*
X034509Y034311D01*
X034507Y034332D01*
X034506Y03434D01*
Y034348D01*
X034505Y034355D01*
Y034371D01*
X034506Y034402D01*
X034507Y034431D01*
X03451Y034459D01*
X034513Y034485D01*
X034516Y034509D01*
X03452Y034532D01*
X034524Y034554D01*
X034529Y034573D01*
X034533Y03459D01*
X034537Y034605D01*
X034541Y034618D01*
X034544Y034628D01*
X034547Y034638D01*
X03455Y034644D01*
X034551Y034648D01*
X034552Y034649D01*
X034561Y034669D01*
X034571Y034689D01*
X034582Y034706D01*
X034594Y034723D01*
X034605Y034739D01*
X034617Y034752D01*
X034629Y034765D01*
X03464Y034777D01*
X034652Y034788D01*
X034662Y034797D01*
X034671Y034804D01*
X034678Y034811D01*
X034685Y034815D01*
X03469Y034819D01*
X034693Y034821D01*
X034694Y034822D01*
X034713Y034833D01*
X03473Y034842D01*
X034749Y03485D01*
X034767Y034858D01*
X034785Y034863D01*
X034801Y034869D01*
X034818Y034873D01*
X034834Y034876D01*
X034848Y034878D01*
X034861Y03488D01*
X034872Y034882D01*
X034882Y034883D01*
X034889Y034884D01*
X034896D01*
X034899D01*
X0349D01*
X034923Y034883D01*
D02*
G37*
%LPC*%
G36*
X035075Y041114D02*
X035071D01*
X035071D01*
Y040745D01*
X035089D01*
X035107Y040747D01*
X035122Y04075D01*
X035138Y040753D01*
X035152Y040757D01*
X035165Y040761D01*
X035177Y040766D01*
X035188Y040771D01*
X035197Y040776D01*
X035206Y040781D01*
X035213Y040785D01*
X035219Y040789D01*
X035223Y040793D01*
X035227Y040795D01*
X035229Y040796D01*
X03523Y040797D01*
X03524Y040807D01*
X035249Y040819D01*
X035257Y040829D01*
X035264Y040841D01*
X035269Y040852D01*
X035274Y040863D01*
X035281Y040883D01*
X035284Y040893D01*
X035286Y040902D01*
X035287Y04091D01*
X035288Y040918D01*
X035289Y040923D01*
Y04093D01*
X035288Y040944D01*
X035286Y040957D01*
X035283Y04097D01*
X035281Y040982D01*
X035271Y041004D01*
X035261Y041022D01*
X035256Y04103D01*
X03525Y041038D01*
X035245Y041043D01*
X035242Y041049D01*
X035238Y041053D01*
X035235Y041055D01*
X035233Y041057D01*
X035232Y041058D01*
X035221Y041067D01*
X035209Y041076D01*
X035197Y041083D01*
X035183Y041089D01*
X035157Y041099D01*
X035131Y041105D01*
X035119Y041108D01*
X035108Y04111D01*
X035097Y041112D01*
X035088Y041113D01*
X035081D01*
X035075Y041114D01*
D02*
G37*
G36*
X035006Y038527D02*
X034999D01*
X034995D01*
X034993D01*
X034968Y038526D01*
X034944Y038525D01*
X034922Y038521D01*
X0349Y038517D01*
X034882Y038513D01*
X034864Y038507D01*
X034849Y0385D01*
X034834Y038495D01*
X034822Y038488D01*
X034811Y038482D01*
X034801Y038476D01*
X034794Y038472D01*
X034788Y038468D01*
X034784Y038464D01*
X034781Y038463D01*
X03478Y038462D01*
X034767Y03845D01*
X034756Y038436D01*
X034746Y038423D01*
X034738Y038409D01*
X034731Y038396D01*
X034725Y038382D01*
X03472Y038369D01*
X034716Y038357D01*
X034714Y038345D01*
X034711Y038335D01*
X034709Y038325D01*
X034708Y038316D01*
Y03831D01*
X034707Y038305D01*
Y038301D01*
X034708Y038283D01*
X03471Y038266D01*
X034714Y03825D01*
X034718Y038235D01*
X034724Y03822D01*
X03473Y038207D01*
X034737Y038195D01*
X034744Y038184D01*
X034751Y038174D01*
X034757Y038165D01*
X034763Y038157D01*
X034769Y038151D01*
X034774Y038145D01*
X034777Y038142D01*
X034779Y03814D01*
X03478Y038139D01*
X034795Y038128D01*
X034811Y038118D01*
X034827Y038109D01*
X034844Y038102D01*
X034862Y038095D01*
X034879Y03809D01*
X034897Y038085D01*
X034913Y038082D01*
X034929Y03808D01*
X034944Y038078D01*
X034958Y038076D01*
X034969Y038075D01*
X034979Y038074D01*
X034985D01*
X03499D01*
X034992D01*
X035017Y038075D01*
X035041Y038077D01*
X035062Y03808D01*
X035084Y038084D01*
X035102Y038089D01*
X03512Y038094D01*
X035135Y038101D01*
X035149Y038106D01*
X035161Y038113D01*
X035172Y038118D01*
X035182Y038124D01*
X035189Y038129D01*
X035195Y038133D01*
X035199Y038136D01*
X035202Y038138D01*
X035203Y038139D01*
X035216Y038152D01*
X035227Y038165D01*
X035237Y038179D01*
X035245Y038192D01*
X035253Y038205D01*
X035259Y038219D01*
X035264Y038232D01*
X035268Y038244D01*
X03527Y038256D01*
X035273Y038266D01*
X035275Y038277D01*
X035276Y038285D01*
X035277Y038291D01*
Y038301D01*
X035276Y038318D01*
X035274Y038335D01*
X03527Y038352D01*
X035266Y038366D01*
X035259Y03838D01*
X035254Y038394D01*
X035246Y038406D01*
X03524Y038417D01*
X035233Y038427D01*
X035226Y038436D01*
X03522Y038444D01*
X035215Y03845D01*
X035209Y038455D01*
X035206Y038459D01*
X035204Y038461D01*
X035203Y038462D01*
X035188Y038474D01*
X035173Y038483D01*
X035157Y038492D01*
X035139Y0385D01*
X035121Y038506D01*
X035104Y038512D01*
X035087Y038515D01*
X035071Y038519D01*
X035055Y038522D01*
X03504Y038524D01*
X035027Y038525D01*
X035015Y038526D01*
X035006Y038527D01*
D02*
G37*
%LPD*%
D27*
X05268Y04333D02*
X05385D01*
X05265Y0433D02*
X05268Y04333D01*
X05385Y04233D02*
X055983D01*
X0561Y042447D01*
X053798Y042382D02*
X05385Y04233D01*
X0561Y042447D02*
Y049103D01*
X04385Y03033D02*
X044106D01*
X044636Y0298D01*
X04545D01*
X04525Y02785D02*
X054633D01*
X04495Y02755D02*
X04525Y02785D01*
X05475Y027967D02*
Y02978D01*
X054633Y02785D02*
X05475Y027967D01*
X04495Y026447D02*
Y02755D01*
X044833Y02633D02*
X04495Y026447D01*
X04385Y02633D02*
X044833D01*
X05235Y032934D02*
Y0358D01*
X054903D01*
X05235D02*
Y0489D01*
X052467Y032816D02*
X054566D01*
X05235Y032934D02*
X052467Y032816D01*
X05475Y02978D02*
X054867Y029663D01*
X05475Y02978D02*
Y032633D01*
X054867Y029663D02*
X055187D01*
X054566Y032816D02*
X05475Y032633D01*
X05235Y0489D02*
X052467Y049017D01*
X053117D01*
X05315Y04905D01*
X055122Y036019D02*
X055163D01*
X054903Y0358D02*
X055122Y036019D01*
X05605Y036517D02*
Y04175D01*
X053902Y036382D02*
X054342D01*
X054359Y0364D02*
X055933D01*
X05385Y03633D02*
X053902Y036382D01*
X055933Y0364D02*
X05605Y036517D01*
X054342Y036382D02*
X054359Y0364D01*
X05385Y03533D02*
X056501D01*
X056618Y035447D01*
X05385Y03533D02*
X05385Y03533D01*
X04285Y035499D02*
Y04705D01*
X042967Y035382D02*
X043798D01*
X04285Y035499D02*
X042967Y035382D01*
X043865Y037315D02*
X046385D01*
X0464Y0373D01*
X04385Y03733D02*
X043865Y037315D01*
X050705Y052873D02*
Y053115D01*
X05075Y0328D02*
X0512Y03235D01*
X0506Y05322D02*
X050705Y053115D01*
X05075Y0328D02*
Y052828D01*
X050705Y052873D02*
X05075Y052828D01*
X05383Y03235D02*
X05385Y03233D01*
X0512Y03235D02*
X05383D01*
X043798Y039382D02*
X04385Y03933D01*
X043798Y035382D02*
X04385Y03533D01*
X05315Y05005D02*
Y050061D01*
X056828Y053739D02*
Y0539D01*
X056273Y031144D02*
Y03409D01*
X0559Y03085D02*
Y033213D01*
X055783Y03333D02*
X0559Y033213D01*
X056033Y03433D02*
X056273Y03409D01*
X05385Y03433D02*
X056033D01*
X05385Y03333D02*
X055783D01*
X056618Y035447D02*
Y0362D01*
X0559Y03085D02*
X0563Y03045D01*
Y0245D02*
Y03045D01*
X056556Y030904D02*
X056659Y0308D01*
X0567D01*
X056513Y030904D02*
X056556D01*
X056273Y031144D02*
X056513Y030904D01*
X0563Y0245D02*
X0566Y0242D01*
X0561Y049103D02*
X056217Y04922D01*
X05663D01*
X05605Y04175D02*
X056618Y042318D01*
Y04275D01*
D52*
X04531Y04776D02*
X0456Y04805D01*
X04625D01*
X04531Y03864D02*
Y04776D01*
X044574Y03933D02*
X04475Y039506D01*
Y04775D01*
X04385Y03933D02*
X044574D01*
X04455Y04795D02*
X04475Y04775D01*
X04445Y04805D02*
X04455Y04795D01*
X04285Y04805D02*
X04445D01*
X044999Y03833D02*
X04531Y03864D01*
X04385Y03833D02*
X044999D01*
D53*
X0333Y0485D02*
X03445D01*
X0329Y0481D02*
X0333Y0485D01*
X0359Y0284D02*
X03595Y02845D01*
Y030267D01*
X036869Y031186D01*
X0359Y0284D02*
X037966D01*
X0381Y0256D02*
Y0259D01*
X0382Y02595D02*
Y028166D01*
X037966Y0284D02*
X0382Y028166D01*
X03815Y0259D02*
X0382Y02595D01*
X042Y024289D02*
X0423Y024589D01*
X042Y0241D02*
Y024289D01*
X0423Y024589D02*
Y0283D01*
X0424Y0284D01*
X047Y03135D02*
Y050516D01*
Y03135D02*
X05002Y02833D01*
X046766Y05075D02*
X047Y050516D01*
X047416Y05145D02*
X04765Y051216D01*
X044889Y0521D02*
X048066D01*
X04765Y031864D02*
Y051216D01*
X048945Y046271D02*
X048961Y046254D01*
X040794Y05145D02*
X047416D01*
X036629Y05075D02*
X046766D01*
X048945Y046271D02*
Y05322D01*
X0483Y0325D02*
Y051866D01*
X048066Y0521D02*
X0483Y051866D01*
X04765Y031864D02*
X04995Y029564D01*
X0483Y0325D02*
X05047Y03033D01*
X048961Y033089D02*
Y046254D01*
Y033089D02*
X05072Y03133D01*
X03595Y044648D02*
Y0485D01*
X036184Y044414D02*
X041593D01*
X03595Y044648D02*
X036184Y044414D01*
X044655Y052334D02*
X044889Y0521D01*
X044655Y052334D02*
Y05322D01*
X04056Y051684D02*
Y05322D01*
Y051684D02*
X040794Y05145D01*
X036395Y050984D02*
Y05322D01*
Y050984D02*
X036629Y05075D01*
X05072Y03133D02*
X05385D01*
X05002Y02833D02*
X05385D01*
X05047Y03033D02*
X05385D01*
X04995Y029564D02*
Y029564D01*
Y029564D02*
X050184Y02933D01*
X05385D01*
X05315Y05005D02*
X053866D01*
X0541Y050284D01*
Y052616D01*
X054334Y05285D01*
X056616D01*
X05685Y053084D02*
Y053878D01*
X056616Y05285D02*
X05685Y053084D01*
X056828Y0539D02*
X05685Y053878D01*
X0339Y0284D02*
X0359D01*
X0392Y031155D02*
X039231Y031186D01*
X039706Y024583D02*
X04Y024289D01*
X039706Y024583D02*
Y024632D01*
X0392Y025139D02*
X039706Y024632D01*
X0392Y025139D02*
Y031155D01*
X04Y02425D02*
Y024289D01*
X036216Y02387D02*
Y02545D01*
X035916Y02575D02*
X036216Y02545D01*
X03525Y02575D02*
X035916D01*
X0351Y0256D02*
X03525Y02575D01*
X038142Y023912D02*
X038184Y02387D01*
X0381Y0256D02*
X038142Y025558D01*
Y023912D02*
Y025558D01*
X0404Y0284D02*
X0424D01*
X0608Y047585D02*
X065838D01*
X0599Y048485D02*
X0608Y047585D01*
X065838D02*
X066198Y047945D01*
X065767Y026418D02*
X067933D01*
X0657Y026485D02*
X065767Y026418D01*
X067933D02*
X068Y02635D01*
X066335Y02435D02*
X068D01*
X0657Y024985D02*
X066335Y02435D01*
X0608Y024985D02*
X0657D01*
X0599Y024085D02*
X0608Y024985D01*
Y027985D02*
X065838D01*
X066198Y028345D02*
X068D01*
X065838Y027985D02*
X066198Y028345D01*
X0599Y028885D02*
X0608Y027985D01*
X0657Y03305D02*
X065767Y032982D01*
X067933D02*
X068Y032915D01*
X065767Y032982D02*
X067933D01*
X066335Y030915D02*
X068D01*
X0657Y03155D02*
X066335Y030915D01*
X0608Y03155D02*
X0657D01*
X0599Y03065D02*
X0608Y03155D01*
X0599Y03545D02*
X0608Y03455D01*
X066198Y03491D02*
X068D01*
X065838Y03455D02*
X066198Y03491D01*
X0608Y03455D02*
X065838D01*
X065767Y039518D02*
X067933D01*
X0657Y039585D02*
X065767Y039518D01*
X067933D02*
X068Y03945D01*
X0608Y038085D02*
X0657D01*
X066335Y03745D02*
X068D01*
X0657Y038085D02*
X066335Y03745D01*
X0599Y037185D02*
X0608Y038085D01*
Y041085D02*
X065838D01*
X066198Y041445D02*
X068D01*
X065838Y041085D02*
X066198Y041445D01*
X0599Y041985D02*
X0608Y041085D01*
X065767Y046017D02*
X067933D01*
X0657Y046085D02*
X065767Y046017D01*
X067933D02*
X068Y04595D01*
X0657Y044585D02*
X066335Y04395D01*
X0599Y043685D02*
X0608Y044585D01*
X066335Y04395D02*
X068D01*
X0608Y044585D02*
X0657D01*
X066198Y047945D02*
X068D01*
X0657Y05105D02*
X066335Y050415D01*
X0599Y05015D02*
X0608Y05105D01*
X066335Y050415D02*
X068D01*
X0608Y05105D02*
X0657D01*
X0599Y05495D02*
X0608Y05405D01*
X066198Y05441D02*
X068D01*
X065838Y05405D02*
X066198Y05441D01*
X0608Y05405D02*
X065838D01*
X065767Y052483D02*
X067933D01*
X0657Y05255D02*
X065767Y052483D01*
X067933D02*
X068Y052415D01*
D54*
X070005Y022545D02*
D03*
X03285Y0562D02*
D03*
X070005Y056195D02*
D03*
X0329Y0226D02*
D03*
D55*
X036869Y031186D02*
D03*
D56*
X039231D02*
D03*
X034507Y044414D02*
D03*
X041593D02*
D03*
D57*
X04385Y04333D02*
D03*
D58*
Y04233D02*
D03*
Y04133D02*
D03*
Y04033D02*
D03*
Y03933D02*
D03*
Y03833D02*
D03*
Y03733D02*
D03*
Y03633D02*
D03*
Y03533D02*
D03*
Y03433D02*
D03*
Y03333D02*
D03*
Y03233D02*
D03*
Y03133D02*
D03*
Y03033D02*
D03*
Y02933D02*
D03*
Y02833D02*
D03*
Y02733D02*
D03*
Y02633D02*
D03*
Y02533D02*
D03*
X05385Y04333D02*
D03*
Y04233D02*
D03*
Y04133D02*
D03*
Y04033D02*
D03*
Y03933D02*
D03*
Y03833D02*
D03*
Y03733D02*
D03*
Y03633D02*
D03*
Y03533D02*
D03*
Y03433D02*
D03*
Y03333D02*
D03*
Y03233D02*
D03*
Y03133D02*
D03*
Y03033D02*
D03*
Y02933D02*
D03*
Y02833D02*
D03*
Y02733D02*
D03*
Y02633D02*
D03*
Y02533D02*
D03*
D59*
X04625Y04905D02*
D03*
Y04805D02*
D03*
Y05005D02*
D03*
X0497Y04905D02*
D03*
Y04805D02*
D03*
Y05005D02*
D03*
X03945Y04905D02*
D03*
Y04805D02*
D03*
Y05005D02*
D03*
X05315Y04905D02*
D03*
Y04805D02*
D03*
Y05005D02*
D03*
X04285Y04905D02*
D03*
Y04805D02*
D03*
Y05005D02*
D03*
D60*
X04625Y04705D02*
D03*
X0497D02*
D03*
X03945D02*
D03*
X05315D02*
D03*
X04285D02*
D03*
D61*
X048945Y05322D02*
D03*
X046235Y0551D02*
D03*
Y05322D02*
D03*
X048945Y0551D02*
D03*
X044655Y05322D02*
D03*
X041945Y0551D02*
D03*
Y05322D02*
D03*
X044655Y0551D02*
D03*
X05331Y05322D02*
D03*
X0506Y0551D02*
D03*
Y05322D02*
D03*
X05331Y0551D02*
D03*
X036395Y05322D02*
D03*
X033685Y0551D02*
D03*
Y05322D02*
D03*
X036395Y0551D02*
D03*
X04056Y05322D02*
D03*
X03785Y0551D02*
D03*
Y05322D02*
D03*
X04056Y0551D02*
D03*
D62*
X03445Y0485D02*
D03*
D63*
X03595D02*
D03*
D64*
X0339Y0284D02*
D03*
X0424D02*
D03*
X0404D02*
D03*
X0359D02*
D03*
D65*
X03515Y0259D02*
D03*
X03815D02*
D03*
D67*
X042Y0241D02*
D03*
X04D02*
D03*
D68*
X056828Y0509D02*
D03*
Y0444D02*
D03*
X0568Y02505D02*
D03*
X056828Y03785D02*
D03*
X05685Y0316D02*
D03*
D69*
X057828Y0509D02*
D03*
Y0539D02*
D03*
X056828D02*
D03*
X057828Y0444D02*
D03*
Y0474D02*
D03*
X056828D02*
D03*
X0568Y02805D02*
D03*
X0578D02*
D03*
Y02505D02*
D03*
X056828Y04085D02*
D03*
X057828D02*
D03*
Y03785D02*
D03*
X05685Y0346D02*
D03*
X05785D02*
D03*
Y0316D02*
D03*
D70*
X068Y03491D02*
D03*
Y030915D02*
D03*
Y032915D02*
D03*
Y05441D02*
D03*
Y050415D02*
D03*
Y052415D02*
D03*
Y047945D02*
D03*
Y04395D02*
D03*
Y04595D02*
D03*
Y041445D02*
D03*
Y03745D02*
D03*
Y03945D02*
D03*
Y028345D02*
D03*
Y02435D02*
D03*
Y02635D02*
D03*
D71*
X0647Y05495D02*
D03*
X0599Y05015D02*
D03*
X0657Y05255D02*
D03*
X0599Y05495D02*
D03*
X0647Y05015D02*
D03*
Y03545D02*
D03*
X0599Y03065D02*
D03*
X0657Y03305D02*
D03*
X0599Y03545D02*
D03*
X0647Y03065D02*
D03*
Y041985D02*
D03*
X0599Y037185D02*
D03*
X0657Y039585D02*
D03*
X0599Y041985D02*
D03*
X0647Y037185D02*
D03*
Y048485D02*
D03*
X0599Y043685D02*
D03*
X0657Y046085D02*
D03*
X0599Y048485D02*
D03*
X0647Y043685D02*
D03*
Y028885D02*
D03*
X0599Y024085D02*
D03*
X0657Y026485D02*
D03*
X0599Y028885D02*
D03*
X0647Y024085D02*
D03*
D72*
X055163Y036019D02*
D03*
X0464Y0373D02*
D03*
X055187Y029663D02*
D03*
X0567Y0308D02*
D03*
X0566Y0242D02*
D03*
X05663Y04922D02*
D03*
X056618Y0362D02*
D03*
Y04275D02*
D03*
D73*
X038184Y02387D02*
D03*
X036216D02*
D03*
M02*
